%
M48
M72
T01C0.0240
T02C0.0240
T03C0.0320
T04C0.0374
T05C0.0400
T06C0.1000
T07C0.1300
T08C0.2540
%
T01
X11960Y1480
X15250Y3710
X15250Y7140
X17230Y8920
X20130Y7550
X22650Y8170
X23750Y9860
X19220Y11080
X18170Y12420
X16720Y11840
X15280Y12760
X12660Y10980
X15710Y14780
X18630Y14960
X21730Y14230
X26190Y14280
X28590Y15590
X31450Y16040
X32440Y17050
X31470Y17350
X28630Y17780
X26080Y18870
X28620Y20070
X31430Y19670
X32290Y20140
X35020Y18990
X35880Y20600
X33410Y22380
X31160Y22060
X28650Y22380
X31240Y25620
X35250Y26990
X37780Y26710
X41300Y27170
X43560Y28990
X49290Y26230
X51420Y25640
X48440Y23510
X48860Y21560
X40410Y24020
X39760Y22840
X39810Y21490
X39750Y19560
X42510Y17090
X39760Y14800
X37560Y14320
X35470Y14300
X34320Y13630
X32950Y12260
X31910Y12410
X37050Y11340
X39900Y13130
X37170Y16250
X34470Y16770
X25780Y16710
X21490Y17640
X20460Y17650
X19280Y17670
X20320Y19210
X18190Y19290
X16440Y21120
X16480Y17370
X24920Y27040
X13700Y28580
X36680Y30080
X47030Y16330
X47610Y13840
X47280Y10060
X43880Y5690
X39560Y4780
X38790Y9500
X49340Y4110
X25160Y4640
X24340Y2490
T02
X27050Y3670
X22270Y4640
X15640Y5460
X15670Y3130
X10190Y5310
X18680Y10680
X19820Y10680
X18320Y11460
X16720Y11070
X18250Y12980
X18240Y13990
X18240Y15720
X18240Y17070
X22810Y17320
X28130Y16150
X28140Y14190
X31930Y12930
X32640Y13410
X32420Y13940
X33660Y13910
X33650Y15530
X32480Y16210
X35210Y16350
X35850Y16360
X36300Y15580
X37360Y15760
X37450Y13520
X40300Y12200
X36450Y12030
X42380Y14570
X45180Y13840
X47590Y14420
X45900Y15990
X44390Y16450
X42510Y16270
X42770Y18420
X41630Y19550
X43620Y20520
X45810Y21690
X46190Y20850
X41280Y23600
X40110Y25480
X37150Y24040
X34360Y24090
X32290Y24360
X27920Y23980
X25130Y24230
X27930Y22060
X28670Y21540
X32430Y21080
X33090Y21720
X36570Y20020
X37360Y20070
X35610Y18100
X33390Y18300
X33030Y18870
X32450Y18770
X32450Y17870
X28620Y19260
X22840Y14250
X22730Y10650
X40110Y6680
X41360Y6380
X42510Y6470
X42500Y8540
X45120Y9250
X46710Y10050
X43930Y10800
X43630Y25840
X43630Y26560
X40120Y27320
X37410Y27730
X47950Y25940
X49860Y26190
X13730Y27100
T03
X28270Y30210
X29270Y30210
X31270Y30210
X32270Y30210
X33270Y30210
X53860Y21960
X54860Y21510
X54860Y22410
X55860Y21960
X55860Y21060
X54860Y20610
X53860Y20160
X53860Y19260
X54860Y18810
X55860Y19260
X55860Y20160
X54860Y19710
X53860Y18360
X54860Y17910
X54860Y17010
X53860Y16560
X54860Y16110
X53860Y15660
X53860Y14760
X54860Y14310
X55860Y14760
X55860Y15660
X54860Y15210
X53860Y13860
X54860Y13410
X54860Y12510
X53860Y12060
X54860Y11610
X53860Y11160
X53860Y10260
X54860Y9810
X55860Y10260
X55860Y11160
X54860Y10710
X53860Y9360
X55860Y12060
X55860Y12960
X55860Y13860
X53860Y12960
X55860Y16560
X55860Y17460
X55860Y18360
X53860Y17460
X53860Y21060
T04
X9084Y23688
X8297Y23688
X8297Y24672
X9084Y24672
T05
X15850Y23670
X16850Y23670
X17850Y23670
X18850Y23670
X18850Y22670
X17850Y22670
X16850Y22670
X15850Y22670
X21130Y20840
X22130Y20840
X23130Y20840
X24130Y20840
X24130Y19840
X23130Y19840
X22130Y19840
X21130Y19840
X7680Y16610
X6680Y16070
X7680Y15530
X6680Y14990
X7680Y14450
X6680Y13910
X7680Y13370
X6680Y12830
X7680Y12290
X6680Y11750
X7680Y11210
X6680Y10670
X7680Y10130
X6680Y9590
X7680Y9050
X15560Y2450
X16560Y2450
X17560Y2450
X18560Y2450
X19560Y2450
X20560Y2450
X21560Y2450
X22560Y2450
X23560Y2450
X23560Y1450
X22560Y1450
X21560Y1450
X20560Y1450
X19560Y1450
X18560Y1450
X17560Y1450
X16560Y1450
X15560Y1450
T06
X9740Y2240
X25530Y2260
X52280Y2260
X7230Y21680
X7230Y26680
X9790Y29820
X25510Y29820
X52280Y29840
T07
X54860Y25190
X54860Y6646
X7180Y6270
X7180Y19390
T08
X6630Y2260
X55440Y2260
X55440Y29840
X6630Y29850
M30
