G75*
G70*
%OFA0B0*%
%FSLAX24Y24*%
%IPPOS*%
%LPD*%
%AMOC8*
5,1,8,0,0,1.08239X$1,22.5*
%
%ADD10C,0.2620*%
%ADD11C,0.1080*%
%ADD12R,0.0946X0.0316*%
%ADD13R,0.0671X0.0592*%
%ADD14R,0.0592X0.0671*%
%ADD15C,0.0600*%
%ADD16OC8,0.0680*%
%ADD17C,0.2080*%
%ADD18R,0.0710X0.0789*%
%ADD19R,0.0710X0.0790*%
%ADD20OC8,0.0654*%
%ADD21C,0.1480*%
%ADD22R,0.1104X0.1025*%
%ADD23R,0.0870X0.0670*%
%ADD24R,0.0870X0.1580*%
%ADD25R,0.0789X0.0253*%
%ADD26R,0.0253X0.0789*%
%ADD27OC8,0.0600*%
%ADD28R,0.2126X0.2126*%
%ADD29R,0.0177X0.0276*%
%ADD30R,0.0157X0.0256*%
%ADD31R,0.0256X0.0157*%
%ADD32R,0.0276X0.0177*%
%ADD33R,0.0256X0.0010*%
%ADD34R,0.0010X0.0157*%
%ADD35R,0.0010X0.0148*%
%ADD36R,0.0246X0.0010*%
%ADD37R,0.0157X0.0010*%
%ADD38R,0.0010X0.0256*%
%ADD39R,0.0148X0.0010*%
%ADD40R,0.0010X0.0246*%
%ADD41R,0.0138X0.0010*%
%ADD42R,0.0010X0.0236*%
%ADD43R,0.0236X0.0010*%
%ADD44R,0.0226X0.0010*%
%ADD45R,0.0266X0.0177*%
%ADD46R,0.0246X0.0157*%
%ADD47R,0.0010X0.0138*%
%ADD48R,0.0178X0.0474*%
%ADD49R,0.0840X0.2180*%
%ADD50R,0.0552X0.0297*%
%ADD51R,0.0316X0.0946*%
%ADD52R,0.0237X0.0434*%
%ADD53R,0.0670X0.0870*%
%ADD54R,0.1580X0.0870*%
%ADD55R,0.1580X0.0900*%
%ADD56R,0.3580X0.4580*%
%ADD57R,0.0790X0.0710*%
%ADD58R,0.1025X0.1104*%
%ADD59R,0.0480X0.0480*%
%ADD60R,0.0480X0.0480*%
%ADD61OC8,0.0480*%
D10*
X006643Y002272D03*
X055453Y002272D03*
X055453Y029852D03*
X006643Y029862D03*
D11*
X009803Y029832D03*
X025523Y029832D03*
X052293Y029852D03*
X052293Y002272D03*
X025543Y002272D03*
X009753Y002252D03*
D12*
X012340Y002412D03*
X012340Y002912D03*
X012340Y003412D03*
X012340Y003912D03*
X014387Y003912D03*
X014387Y003412D03*
X014387Y002912D03*
X014387Y002412D03*
X014467Y005752D03*
X014467Y006252D03*
X014467Y006752D03*
X014467Y007252D03*
X012420Y007252D03*
X012420Y006752D03*
X012420Y006252D03*
X012420Y005752D03*
X011470Y009772D03*
X011470Y010272D03*
X011470Y010772D03*
X011470Y011272D03*
X013517Y011272D03*
X013517Y010772D03*
X013517Y010272D03*
X013517Y009772D03*
X029430Y014082D03*
X029430Y014582D03*
X029430Y015082D03*
X029430Y015582D03*
X031477Y015582D03*
X031477Y015082D03*
X031477Y014582D03*
X031477Y014082D03*
X031447Y017772D03*
X031447Y018272D03*
X031447Y018772D03*
X031447Y019272D03*
X031447Y020092D03*
X031447Y020592D03*
X031447Y021092D03*
X031447Y021592D03*
X031457Y022492D03*
X031457Y022992D03*
X031457Y023492D03*
X031457Y023992D03*
X029410Y023992D03*
X029410Y023492D03*
X029410Y022992D03*
X029410Y022492D03*
X029400Y021592D03*
X029400Y021092D03*
X029400Y020592D03*
X029400Y020092D03*
X029400Y019272D03*
X029400Y018772D03*
X029400Y018272D03*
X029400Y017772D03*
X046120Y004232D03*
X046120Y003732D03*
X046120Y003232D03*
X046120Y002732D03*
X048167Y002732D03*
X048167Y003232D03*
X048167Y003732D03*
X048167Y004232D03*
D13*
X039483Y011898D03*
X039483Y012567D03*
X037113Y012827D03*
X037113Y012158D03*
X034073Y012228D03*
X034073Y012897D03*
X031303Y013177D03*
X031303Y012508D03*
X031303Y011557D03*
X031303Y010888D03*
X024813Y010687D03*
X024813Y010018D03*
X020183Y008817D03*
X020183Y008148D03*
X014673Y009728D03*
X014673Y010397D03*
X008893Y009127D03*
X008893Y008458D03*
X016623Y014188D03*
X016623Y014857D03*
X016643Y015978D03*
X016643Y016647D03*
X016533Y018178D03*
X016533Y018847D03*
X020973Y021808D03*
X020973Y022477D03*
X022053Y022487D03*
X022053Y021818D03*
X023073Y021808D03*
X024193Y021818D03*
X024193Y022487D03*
X023073Y022477D03*
X018843Y024648D03*
X018843Y025317D03*
X017793Y025327D03*
X016853Y025307D03*
X016853Y024638D03*
X017793Y024658D03*
X015793Y024648D03*
X015793Y025317D03*
X014833Y027388D03*
X014833Y028057D03*
X027743Y020077D03*
X027743Y019408D03*
X025993Y018077D03*
X024963Y018237D03*
X024963Y017568D03*
X025993Y017408D03*
X032933Y019508D03*
X032933Y020177D03*
X032453Y021738D03*
X032453Y022407D03*
X037263Y022328D03*
X037263Y022997D03*
X037263Y021327D03*
X037263Y020658D03*
X041893Y017657D03*
X041893Y016988D03*
X043433Y017247D03*
X043433Y016578D03*
X039933Y016767D03*
X039933Y016098D03*
X036973Y014997D03*
X036973Y014328D03*
X046693Y015098D03*
X046693Y015767D03*
X050633Y023808D03*
X050633Y024477D03*
X051563Y024477D03*
X051563Y023808D03*
X042493Y028288D03*
X042493Y028957D03*
X041473Y028947D03*
X041473Y028278D03*
X041473Y029938D03*
X041473Y030607D03*
X042503Y030587D03*
X042503Y029918D03*
X035733Y030237D03*
X035733Y029568D03*
X013423Y015497D03*
X013423Y014828D03*
D14*
X015879Y012772D03*
X016548Y012772D03*
X016368Y010442D03*
X015699Y010442D03*
X015809Y009062D03*
X016478Y009062D03*
X017829Y008962D03*
X018498Y008962D03*
X022999Y008872D03*
X023668Y008872D03*
X024889Y014292D03*
X025558Y014292D03*
X026829Y014292D03*
X027498Y014292D03*
X028179Y017052D03*
X028848Y017052D03*
X025908Y019832D03*
X025239Y019832D03*
X032669Y023422D03*
X033338Y023422D03*
X031938Y025002D03*
X031269Y025002D03*
X028598Y024832D03*
X027929Y024832D03*
X027959Y027372D03*
X028628Y027372D03*
X031629Y027382D03*
X032298Y027382D03*
X036919Y028812D03*
X037588Y028812D03*
X041939Y027192D03*
X042608Y027192D03*
X041148Y022872D03*
X040479Y022872D03*
X040789Y021482D03*
X041458Y021482D03*
X041098Y019562D03*
X040429Y019562D03*
X046639Y017192D03*
X047308Y017192D03*
X050209Y017942D03*
X050878Y017942D03*
X051689Y018842D03*
X052358Y018842D03*
X050768Y019732D03*
X050099Y019732D03*
X051699Y020682D03*
X052368Y020682D03*
X050718Y021672D03*
X050049Y021672D03*
X051439Y022502D03*
X052108Y022502D03*
X052418Y016992D03*
X051749Y016992D03*
X050928Y016102D03*
X050259Y016102D03*
X051739Y015232D03*
X052408Y015232D03*
X050918Y014342D03*
X050249Y014342D03*
X051669Y013402D03*
X052338Y013402D03*
X050858Y012522D03*
X050189Y012522D03*
X051789Y011652D03*
X052458Y011652D03*
X050848Y010702D03*
X050179Y010702D03*
X052029Y009842D03*
X052698Y009842D03*
X050878Y009402D03*
X050209Y009402D03*
X043208Y005682D03*
X042539Y005682D03*
X040138Y009562D03*
X039469Y009562D03*
X040469Y014812D03*
X041138Y014812D03*
X041039Y016002D03*
X041708Y016002D03*
X015778Y021142D03*
X015109Y021142D03*
X009168Y016602D03*
X008499Y016602D03*
X008499Y015542D03*
X009168Y015542D03*
X009158Y014462D03*
X008489Y014462D03*
X008499Y013382D03*
X009168Y013382D03*
X009168Y012342D03*
X008499Y012342D03*
X008489Y011232D03*
X009158Y011232D03*
X009078Y010152D03*
X008409Y010152D03*
D15*
X028283Y029962D02*
X028283Y030482D01*
X029283Y030482D02*
X029283Y029962D01*
X031283Y029962D02*
X031283Y030482D01*
X032283Y030482D02*
X032283Y029962D01*
X033283Y029962D02*
X033283Y030482D01*
D16*
X018863Y023682D03*
X017863Y023682D03*
X016863Y023682D03*
X015863Y023682D03*
X015863Y022682D03*
X016863Y022682D03*
X017863Y022682D03*
X018863Y022682D03*
X021143Y020852D03*
X022143Y020852D03*
X023143Y020852D03*
X024143Y020852D03*
X024143Y019852D03*
X023143Y019852D03*
X022143Y019852D03*
X021143Y019852D03*
X007693Y016622D03*
X006693Y016082D03*
X007693Y015542D03*
X006693Y015002D03*
X007693Y014462D03*
X006693Y013922D03*
X007693Y013382D03*
X006693Y012842D03*
X007693Y012302D03*
X006693Y011762D03*
X007693Y011222D03*
X006693Y010682D03*
X007693Y010142D03*
X006693Y009602D03*
X007693Y009062D03*
X015573Y002462D03*
X016573Y002462D03*
X017573Y002462D03*
X018573Y002462D03*
X019573Y002462D03*
X020573Y002462D03*
X021573Y002462D03*
X022573Y002462D03*
X023573Y002462D03*
X023573Y001462D03*
X022573Y001462D03*
X021573Y001462D03*
X020573Y001462D03*
X019573Y001462D03*
X018573Y001462D03*
X017573Y001462D03*
X016573Y001462D03*
X015573Y001462D03*
D17*
X007193Y006282D03*
X007193Y019402D03*
X054873Y025202D03*
X054873Y006658D03*
D18*
X051734Y004202D03*
X050632Y004202D03*
X041044Y017652D03*
X039942Y017652D03*
X012654Y027382D03*
X011552Y027382D03*
D19*
X011733Y028582D03*
X012853Y028582D03*
X048623Y024252D03*
X049743Y024252D03*
X050043Y025452D03*
X048923Y025452D03*
X050643Y026652D03*
X051763Y026652D03*
X051793Y027732D03*
X050673Y027732D03*
X041343Y005622D03*
X040223Y005622D03*
X050613Y005132D03*
X051733Y005132D03*
X013883Y001492D03*
X012763Y001492D03*
D20*
X009098Y023700D03*
X008310Y023700D03*
X008310Y024684D03*
X009098Y024684D03*
D21*
X007243Y026692D03*
X007243Y021692D03*
D22*
X021523Y026662D03*
X024043Y026662D03*
X024103Y024232D03*
X026623Y024232D03*
X034523Y025772D03*
X037043Y025772D03*
X037543Y030292D03*
X040063Y030292D03*
D23*
X022763Y025142D03*
X022763Y024242D03*
X022763Y023342D03*
D24*
X020283Y024232D03*
D25*
X017394Y017853D03*
X017394Y017597D03*
X017394Y017341D03*
X017394Y017085D03*
X017394Y016829D03*
X017394Y016573D03*
X017394Y016318D03*
X017394Y016062D03*
X017394Y015806D03*
X017394Y015550D03*
X017394Y015294D03*
X017394Y015038D03*
X017394Y014782D03*
X017394Y014526D03*
X017394Y014270D03*
X017394Y014014D03*
X017394Y013759D03*
X017394Y013503D03*
X017394Y013247D03*
X017394Y012991D03*
X017394Y012735D03*
X017394Y012479D03*
X017394Y012223D03*
X017394Y011967D03*
X017394Y011711D03*
X017394Y011455D03*
X017394Y011199D03*
X017394Y010944D03*
X017394Y010688D03*
X017394Y010432D03*
X023792Y010432D03*
X023792Y010688D03*
X023792Y010944D03*
X023792Y011199D03*
X023792Y011455D03*
X023792Y011711D03*
X023792Y011967D03*
X023792Y012223D03*
X023792Y012479D03*
X023792Y012735D03*
X023792Y012991D03*
X023792Y013247D03*
X023792Y013503D03*
X023792Y013759D03*
X023792Y014014D03*
X023792Y014270D03*
X023792Y014526D03*
X023792Y014782D03*
X023792Y015038D03*
X023792Y015294D03*
X023792Y015550D03*
X023792Y015806D03*
X023792Y016062D03*
X023792Y016318D03*
X023792Y016573D03*
X023792Y016829D03*
X023792Y017085D03*
X023792Y017341D03*
X023792Y017597D03*
X023792Y017853D03*
D26*
X023024Y018493D03*
X022769Y018493D03*
X022513Y018493D03*
X022257Y018493D03*
X022001Y018493D03*
X021745Y018493D03*
X021489Y018493D03*
X021233Y018493D03*
X020977Y018493D03*
X020721Y018493D03*
X020465Y018493D03*
X020209Y018493D03*
X019954Y018493D03*
X019698Y018493D03*
X019442Y018493D03*
X019186Y018493D03*
X018930Y018493D03*
X018674Y018493D03*
X018418Y018493D03*
X018162Y018493D03*
X018162Y009792D03*
X018418Y009792D03*
X018674Y009792D03*
X018930Y009792D03*
X019186Y009792D03*
X019442Y009792D03*
X019698Y009792D03*
X019954Y009792D03*
X020209Y009792D03*
X020465Y009792D03*
X020721Y009792D03*
X020977Y009792D03*
X021233Y009792D03*
X021489Y009792D03*
X021745Y009792D03*
X022001Y009792D03*
X022257Y009792D03*
X022513Y009792D03*
X022769Y009792D03*
X023024Y009792D03*
D27*
X053873Y009372D03*
X053873Y010272D03*
X054873Y009822D03*
X055873Y010272D03*
X054873Y010722D03*
X053873Y011172D03*
X054873Y011622D03*
X054873Y012522D03*
X053873Y012072D03*
X053873Y012972D03*
X054873Y013422D03*
X053873Y013872D03*
X053873Y014772D03*
X054873Y014322D03*
X055873Y013872D03*
X055873Y014772D03*
X054873Y015222D03*
X053873Y015672D03*
X054873Y016122D03*
X054873Y017022D03*
X053873Y016572D03*
X053873Y017472D03*
X054873Y017922D03*
X053873Y018372D03*
X053873Y019272D03*
X054873Y018822D03*
X055873Y018372D03*
X055873Y019272D03*
X054873Y019722D03*
X053873Y020172D03*
X054873Y020622D03*
X054873Y021522D03*
X053873Y021072D03*
X053873Y021972D03*
X054873Y022422D03*
X055873Y021972D03*
X055873Y021072D03*
X055873Y020172D03*
X055873Y017472D03*
X055873Y016572D03*
X055873Y015672D03*
X055873Y012972D03*
X055873Y012072D03*
X055873Y011172D03*
D28*
X037423Y018322D03*
D29*
X037325Y017033D03*
X037522Y017033D03*
X037719Y017033D03*
X037915Y017033D03*
X038112Y017033D03*
X038309Y017033D03*
X037128Y017033D03*
X036931Y017033D03*
X036734Y017033D03*
X036537Y017033D03*
X036537Y019612D03*
X036734Y019612D03*
X036931Y019612D03*
X037128Y019612D03*
X037325Y019612D03*
X037522Y019612D03*
X037719Y019612D03*
X037915Y019612D03*
X038112Y019612D03*
X038309Y019612D03*
D30*
X038496Y019622D03*
X036350Y019622D03*
X036350Y017023D03*
X038496Y017023D03*
D31*
X036124Y017250D03*
X036124Y019395D03*
D32*
X036134Y019208D03*
X036134Y019011D03*
X036134Y018814D03*
X036134Y018618D03*
X036134Y018421D03*
X036134Y018224D03*
X036134Y018027D03*
X036134Y017830D03*
X036134Y017633D03*
X036134Y017437D03*
D33*
X036124Y019479D03*
D34*
X036257Y019395D03*
D35*
X036267Y019390D03*
X038590Y019390D03*
X038590Y017254D03*
X036257Y017254D03*
D36*
X036119Y017166D03*
X036119Y019489D03*
D37*
X036350Y019489D03*
D38*
X036267Y019622D03*
D39*
X036355Y019479D03*
X038491Y019489D03*
X038491Y017156D03*
X036355Y017156D03*
D40*
X036267Y017018D03*
X038580Y017018D03*
X038580Y019626D03*
X036257Y019626D03*
D41*
X038486Y019479D03*
X038486Y017166D03*
X036360Y017166D03*
D42*
X036257Y017013D03*
X038590Y017013D03*
X038590Y019631D03*
D43*
X038723Y019479D03*
X038723Y017166D03*
X036114Y017156D03*
D44*
X038727Y017156D03*
X038727Y019489D03*
D45*
X038708Y019208D03*
X038708Y019011D03*
X038708Y018814D03*
X038708Y018618D03*
X038708Y018421D03*
X038708Y018224D03*
X038708Y018027D03*
X038708Y017830D03*
X038708Y017633D03*
X038708Y017437D03*
D46*
X038718Y017250D03*
X038718Y019395D03*
D47*
X038580Y019385D03*
X038580Y017259D03*
X036267Y017259D03*
D48*
X033387Y012904D03*
X033190Y012904D03*
X032993Y012904D03*
X032796Y012904D03*
X032600Y012904D03*
X032600Y011240D03*
X032796Y011240D03*
X032993Y011240D03*
X033190Y011240D03*
X033387Y011240D03*
D49*
X014203Y016362D03*
X014203Y020162D03*
D50*
X014961Y011846D03*
X015985Y011846D03*
X015985Y011472D03*
X015985Y011098D03*
X014961Y011098D03*
D51*
X023103Y006726D03*
X023603Y006726D03*
X024103Y006726D03*
X024603Y006726D03*
X027413Y006976D03*
X027913Y006976D03*
X028413Y006976D03*
X028913Y006976D03*
X028913Y004929D03*
X028413Y004929D03*
X027913Y004929D03*
X027413Y004929D03*
X024603Y004679D03*
X024103Y004679D03*
X023603Y004679D03*
X023103Y004679D03*
X040893Y011789D03*
X041393Y011789D03*
X041893Y011789D03*
X042393Y011789D03*
X042893Y011789D03*
X043393Y011789D03*
X043893Y011789D03*
X045683Y011799D03*
X046183Y011799D03*
X046683Y011799D03*
X047183Y011799D03*
X047183Y013846D03*
X046683Y013846D03*
X046183Y013846D03*
X045683Y013846D03*
X043893Y013836D03*
X043393Y013836D03*
X042893Y013836D03*
X042393Y013836D03*
X041893Y013836D03*
X041393Y013836D03*
X040893Y013836D03*
X044393Y015179D03*
X044893Y015179D03*
X045393Y015179D03*
X045893Y015179D03*
X045893Y017226D03*
X045393Y017226D03*
X044893Y017226D03*
X044393Y017226D03*
X046943Y018839D03*
X047443Y018839D03*
X047943Y018839D03*
X048443Y018839D03*
X045133Y019209D03*
X044633Y019209D03*
X044133Y019209D03*
X043633Y019209D03*
X043133Y019209D03*
X042633Y019209D03*
X042133Y019209D03*
X042133Y021256D03*
X042633Y021256D03*
X043133Y021256D03*
X043633Y021256D03*
X044133Y021256D03*
X044633Y021256D03*
X045133Y021256D03*
X046943Y020886D03*
X047443Y020886D03*
X047943Y020886D03*
X048443Y020886D03*
X045143Y023079D03*
X044643Y023079D03*
X044143Y023079D03*
X043643Y023079D03*
X043143Y023079D03*
X042643Y023079D03*
X042143Y023079D03*
X042143Y025126D03*
X042643Y025126D03*
X043143Y025126D03*
X043643Y025126D03*
X044143Y025126D03*
X044643Y025126D03*
X045143Y025126D03*
X046393Y025206D03*
X046893Y025206D03*
X047393Y025206D03*
X047893Y025206D03*
X047893Y023159D03*
X047393Y023159D03*
X046893Y023159D03*
X046393Y023159D03*
X046243Y009246D03*
X045743Y009246D03*
X046743Y009246D03*
X047243Y009246D03*
X047243Y007199D03*
X046743Y007199D03*
X046243Y007199D03*
X045743Y007199D03*
X044023Y007239D03*
X043523Y007239D03*
X043023Y007239D03*
X042523Y007239D03*
X042023Y007239D03*
X041523Y007239D03*
X041023Y007239D03*
X041023Y009286D03*
X041523Y009286D03*
X042023Y009286D03*
X042523Y009286D03*
X043023Y009286D03*
X043523Y009286D03*
X044023Y009286D03*
D52*
X036289Y027717D03*
X035777Y027717D03*
X036033Y028347D03*
D53*
X038423Y026192D03*
X039323Y026192D03*
X040223Y026192D03*
D54*
X039313Y028672D03*
D55*
X043833Y027982D03*
X043833Y029982D03*
D56*
X048333Y028982D03*
D57*
X038843Y006622D03*
X038843Y005503D03*
D58*
X035523Y012713D03*
X035523Y015232D03*
D59*
X035483Y014312D03*
X034333Y013642D03*
X032963Y012272D03*
X031923Y012422D03*
X037063Y011352D03*
X039913Y013142D03*
X037573Y014332D03*
X039773Y014812D03*
X042523Y017102D03*
X039763Y019572D03*
X039823Y021502D03*
X039773Y022852D03*
X040423Y024032D03*
X037793Y026722D03*
X035263Y027002D03*
X031253Y025632D03*
X033423Y022392D03*
X031173Y022072D03*
X028663Y022392D03*
X028633Y020082D03*
X026093Y018882D03*
X028643Y017792D03*
X031483Y017362D03*
X032453Y017062D03*
X034483Y016782D03*
X031463Y016052D03*
X028603Y015602D03*
X026203Y014292D03*
X021743Y014242D03*
X018643Y014972D03*
X015723Y014792D03*
X015293Y012772D03*
X016733Y011852D03*
X018183Y012432D03*
X019233Y011092D03*
X017243Y008932D03*
X015263Y007152D03*
X020143Y007562D03*
X022663Y008182D03*
X023763Y009872D03*
X025173Y004652D03*
X024353Y002502D03*
X015263Y003722D03*
X011973Y001492D03*
X012673Y010992D03*
X016493Y017382D03*
X019293Y017682D03*
X020473Y017662D03*
X021503Y017652D03*
X020333Y019222D03*
X018203Y019302D03*
X016453Y021132D03*
X025793Y016722D03*
X031443Y019682D03*
X032303Y020152D03*
X035033Y019002D03*
X035893Y020612D03*
X047043Y016342D03*
X047623Y013852D03*
X047293Y010072D03*
X043893Y005702D03*
X039573Y004792D03*
X038803Y009512D03*
X049353Y004122D03*
X048873Y021572D03*
X048453Y023522D03*
X051433Y025652D03*
X049303Y026242D03*
X043573Y029002D03*
X041313Y027182D03*
X036693Y030092D03*
X024933Y027052D03*
X013713Y028592D03*
D60*
X013743Y027112D03*
X025143Y024242D03*
X027933Y023992D03*
X027943Y022072D03*
X028683Y021552D03*
X032443Y021092D03*
X033103Y021732D03*
X036583Y020032D03*
X037373Y020082D03*
X035623Y018112D03*
X033403Y018312D03*
X032463Y017882D03*
X032463Y018782D03*
X033043Y018882D03*
X028633Y019272D03*
X028143Y016162D03*
X028153Y014202D03*
X031943Y012942D03*
X032653Y013422D03*
X032433Y013952D03*
X033673Y013922D03*
X033663Y015542D03*
X032493Y016222D03*
X035223Y016362D03*
X035863Y016372D03*
X036313Y015592D03*
X037373Y015772D03*
X037463Y013532D03*
X040313Y012212D03*
X036463Y012042D03*
X042393Y014582D03*
X045193Y013852D03*
X047603Y014432D03*
X045913Y016002D03*
X044403Y016462D03*
X042523Y016282D03*
X042783Y018432D03*
X041643Y019562D03*
X043633Y020532D03*
X045823Y021702D03*
X046203Y020862D03*
X041293Y023612D03*
X040123Y025492D03*
X037163Y024052D03*
X034373Y024102D03*
X032303Y024372D03*
X037423Y027742D03*
X040133Y027332D03*
X043643Y026572D03*
X043643Y025852D03*
X047963Y025952D03*
X049873Y026202D03*
X022823Y017332D03*
X018253Y017082D03*
X018253Y015732D03*
X018253Y014002D03*
X018263Y012992D03*
X018333Y011472D03*
X018693Y010692D03*
X019833Y010692D03*
X022743Y010662D03*
X016733Y011082D03*
X022853Y014262D03*
X015653Y005472D03*
X015683Y003142D03*
X010203Y005322D03*
X022283Y004652D03*
X027063Y003682D03*
X040123Y006692D03*
X041373Y006392D03*
X042523Y006482D03*
X042513Y008552D03*
X045133Y009262D03*
X046723Y010062D03*
X043943Y010812D03*
D61*
X037183Y016262D03*
M02*
