  0
SECTION
  2
HEADER
  9
$LIMMIN
 10
-17.857143
 20
-35.128688
  9
$LIMMAX
 10
172.637357
 20
140.878399
  9
$EXTMIN
 10
-17.857143
 20
-35.128688
  9
$EXTMAX
 10
172.637357
 20
140.878399
  9
$ANGBASE
 50
0.000000
  9
$ANGDIR
 70
0
  9
$INSUNITS
 70
4
  9
$DIMALT
 70
4
  9
$DIMLUNIT
 70
2
  9
$DIMASZ
 40
3.000000
  9
$DIMTXT
 40
5.000000
  9
$DIMRND
 40
0.010000
  9
$DIMEXE
 40
2.000000
  9
$DIMEXO
 40
2.000000
  9
$DIMAUNIT
 70
0
  9
$DIMADEC
 70
2
  9
$GRIDUNIT
 10
0.001000
 20
0.001000
  9
$PLIMMIN
 10
-26.781866
 20
-68.342970
  9
$PLIMMAX
 10
183.218134
 20
228.657030
  9
$PSVPSCALE
 40
1.000000
  0
ENDSEC
  0
SECTION
  2
TABLES
  0
TABLE
  2
LTYPE
 70
     1
  0
LTYPE
  2
CONTINUOUS
 70
    64
  3
Ausgez
 72
    65
 73
  0
 40
0.000000
  0
ENDTAB
  0
TABLE
  2
LAYER
 70
     1
  0
LAYER
  2
default
 70
    64
 62
7
  6
CONTINUOUS
  0
ENDTAB
  0
ENDSEC
  0
SECTION
  2
BLOCKS
  0
ENDSEC
  0
SECTION
  2
ENTITIES
  0
DIMENSION
  8
default
  6
CONTINUOUS
  1
;;
 10
0.000000
 20
-10.000000
 13
0.000000
 23
0.000000
 14
144.000000
 24
0.000000
 50
0.000000
 70
0
 39
0
 62
7
  0
DIMENSION
  8
default
  6
CONTINUOUS
  1
;;
 10
0.000000
 20
5.000000
 13
0.000000
 23
0.000000
 14
70.000000
 24
0.000000
 50
0.000000
 70
0
 39
0
 62
7
  0
DIMENSION
  8
default
  6
CONTINUOUS
  1
;;
 10
70.000000
 20
5.000000
 13
70.000000
 23
0.000000
 14
88.000000
 24
0.000000
 50
0.000000
 70
0
 39
0
 62
7
  0
DIMENSION
  8
default
  6
CONTINUOUS
  1
;;
 10
97.000000
 20
0.000000
 13
88.000000
 23
0.000000
 14
88.000000
 24
24.000000
 50
90.000000
 70
0
 39
0
 62
7
  0
DIMENSION
  8
default
  6
CONTINUOUS
  1
;;
 10
0.000000
 20
80.000000
 13
0.000000
 23
0.000000
 14
57.000000
 24
0.000000
 50
0.000000
 70
0
 39
0
 62
7
  0
DIMENSION
  8
default
  6
CONTINUOUS
  1
;;
 10
144.000000
 20
90.000000
 13
144.000000
 23
0.000000
 14
110.000000
 24
0.000000
 50
0.000000
 70
0
 39
0
 62
7
  0
DIMENSION
  8
default
  6
CONTINUOUS
  1
;;
 10
0.000000
 20
93.253386
 13
0.000000
 23
3.253386
 14
44.000000
 24
3.253386
 50
0.000000
 70
0
 39
0
 62
7
  0
DIMENSION
  8
default
  6
CONTINUOUS
  1
;;
 10
0.000000
 20
103.741393
 13
0.000000
 23
93.741393
 14
70.000000
 24
93.741393
 50
0.000000
 70
0
 39
0
 62
7
  0
DIMENSION
  8
default
  6
CONTINUOUS
  1
;;
 10
70.000000
 20
103.741393
 13
70.000000
 23
93.741393
 14
88.000000
 24
93.741393
 50
0.000000
 70
0
 39
0
 62
7
  0
DIMENSION
  8
default
  6
CONTINUOUS
  1
;;
 10
30.000000
 20
0.000000
 13
60.000000
 23
0.000000
 14
60.000000
 24
20.000000
 50
90.000000
 70
0
 39
0
 62
7
  0
DIMENSION
  8
default
  6
CONTINUOUS
  1
;;
 10
20.000000
 20
0.000000
 13
60.000000
 23
0.000000
 14
60.000000
 24
36.600000
 50
90.000000
 70
0
 39
0
 62
7
  0
DIMENSION
  8
default
  6
CONTINUOUS
  1
;;
 10
10.000000
 20
0.000000
 13
60.000000
 23
0.000000
 14
60.000000
 24
53.000000
 50
90.000000
 70
0
 39
0
 62
7
  0
DIMENSION
  8
default
  6
CONTINUOUS
  1
;;
 10
-2.000000
 20
0.000000
 13
60.000000
 23
0.000000
 14
60.000000
 24
70.000000
 50
90.000000
 70
0
 39
0
 62
7
  0
DIMENSION
  8
default
  6
CONTINUOUS
  1
;;
 10
164.727174
 20
0.000000
 13
158.727174
 23
0.000000
 14
158.727174
 24
90.000000
 50
90.000000
 70
0
 39
0
 62
7
  0
DIMENSION
  8
default
  6
CONTINUOUS
  1
;;
 10
119.000000
 20
16.000000
 13
110.000000
 23
16.000000
 14
110.000000
 24
0.000000
 50
90.000000
 70
0
 39
0
 62
7
  0
DIMENSION
  8
default
  6
CONTINUOUS
  1
;;
 10
155.000000
 20
0.000000
 13
110.000000
 23
0.000000
 14
110.000000
 24
74.000000
 50
90.000000
 70
0
 39
0
 62
7
  0
DIMENSION
  8
default
  6
CONTINUOUS
  1
;;
 10
130.000000
 20
0.000000
 13
92.000000
 23
0.000000
 14
92.000000
 24
35.400000
 50
90.000000
 70
0
 39
0
 62
7
  0
DIMENSION
  8
default
  6
CONTINUOUS
  1
;;
 10
140.000000
 20
0.000000
 13
92.000000
 23
0.000000
 14
92.000000
 24
54.600000
 50
90.000000
 70
0
 39
0
 62
7
  0
TEXT
  8
default
  6
CONTINUOUS
 10
-11.857418
 20
47.247250
 40
10.000000
 50
0.000000
 72
0
  7
Normal#2.000000#6.000000
  1
A
 39
0
 62
7
  0
TEXT
  8
default
  6
CONTINUOUS
 10
76.617162
 20
114.560900
 40
10.000000
 50
0.000000
 72
0
  7
Normal#2.000000#6.000000
  1
B
 39
0
 62
7
  0
TEXT
  8
default
  6
CONTINUOUS
 10
168.192913
 20
39.403112
 40
10.000000
 50
0.000000
 72
0
  7
Normal#2.000000#6.000000
  1
C
 39
0
 62
7
  0
TEXT
  8
default
  6
CONTINUOUS
 10
0.619036
 20
135.878399
 40
5.000000
 50
0.000000
 72
0
  7
Normal#0.500000#3.000000
  1
PP78, Evatron, Top View, USBDUX
 39
0
 62
7
  0
TEXT
  8
default
  6
CONTINUOUS
 10
0.390276
 20
126.059133
 40
5.000000
 50
0.000000
 72
0
  7
Normal#0.500000#3.000000
  1
all drills 15mm
 39
0
 62
7
  0
DIMENSION
  8
default
  6
CONTINUOUS
  1
;;
 10
-10.000000
 20
7.500000
 13
7.500000
 23
7.500000
 14
7.500000
 24
0.000000
 50
90.000000
 70
0
 39
0
 62
7
  0
DIMENSION
  8
default
  6
CONTINUOUS
  1
;;
 10
7.500000
 20
-20.000000
 13
7.500000
 23
7.500000
 14
0.000000
 24
7.500000
 50
0.000000
 70
0
 39
0
 62
7
  0
DIMENSION
  8
default
  6
CONTINUOUS
  1
;;
 10
7.500000
 20
-20.000000
 13
7.500000
 23
7.500000
 14
118.500000
 24
7.500000
 50
0.000000
 70
0
 39
0
 62
7
  0
TEXT
  8
default
  6
CONTINUOUS
 10
76.428104
 20
-35.128688
 40
10.000000
 50
0.000000
 72
0
  7
Normal#2.000000#6.000000
  1
D
 39
0
 62
7
  0
LINE
  8
default
  6
DASH
 10
118.500000
 20
7.500000
 11
7.500000
 21
7.500000
 39
0
 62
7
  0
LINE
  8
default
  6
DASH
 10
7.500000
 20
7.500000
 11
7.500000
 21
82.500000
 39
0
 62
7
  0
LINE
  8
default
  6
DASH
 10
7.500000
 20
82.500000
 11
118.500000
 21
82.500000
 39
0
 62
7
  0
LINE
  8
default
  6
DASH
 10
118.500000
 20
82.500000
 11
118.500000
 21
7.500000
 39
0
 62
7
  0
DIMENSION
  8
default
  6
CONTINUOUS
  1
;;
 10
-10.000000
 20
82.500000
 13
7.500000
 23
82.500000
 14
7.500000
 24
90.000000
 50
90.000000
 70
0
 39
0
 62
7
  0
LINE
  8
default
  6
CONTINUOUS
 10
144.000000
 20
0.000000
 11
144.000000
 21
90.000000
 39
3
 62
7
  0
LINE
  8
default
  6
CONTINUOUS
 10
70.000000
 20
0.000000
 11
70.000000
 21
24.000000
 39
3
 62
7
  0
LINE
  8
default
  6
CONTINUOUS
 10
70.000000
 20
24.000000
 11
88.000000
 21
24.000000
 39
3
 62
7
  0
LINE
  8
default
  6
CONTINUOUS
 10
88.000000
 20
24.000000
 11
88.000000
 21
0.000000
 39
3
 62
7
  0
LINE
  8
default
  6
CONTINUOUS
 10
70.000000
 20
0.000000
 11
0.000000
 21
0.000000
 39
3
 62
7
  0
LINE
  8
default
  6
CONTINUOUS
 10
88.000000
 20
0.000000
 11
144.000000
 21
0.000000
 39
3
 62
7
  0
LINE
  8
default
  6
CONTINUOUS
 10
144.000000
 20
90.000000
 11
88.000000
 21
90.000000
 39
3
 62
7
  0
LINE
  8
default
  6
CONTINUOUS
 10
88.000000
 20
90.000000
 11
88.000000
 21
66.000000
 39
3
 62
7
  0
LINE
  8
default
  6
CONTINUOUS
 10
88.000000
 20
66.000000
 11
70.000000
 21
66.000000
 39
3
 62
7
  0
LINE
  8
default
  6
CONTINUOUS
 10
70.000000
 20
66.000000
 11
70.000000
 21
90.000000
 39
3
 62
7
  0
LINE
  8
default
  6
CONTINUOUS
 10
70.000000
 20
90.000000
 11
0.000000
 21
90.000000
 39
3
 62
7
  0
LINE
  8
default
  6
CONTINUOUS
 10
0.000000
 20
90.000000
 11
0.000000
 21
0.000000
 39
3
 62
7
  0
LINE
  8
default
  6
CONTINUOUS
 10
0.000000
 20
0.000000
 11
0.000000
 21
90.000000
 39
3
 62
7
  0
CIRCLE
  8
default
  6
CONTINUOUS
 10
44.000000
 20
70.000000
 40
7.500000
 39
3
 62
7
  0
CIRCLE
  8
default
  6
CONTINUOUS
 10
44.000000
 20
53.000000
 40
7.500000
 39
3
 62
7
  0
CIRCLE
  8
default
  6
CONTINUOUS
 10
44.000000
 20
36.600000
 40
7.500000
 39
3
 62
7
  0
CIRCLE
  8
default
  6
CONTINUOUS
 10
44.000000
 20
20.000000
 40
7.500000
 39
3
 62
7
  0
CIRCLE
  8
default
  6
CONTINUOUS
 10
57.000000
 20
53.000000
 40
7.500000
 39
3
 62
7
  0
CIRCLE
  8
default
  6
CONTINUOUS
 10
57.000000
 20
36.600000
 40
7.500000
 39
3
 62
7
  0
CIRCLE
  8
default
  6
CONTINUOUS
 10
57.000000
 20
70.000000
 40
7.500000
 39
3
 62
7
  0
CIRCLE
  8
default
  6
CONTINUOUS
 10
57.000000
 20
20.000000
 40
7.500000
 39
3
 62
7
  0
CIRCLE
  8
default
  6
CONTINUOUS
 10
110.000000
 20
74.000000
 40
7.500000
 39
3
 62
7
  0
CIRCLE
  8
default
  6
CONTINUOUS
 10
110.000000
 20
54.600000
 40
7.500000
 39
3
 62
7
  0
CIRCLE
  8
default
  6
CONTINUOUS
 10
110.000000
 20
16.000000
 40
7.500000
 39
3
 62
7
  0
CIRCLE
  8
default
  6
CONTINUOUS
 10
110.000000
 20
35.400000
 40
7.500000
 39
3
 62
7
  0
DIMENSION
  8
default
  6
CONTINUOUS
  1
;;
 10
144.000000
 20
81.000000
 13
144.000000
 23
0.000000
 14
93.000000
 24
0.000000
 50
0.000000
 70
0
 39
0
 62
7
  0
CIRCLE
  8
default
  6
CONTINUOUS
 10
93.033310
 20
54.600000
 40
7.500000
 39
3
 62
7
  0
CIRCLE
  8
default
  6
CONTINUOUS
 10
93.033310
 20
35.400000
 40
7.500000
 39
3
 62
7
  0
ENDSEC
  0
EOF
