G75*
G70*
%OFA0B0*%
%FSLAX24Y24*%
%IPPOS*%
%LPD*%
%AMOC8*
5,1,8,0,0,1.08239X$1,22.5*
%
%ADD10C,0.2620*%
%ADD11C,0.1080*%
%ADD12R,0.3720X0.6000*%
%ADD13R,0.0316X0.0946*%
%ADD14C,0.0520*%
%ADD15R,0.0592X0.0671*%
%ADD16R,0.0671X0.0592*%
%ADD17C,0.0640*%
%ADD18R,0.0946X0.0237*%
%ADD19R,0.0710X0.0789*%
%ADD20R,0.0710X0.0790*%
%ADD21OC8,0.0654*%
%ADD22C,0.1480*%
%ADD23R,0.1104X0.1025*%
%ADD24R,0.0870X0.0670*%
%ADD25R,0.0870X0.1580*%
%ADD26R,0.0671X0.0237*%
%ADD27R,0.0946X0.0316*%
%ADD28R,0.1025X0.1104*%
%ADD29R,0.0880X0.0340*%
%ADD30OC8,0.0600*%
%ADD31C,0.2080*%
%ADD32OC8,0.0680*%
%ADD33R,0.0434X0.0316*%
%ADD34R,0.1182X0.1576*%
%ADD35R,0.1576X0.1182*%
%ADD36R,0.0390X0.0430*%
%ADD37R,0.0790X0.0710*%
%ADD38C,0.0480*%
%ADD39R,0.0480X0.0480*%
D10*
X006583Y002151D03*
X055393Y002151D03*
X055393Y029731D03*
X006583Y029741D03*
D11*
X009743Y029711D03*
X025463Y029711D03*
X052233Y029731D03*
X052233Y002151D03*
X025463Y002151D03*
X009693Y002131D03*
D12*
X015783Y015351D03*
D13*
X021393Y017488D03*
X021893Y017488D03*
X022393Y017488D03*
X022893Y017488D03*
X022893Y019535D03*
X022393Y019535D03*
X021893Y019535D03*
X021393Y019535D03*
D14*
X016773Y011361D02*
X016773Y010921D01*
X014773Y010921D02*
X014773Y011361D01*
D15*
X020138Y014791D03*
X020807Y014791D03*
X022778Y014871D03*
X023447Y014871D03*
X023467Y015701D03*
X022798Y015701D03*
X020037Y018461D03*
X019368Y018461D03*
X019047Y021731D03*
X018378Y021731D03*
X009697Y017131D03*
X009028Y017131D03*
X009038Y016201D03*
X009707Y016201D03*
X024628Y009861D03*
X025297Y009861D03*
X025067Y008391D03*
X024398Y008391D03*
X021507Y006441D03*
X020838Y006441D03*
X028768Y004901D03*
X029437Y004901D03*
X030728Y005171D03*
X031397Y005171D03*
X031728Y007691D03*
X032397Y007691D03*
X032197Y008681D03*
X031528Y008681D03*
X031707Y011081D03*
X031038Y011081D03*
X030607Y012311D03*
X029938Y012311D03*
X032098Y012321D03*
X032767Y012321D03*
X037568Y011361D03*
X038237Y011361D03*
X040058Y009591D03*
X040727Y009591D03*
X041688Y009591D03*
X042357Y009591D03*
X038707Y007331D03*
X038038Y007331D03*
X051188Y009001D03*
X051857Y009001D03*
X051847Y009881D03*
X051178Y009881D03*
X051178Y010771D03*
X051847Y010771D03*
X051807Y011671D03*
X051138Y011671D03*
X051148Y012571D03*
X051817Y012571D03*
X051797Y013461D03*
X051128Y013461D03*
X051128Y014371D03*
X051797Y014371D03*
X051797Y015271D03*
X051128Y015271D03*
X051128Y016181D03*
X051797Y016181D03*
X051787Y017091D03*
X051118Y017091D03*
X051098Y017981D03*
X051767Y017981D03*
X051757Y018881D03*
X051088Y018881D03*
X051088Y019791D03*
X051757Y019791D03*
X051767Y020671D03*
X051098Y020671D03*
X051138Y021581D03*
X051807Y021581D03*
X051817Y022491D03*
X051148Y022491D03*
X051068Y023381D03*
X051737Y023381D03*
X040567Y023871D03*
X039898Y023871D03*
X039908Y024881D03*
X040577Y024881D03*
X038337Y025791D03*
X037668Y025791D03*
X037778Y022511D03*
X038447Y022511D03*
X038737Y019651D03*
X038068Y019651D03*
X037847Y017831D03*
X037178Y017831D03*
X026707Y026941D03*
X026038Y026941D03*
D16*
X035853Y025796D03*
X035853Y025127D03*
X039303Y025927D03*
X039303Y026596D03*
X045553Y024136D03*
X045553Y023467D03*
X050223Y024327D03*
X050223Y024996D03*
X051313Y025227D03*
X051313Y025896D03*
X025443Y020596D03*
X025443Y019927D03*
X024633Y019776D03*
X024633Y019107D03*
X020153Y019397D03*
X020153Y020066D03*
X018603Y012786D03*
X018603Y012117D03*
X016743Y009946D03*
X016743Y009277D03*
X018773Y008987D03*
X018773Y009656D03*
X014753Y009936D03*
X014753Y009267D03*
X029633Y010147D03*
X029633Y010816D03*
X031723Y010226D03*
X033383Y010377D03*
X033383Y011046D03*
X031723Y009557D03*
X031733Y006786D03*
X031733Y006117D03*
X037243Y005836D03*
X037243Y005167D03*
X038093Y009577D03*
X038093Y010246D03*
X014863Y028087D03*
X014863Y028756D03*
D17*
X024463Y017481D02*
X025023Y017481D01*
X025023Y016481D02*
X024463Y016481D01*
D18*
X023593Y013887D03*
X023593Y013637D03*
X023593Y013387D03*
X023593Y013137D03*
X023593Y012887D03*
X023593Y012637D03*
X023593Y012387D03*
X023593Y012137D03*
X023593Y011887D03*
X023593Y011637D03*
X023593Y011387D03*
X023593Y011137D03*
X023593Y010887D03*
X023593Y010637D03*
X023593Y010386D03*
X023593Y010136D03*
X023593Y009886D03*
X023593Y009636D03*
X023593Y009386D03*
X023593Y009136D03*
X023593Y008886D03*
X023593Y008636D03*
X023593Y008386D03*
X023593Y008136D03*
X023593Y007886D03*
X023593Y007636D03*
X023593Y007386D03*
X023593Y007136D03*
X019892Y007136D03*
X019892Y007386D03*
X019892Y007636D03*
X019892Y007886D03*
X019892Y008136D03*
X019892Y008386D03*
X019892Y008636D03*
X019892Y008886D03*
X019892Y009136D03*
X019892Y009386D03*
X019892Y009636D03*
X019892Y009886D03*
X019892Y010136D03*
X019892Y010386D03*
X019892Y010637D03*
X019892Y010887D03*
X019892Y011137D03*
X019892Y011387D03*
X019892Y011637D03*
X019892Y011887D03*
X019892Y012137D03*
X019892Y012387D03*
X019892Y012637D03*
X019892Y012887D03*
X019892Y013137D03*
X019892Y013387D03*
X019892Y013637D03*
X019892Y013887D03*
D19*
X012594Y027261D03*
X011492Y027261D03*
X049742Y005711D03*
X050844Y005711D03*
D20*
X050813Y004051D03*
X049693Y004051D03*
X012793Y028461D03*
X011673Y028461D03*
D21*
X009037Y024564D03*
X008250Y024564D03*
X008250Y023579D03*
X009037Y023579D03*
D22*
X007183Y021571D03*
X007183Y026571D03*
D23*
X020243Y021691D03*
X022763Y021691D03*
X023983Y026541D03*
X021463Y026541D03*
X031583Y021261D03*
X034103Y021261D03*
X034123Y019031D03*
X031603Y019031D03*
X045183Y025931D03*
X047703Y025931D03*
D24*
X022703Y025021D03*
X022703Y024121D03*
X022703Y023221D03*
D25*
X020223Y024111D03*
D26*
X040465Y013961D03*
X040465Y013705D03*
X040465Y013449D03*
X040465Y013193D03*
X040465Y012937D03*
X040465Y012681D03*
X040465Y012425D03*
X040465Y012169D03*
X040465Y011914D03*
X040465Y011658D03*
X040465Y011402D03*
X040465Y011146D03*
X040465Y010890D03*
X040465Y010634D03*
X042926Y010634D03*
X042926Y010890D03*
X042926Y011146D03*
X042926Y011402D03*
X042926Y011658D03*
X042926Y011914D03*
X042926Y012169D03*
X042926Y012425D03*
X042926Y012681D03*
X042926Y012937D03*
X042926Y013193D03*
X042926Y013449D03*
X042926Y013705D03*
X042926Y013961D03*
X030500Y009165D03*
X030500Y008909D03*
X030500Y008653D03*
X030500Y008397D03*
X030500Y008141D03*
X030500Y007885D03*
X030500Y007629D03*
X030500Y007373D03*
X030500Y007118D03*
X030500Y006862D03*
X030500Y006606D03*
X030500Y006350D03*
X030500Y006094D03*
X030500Y005838D03*
X027646Y005838D03*
X027646Y006094D03*
X027646Y006350D03*
X027646Y006606D03*
X027646Y006862D03*
X027646Y007118D03*
X027646Y007373D03*
X027646Y007629D03*
X027646Y007885D03*
X027646Y008141D03*
X027646Y008397D03*
X027646Y008653D03*
X027646Y008909D03*
X027646Y009165D03*
D27*
X034339Y009241D03*
X034339Y008741D03*
X034329Y007841D03*
X034329Y007341D03*
X034329Y006841D03*
X034329Y006341D03*
X036376Y006341D03*
X036376Y006841D03*
X036376Y007341D03*
X036376Y007841D03*
X036386Y008741D03*
X036386Y009241D03*
X036386Y009741D03*
X036386Y010241D03*
X034339Y010241D03*
X034339Y009741D03*
X046299Y010801D03*
X046299Y011301D03*
X046299Y011801D03*
X046299Y012301D03*
X048346Y012301D03*
X048346Y011801D03*
X048346Y011301D03*
X048346Y010801D03*
X048346Y008271D03*
X048346Y007771D03*
X048346Y007271D03*
X048346Y006771D03*
X046299Y006771D03*
X046299Y007271D03*
X046299Y007771D03*
X046299Y008271D03*
X046419Y015391D03*
X046419Y015891D03*
X046419Y016391D03*
X046419Y016891D03*
X048466Y016891D03*
X048466Y016391D03*
X048466Y015891D03*
X048466Y015391D03*
X048466Y018781D03*
X048466Y019281D03*
X048466Y019781D03*
X048466Y020281D03*
X046419Y020281D03*
X046419Y019781D03*
X046419Y019281D03*
X046419Y018781D03*
X039046Y023411D03*
X039046Y023911D03*
X039046Y024411D03*
X039046Y024911D03*
X036999Y024911D03*
X036999Y024411D03*
X036999Y023911D03*
X036999Y023411D03*
X031956Y023401D03*
X031956Y023901D03*
X031956Y024401D03*
X031956Y024901D03*
X029909Y024901D03*
X029909Y024401D03*
X029909Y023901D03*
X029909Y023401D03*
X029919Y027641D03*
X029919Y028141D03*
X029919Y028641D03*
X029919Y029141D03*
X031966Y029141D03*
X031966Y028641D03*
X031966Y028141D03*
X031966Y027641D03*
X039019Y027571D03*
X039019Y028071D03*
X039019Y028571D03*
X039019Y029071D03*
X041066Y029071D03*
X041066Y028571D03*
X041066Y028071D03*
X041066Y027571D03*
D28*
X042963Y027492D03*
X042963Y030011D03*
X037033Y029541D03*
X033543Y029611D03*
X033543Y027092D03*
X033553Y025651D03*
X037033Y027022D03*
X033553Y023132D03*
X028293Y023442D03*
X028293Y025961D03*
X028303Y027392D03*
X028303Y029911D03*
X029923Y016261D03*
X032083Y016301D03*
X032083Y013782D03*
X029923Y013742D03*
X035603Y005241D03*
X039223Y005301D03*
X039223Y002782D03*
X035603Y002722D03*
D29*
X036273Y013511D03*
X036273Y014011D03*
X036273Y014511D03*
X036273Y015011D03*
X036273Y015511D03*
X036273Y016011D03*
X036273Y016511D03*
X036273Y017011D03*
X038693Y017011D03*
X038693Y016511D03*
X038693Y016011D03*
X038693Y015511D03*
X038693Y015011D03*
X038693Y014511D03*
X038693Y014011D03*
X038693Y013511D03*
D30*
X053623Y013931D03*
X054623Y013481D03*
X055623Y013931D03*
X054623Y014381D03*
X055623Y014831D03*
X054623Y015281D03*
X053623Y014831D03*
X053623Y015731D03*
X054623Y016181D03*
X055623Y015731D03*
X055623Y016631D03*
X054623Y017081D03*
X053623Y016631D03*
X053623Y017531D03*
X053623Y018431D03*
X054623Y017981D03*
X055623Y017531D03*
X055623Y018431D03*
X054623Y018881D03*
X055623Y019331D03*
X054623Y019781D03*
X055623Y020231D03*
X054623Y020681D03*
X053623Y020231D03*
X053623Y019331D03*
X053623Y021131D03*
X054623Y021581D03*
X055623Y021131D03*
X055623Y022031D03*
X054623Y022481D03*
X053623Y022031D03*
X053623Y013031D03*
X053623Y012131D03*
X054623Y011681D03*
X055623Y011231D03*
X054623Y010781D03*
X055623Y010331D03*
X054623Y009881D03*
X053623Y009431D03*
X053623Y010331D03*
X053623Y011231D03*
X055623Y012131D03*
X054623Y012581D03*
X055623Y013031D03*
D31*
X054623Y006717D03*
X054623Y025261D03*
X007193Y019261D03*
X007193Y006141D03*
D32*
X007693Y008921D03*
X006693Y009461D03*
X007693Y010001D03*
X006693Y010541D03*
X007693Y011081D03*
X006693Y011621D03*
X007693Y012161D03*
X006693Y012701D03*
X007693Y013241D03*
X006693Y013781D03*
X007693Y014321D03*
X006693Y014861D03*
X007693Y015401D03*
X006693Y015941D03*
X007693Y016481D03*
D33*
X042400Y025147D03*
X042400Y025521D03*
X042400Y025895D03*
X043306Y025895D03*
X043306Y025147D03*
D34*
X044250Y007771D03*
X041336Y007771D03*
X041376Y004271D03*
X044290Y004271D03*
D35*
X044293Y019655D03*
X041353Y019635D03*
X041353Y022548D03*
X044293Y022568D03*
D36*
X018443Y024021D03*
X017683Y024021D03*
X018063Y023221D03*
D37*
X050223Y025942D03*
X050223Y027061D03*
D38*
X033423Y028681D03*
X029063Y028651D03*
X029233Y026651D03*
X030463Y021301D03*
X021763Y018501D03*
X028903Y016261D03*
X031053Y016251D03*
X029203Y012771D03*
X028703Y012781D03*
X031353Y012301D03*
X033473Y012321D03*
X036823Y011611D03*
X037843Y012131D03*
X038833Y011351D03*
X038823Y010221D03*
X037253Y010251D03*
X037843Y008911D03*
X037283Y007461D03*
X039313Y007331D03*
X037833Y006331D03*
X037983Y005161D03*
X033533Y007861D03*
X033173Y008351D03*
X033173Y009301D03*
X033563Y009801D03*
X032383Y010171D03*
X030993Y010101D03*
X030263Y010101D03*
X029643Y009501D03*
X029413Y008931D03*
X029813Y008371D03*
X027653Y009601D03*
X027643Y010101D03*
X025303Y010501D03*
X025653Y008371D03*
X022643Y008211D03*
X021063Y009111D03*
X020643Y009111D03*
X020943Y009881D03*
X018943Y008441D03*
X024423Y012441D03*
X022643Y012811D03*
X021443Y012811D03*
X024243Y014871D03*
X028563Y006821D03*
X029023Y006831D03*
X029773Y006851D03*
X031123Y006131D03*
X029443Y005701D03*
D39*
X032813Y007091D03*
X035363Y007251D03*
X035283Y009611D03*
X039723Y012261D03*
X041493Y010711D03*
X042103Y010711D03*
X042923Y009981D03*
X044923Y010801D03*
X045463Y011811D03*
X043673Y013621D03*
X042933Y014371D03*
X039653Y014951D03*
X042753Y016541D03*
X044593Y016331D03*
X045473Y016391D03*
X042683Y018801D03*
X045473Y019341D03*
X039803Y021931D03*
X042923Y023601D03*
X041203Y024891D03*
X041303Y025981D03*
X035863Y024391D03*
X033983Y024391D03*
X035823Y026501D03*
X044713Y030751D03*
X050193Y027771D03*
X049393Y025951D03*
X049443Y024371D03*
X051323Y024421D03*
X038203Y018721D03*
X036353Y017821D03*
X035463Y017061D03*
X035463Y016531D03*
X033303Y017071D03*
X033343Y015391D03*
X033383Y014521D03*
X035453Y014521D03*
X036243Y013011D03*
X030273Y011181D03*
X026173Y012391D03*
X025633Y012401D03*
X025743Y010871D03*
X022643Y011771D03*
X020793Y011971D03*
X020733Y012861D03*
X018513Y011551D03*
X019093Y010771D03*
X015603Y009531D03*
X022103Y007791D03*
X022643Y007281D03*
X022163Y006461D03*
X023943Y005401D03*
X022643Y009041D03*
X018013Y012771D03*
X019403Y014801D03*
X019383Y015401D03*
X027703Y015391D03*
X028703Y014451D03*
X029933Y014811D03*
X027713Y017071D03*
X023943Y022231D03*
X017633Y024931D03*
X018433Y026111D03*
X013573Y026991D03*
X013653Y028471D03*
X009993Y023571D03*
X009943Y017831D03*
X024873Y026931D03*
X045463Y008571D03*
X044913Y006541D03*
X041313Y006001D03*
X049513Y003201D03*
M02*
