G75*
G70*
%OFA0B0*%
%FSLAX24Y24*%
%IPPOS*%
%LPD*%
%AMOC8*
5,1,8,0,0,1.08239X$1,22.5*
%
%ADD10C,0.2620*%
%ADD11C,0.1080*%
%ADD12C,0.0520*%
%ADD13C,0.0640*%
%ADD14OC8,0.0654*%
%ADD15C,0.1480*%
%ADD16OC8,0.0600*%
%ADD17C,0.2080*%
%ADD18OC8,0.0680*%
%ADD19C,0.0480*%
%ADD20R,0.0480X0.0480*%
D10*
X006583Y002151D03*
X055393Y002151D03*
X055393Y029731D03*
X006583Y029741D03*
D11*
X009743Y029711D03*
X025463Y029711D03*
X052233Y029731D03*
X052233Y002151D03*
X025463Y002151D03*
X009693Y002131D03*
D12*
X014773Y010921D02*
X014773Y011361D01*
X016773Y011361D02*
X016773Y010921D01*
D13*
X024463Y016481D02*
X025023Y016481D01*
X025023Y017481D02*
X024463Y017481D01*
D14*
X009037Y023579D03*
X008250Y023579D03*
X008250Y024564D03*
X009037Y024564D03*
D15*
X007183Y026571D03*
X007183Y021571D03*
D16*
X053623Y021131D03*
X054623Y020681D03*
X055623Y020231D03*
X054623Y019781D03*
X055623Y019331D03*
X054623Y018881D03*
X055623Y018431D03*
X054623Y017981D03*
X055623Y017531D03*
X054623Y017081D03*
X055623Y016631D03*
X054623Y016181D03*
X055623Y015731D03*
X054623Y015281D03*
X055623Y014831D03*
X054623Y014381D03*
X055623Y013931D03*
X054623Y013481D03*
X055623Y013031D03*
X054623Y012581D03*
X055623Y012131D03*
X054623Y011681D03*
X055623Y011231D03*
X054623Y010781D03*
X055623Y010331D03*
X054623Y009881D03*
X053623Y009431D03*
X053623Y010331D03*
X053623Y011231D03*
X053623Y012131D03*
X053623Y013031D03*
X053623Y013931D03*
X053623Y014831D03*
X053623Y015731D03*
X053623Y016631D03*
X053623Y017531D03*
X053623Y018431D03*
X053623Y019331D03*
X053623Y020231D03*
X055623Y021131D03*
X054623Y021581D03*
X055623Y022031D03*
X054623Y022481D03*
X053623Y022031D03*
D17*
X054623Y025261D03*
X054623Y006717D03*
X007193Y006141D03*
X007193Y019261D03*
D18*
X007693Y016481D03*
X006693Y015941D03*
X007693Y015401D03*
X006693Y014861D03*
X007693Y014321D03*
X006693Y013781D03*
X007693Y013241D03*
X006693Y012701D03*
X007693Y012161D03*
X006693Y011621D03*
X007693Y011081D03*
X006693Y010541D03*
X007693Y010001D03*
X006693Y009461D03*
X007693Y008921D03*
D19*
X018943Y008441D03*
X020643Y009111D03*
X021063Y009111D03*
X020943Y009881D03*
X022643Y008211D03*
X025653Y008371D03*
X027653Y009601D03*
X027643Y010101D03*
X029643Y009501D03*
X029413Y008931D03*
X029813Y008371D03*
X029773Y006851D03*
X029023Y006831D03*
X028563Y006821D03*
X029443Y005701D03*
X031123Y006131D03*
X033533Y007861D03*
X033173Y008351D03*
X033173Y009301D03*
X033563Y009801D03*
X032383Y010171D03*
X030993Y010101D03*
X030263Y010101D03*
X031353Y012301D03*
X029203Y012771D03*
X028703Y012781D03*
X024423Y012441D03*
X022643Y012811D03*
X021443Y012811D03*
X024243Y014871D03*
X028903Y016261D03*
X031053Y016251D03*
X033473Y012321D03*
X036823Y011611D03*
X037843Y012131D03*
X038833Y011351D03*
X038823Y010221D03*
X037253Y010251D03*
X037843Y008911D03*
X037283Y007461D03*
X039313Y007331D03*
X037833Y006331D03*
X037983Y005161D03*
X025303Y010501D03*
X021763Y018501D03*
X030463Y021301D03*
X029233Y026651D03*
X029063Y028651D03*
X033423Y028681D03*
D20*
X035823Y026501D03*
X035863Y024391D03*
X033983Y024391D03*
X039803Y021931D03*
X042923Y023601D03*
X041203Y024891D03*
X041303Y025981D03*
X049393Y025951D03*
X049443Y024371D03*
X051323Y024421D03*
X050193Y027771D03*
X044713Y030751D03*
X024873Y026931D03*
X018433Y026111D03*
X017633Y024931D03*
X013573Y026991D03*
X013653Y028471D03*
X009993Y023571D03*
X009943Y017831D03*
X018013Y012771D03*
X018513Y011551D03*
X019093Y010771D03*
X020793Y011971D03*
X020733Y012861D03*
X022643Y011771D03*
X025633Y012401D03*
X026173Y012391D03*
X025743Y010871D03*
X022643Y009041D03*
X022103Y007791D03*
X022643Y007281D03*
X022163Y006461D03*
X023943Y005401D03*
X015603Y009531D03*
X019403Y014801D03*
X019383Y015401D03*
X027703Y015391D03*
X028703Y014451D03*
X029933Y014811D03*
X033343Y015391D03*
X033383Y014521D03*
X035453Y014521D03*
X036243Y013011D03*
X039723Y012261D03*
X041493Y010711D03*
X042103Y010711D03*
X042923Y009981D03*
X044923Y010801D03*
X045463Y011811D03*
X043673Y013621D03*
X042933Y014371D03*
X039653Y014951D03*
X042753Y016541D03*
X044593Y016331D03*
X045473Y016391D03*
X042683Y018801D03*
X045473Y019341D03*
X038203Y018721D03*
X036353Y017821D03*
X035463Y017061D03*
X035463Y016531D03*
X033303Y017071D03*
X027713Y017071D03*
X023943Y022231D03*
X030273Y011181D03*
X035283Y009611D03*
X035363Y007251D03*
X032813Y007091D03*
X041313Y006001D03*
X044913Y006541D03*
X045463Y008571D03*
X049513Y003201D03*
M02*
