G75*
G70*
%OFA0B0*%
%FSLAX24Y24*%
%IPPOS*%
%LPD*%
%AMOC8*
5,1,8,0,0,1.08239X$1,22.5*
%
%ADD10C,0.0100*%
%ADD11C,0.0000*%
%ADD12C,0.0060*%
%ADD13C,0.0020*%
%ADD14C,0.0040*%
%ADD15C,0.0050*%
%ADD16C,0.0001*%
%ADD17C,0.0010*%
%ADD18C,0.0080*%
%ADD19C,0.0070*%
%ADD20R,0.0300X1.0550*%
%ADD21R,0.0200X1.5450*%
%ADD22R,0.2850X0.0320*%
%ADD23R,0.1850X0.0320*%
%ADD24C,0.0079*%
%ADD25R,0.0492X0.2441*%
%ADD26R,0.2441X0.0492*%
D10*
X004203Y000181D02*
X013903Y000181D01*
X013818Y000153D02*
X057718Y000163D01*
X017983Y011091D02*
X017973Y019551D01*
X013633Y019551D01*
X013613Y011091D01*
X009388Y021749D02*
X003187Y021749D01*
X003187Y026394D01*
X009388Y026394D01*
X009388Y021749D01*
X004203Y031651D02*
X004203Y000181D01*
D11*
X005313Y002151D02*
X005315Y002222D01*
X005321Y002293D01*
X005331Y002364D01*
X005345Y002434D01*
X005363Y002503D01*
X005384Y002570D01*
X005410Y002637D01*
X005439Y002702D01*
X005471Y002765D01*
X005508Y002827D01*
X005547Y002886D01*
X005590Y002943D01*
X005636Y002997D01*
X005685Y003049D01*
X005737Y003098D01*
X005791Y003144D01*
X005848Y003187D01*
X005907Y003226D01*
X005969Y003263D01*
X006032Y003295D01*
X006097Y003324D01*
X006164Y003350D01*
X006231Y003371D01*
X006300Y003389D01*
X006370Y003403D01*
X006441Y003413D01*
X006512Y003419D01*
X006583Y003421D01*
X006654Y003419D01*
X006725Y003413D01*
X006796Y003403D01*
X006866Y003389D01*
X006935Y003371D01*
X007002Y003350D01*
X007069Y003324D01*
X007134Y003295D01*
X007197Y003263D01*
X007259Y003226D01*
X007318Y003187D01*
X007375Y003144D01*
X007429Y003098D01*
X007481Y003049D01*
X007530Y002997D01*
X007576Y002943D01*
X007619Y002886D01*
X007658Y002827D01*
X007695Y002765D01*
X007727Y002702D01*
X007756Y002637D01*
X007782Y002570D01*
X007803Y002503D01*
X007821Y002434D01*
X007835Y002364D01*
X007845Y002293D01*
X007851Y002222D01*
X007853Y002151D01*
X007851Y002080D01*
X007845Y002009D01*
X007835Y001938D01*
X007821Y001868D01*
X007803Y001799D01*
X007782Y001732D01*
X007756Y001665D01*
X007727Y001600D01*
X007695Y001537D01*
X007658Y001475D01*
X007619Y001416D01*
X007576Y001359D01*
X007530Y001305D01*
X007481Y001253D01*
X007429Y001204D01*
X007375Y001158D01*
X007318Y001115D01*
X007259Y001076D01*
X007197Y001039D01*
X007134Y001007D01*
X007069Y000978D01*
X007002Y000952D01*
X006935Y000931D01*
X006866Y000913D01*
X006796Y000899D01*
X006725Y000889D01*
X006654Y000883D01*
X006583Y000881D01*
X006512Y000883D01*
X006441Y000889D01*
X006370Y000899D01*
X006300Y000913D01*
X006231Y000931D01*
X006164Y000952D01*
X006097Y000978D01*
X006032Y001007D01*
X005969Y001039D01*
X005907Y001076D01*
X005848Y001115D01*
X005791Y001158D01*
X005737Y001204D01*
X005685Y001253D01*
X005636Y001305D01*
X005590Y001359D01*
X005547Y001416D01*
X005508Y001475D01*
X005471Y001537D01*
X005439Y001600D01*
X005410Y001665D01*
X005384Y001732D01*
X005363Y001799D01*
X005345Y001868D01*
X005331Y001938D01*
X005321Y002009D01*
X005315Y002080D01*
X005313Y002151D01*
X009193Y002131D02*
X009195Y002175D01*
X009201Y002219D01*
X009211Y002262D01*
X009224Y002304D01*
X009241Y002345D01*
X009262Y002384D01*
X009286Y002421D01*
X009313Y002456D01*
X009343Y002488D01*
X009376Y002518D01*
X009412Y002544D01*
X009449Y002568D01*
X009489Y002587D01*
X009530Y002604D01*
X009573Y002616D01*
X009616Y002625D01*
X009660Y002630D01*
X009704Y002631D01*
X009748Y002628D01*
X009792Y002621D01*
X009835Y002610D01*
X009877Y002596D01*
X009917Y002578D01*
X009956Y002556D01*
X009992Y002532D01*
X010026Y002504D01*
X010058Y002473D01*
X010087Y002439D01*
X010113Y002403D01*
X010135Y002365D01*
X010154Y002325D01*
X010169Y002283D01*
X010181Y002241D01*
X010189Y002197D01*
X010193Y002153D01*
X010193Y002109D01*
X010189Y002065D01*
X010181Y002021D01*
X010169Y001979D01*
X010154Y001937D01*
X010135Y001897D01*
X010113Y001859D01*
X010087Y001823D01*
X010058Y001789D01*
X010026Y001758D01*
X009992Y001730D01*
X009956Y001706D01*
X009917Y001684D01*
X009877Y001666D01*
X009835Y001652D01*
X009792Y001641D01*
X009748Y001634D01*
X009704Y001631D01*
X009660Y001632D01*
X009616Y001637D01*
X009573Y001646D01*
X009530Y001658D01*
X009489Y001675D01*
X009449Y001694D01*
X009412Y001718D01*
X009376Y001744D01*
X009343Y001774D01*
X009313Y001806D01*
X009286Y001841D01*
X009262Y001878D01*
X009241Y001917D01*
X009224Y001958D01*
X009211Y002000D01*
X009201Y002043D01*
X009195Y002087D01*
X009193Y002131D01*
X024963Y002151D02*
X024965Y002195D01*
X024971Y002239D01*
X024981Y002282D01*
X024994Y002324D01*
X025011Y002365D01*
X025032Y002404D01*
X025056Y002441D01*
X025083Y002476D01*
X025113Y002508D01*
X025146Y002538D01*
X025182Y002564D01*
X025219Y002588D01*
X025259Y002607D01*
X025300Y002624D01*
X025343Y002636D01*
X025386Y002645D01*
X025430Y002650D01*
X025474Y002651D01*
X025518Y002648D01*
X025562Y002641D01*
X025605Y002630D01*
X025647Y002616D01*
X025687Y002598D01*
X025726Y002576D01*
X025762Y002552D01*
X025796Y002524D01*
X025828Y002493D01*
X025857Y002459D01*
X025883Y002423D01*
X025905Y002385D01*
X025924Y002345D01*
X025939Y002303D01*
X025951Y002261D01*
X025959Y002217D01*
X025963Y002173D01*
X025963Y002129D01*
X025959Y002085D01*
X025951Y002041D01*
X025939Y001999D01*
X025924Y001957D01*
X025905Y001917D01*
X025883Y001879D01*
X025857Y001843D01*
X025828Y001809D01*
X025796Y001778D01*
X025762Y001750D01*
X025726Y001726D01*
X025687Y001704D01*
X025647Y001686D01*
X025605Y001672D01*
X025562Y001661D01*
X025518Y001654D01*
X025474Y001651D01*
X025430Y001652D01*
X025386Y001657D01*
X025343Y001666D01*
X025300Y001678D01*
X025259Y001695D01*
X025219Y001714D01*
X025182Y001738D01*
X025146Y001764D01*
X025113Y001794D01*
X025083Y001826D01*
X025056Y001861D01*
X025032Y001898D01*
X025011Y001937D01*
X024994Y001978D01*
X024981Y002020D01*
X024971Y002063D01*
X024965Y002107D01*
X024963Y002151D01*
X051733Y002151D02*
X051735Y002195D01*
X051741Y002239D01*
X051751Y002282D01*
X051764Y002324D01*
X051781Y002365D01*
X051802Y002404D01*
X051826Y002441D01*
X051853Y002476D01*
X051883Y002508D01*
X051916Y002538D01*
X051952Y002564D01*
X051989Y002588D01*
X052029Y002607D01*
X052070Y002624D01*
X052113Y002636D01*
X052156Y002645D01*
X052200Y002650D01*
X052244Y002651D01*
X052288Y002648D01*
X052332Y002641D01*
X052375Y002630D01*
X052417Y002616D01*
X052457Y002598D01*
X052496Y002576D01*
X052532Y002552D01*
X052566Y002524D01*
X052598Y002493D01*
X052627Y002459D01*
X052653Y002423D01*
X052675Y002385D01*
X052694Y002345D01*
X052709Y002303D01*
X052721Y002261D01*
X052729Y002217D01*
X052733Y002173D01*
X052733Y002129D01*
X052729Y002085D01*
X052721Y002041D01*
X052709Y001999D01*
X052694Y001957D01*
X052675Y001917D01*
X052653Y001879D01*
X052627Y001843D01*
X052598Y001809D01*
X052566Y001778D01*
X052532Y001750D01*
X052496Y001726D01*
X052457Y001704D01*
X052417Y001686D01*
X052375Y001672D01*
X052332Y001661D01*
X052288Y001654D01*
X052244Y001651D01*
X052200Y001652D01*
X052156Y001657D01*
X052113Y001666D01*
X052070Y001678D01*
X052029Y001695D01*
X051989Y001714D01*
X051952Y001738D01*
X051916Y001764D01*
X051883Y001794D01*
X051853Y001826D01*
X051826Y001861D01*
X051802Y001898D01*
X051781Y001937D01*
X051764Y001978D01*
X051751Y002020D01*
X051741Y002063D01*
X051735Y002107D01*
X051733Y002151D01*
X054123Y002151D02*
X054125Y002222D01*
X054131Y002293D01*
X054141Y002364D01*
X054155Y002434D01*
X054173Y002503D01*
X054194Y002570D01*
X054220Y002637D01*
X054249Y002702D01*
X054281Y002765D01*
X054318Y002827D01*
X054357Y002886D01*
X054400Y002943D01*
X054446Y002997D01*
X054495Y003049D01*
X054547Y003098D01*
X054601Y003144D01*
X054658Y003187D01*
X054717Y003226D01*
X054779Y003263D01*
X054842Y003295D01*
X054907Y003324D01*
X054974Y003350D01*
X055041Y003371D01*
X055110Y003389D01*
X055180Y003403D01*
X055251Y003413D01*
X055322Y003419D01*
X055393Y003421D01*
X055464Y003419D01*
X055535Y003413D01*
X055606Y003403D01*
X055676Y003389D01*
X055745Y003371D01*
X055812Y003350D01*
X055879Y003324D01*
X055944Y003295D01*
X056007Y003263D01*
X056069Y003226D01*
X056128Y003187D01*
X056185Y003144D01*
X056239Y003098D01*
X056291Y003049D01*
X056340Y002997D01*
X056386Y002943D01*
X056429Y002886D01*
X056468Y002827D01*
X056505Y002765D01*
X056537Y002702D01*
X056566Y002637D01*
X056592Y002570D01*
X056613Y002503D01*
X056631Y002434D01*
X056645Y002364D01*
X056655Y002293D01*
X056661Y002222D01*
X056663Y002151D01*
X056661Y002080D01*
X056655Y002009D01*
X056645Y001938D01*
X056631Y001868D01*
X056613Y001799D01*
X056592Y001732D01*
X056566Y001665D01*
X056537Y001600D01*
X056505Y001537D01*
X056468Y001475D01*
X056429Y001416D01*
X056386Y001359D01*
X056340Y001305D01*
X056291Y001253D01*
X056239Y001204D01*
X056185Y001158D01*
X056128Y001115D01*
X056069Y001076D01*
X056007Y001039D01*
X055944Y001007D01*
X055879Y000978D01*
X055812Y000952D01*
X055745Y000931D01*
X055676Y000913D01*
X055606Y000899D01*
X055535Y000889D01*
X055464Y000883D01*
X055393Y000881D01*
X055322Y000883D01*
X055251Y000889D01*
X055180Y000899D01*
X055110Y000913D01*
X055041Y000931D01*
X054974Y000952D01*
X054907Y000978D01*
X054842Y001007D01*
X054779Y001039D01*
X054717Y001076D01*
X054658Y001115D01*
X054601Y001158D01*
X054547Y001204D01*
X054495Y001253D01*
X054446Y001305D01*
X054400Y001359D01*
X054357Y001416D01*
X054318Y001475D01*
X054281Y001537D01*
X054249Y001600D01*
X054220Y001665D01*
X054194Y001732D01*
X054173Y001799D01*
X054155Y001868D01*
X054141Y001938D01*
X054131Y002009D01*
X054125Y002080D01*
X054123Y002151D01*
X057718Y000163D02*
X057708Y031669D01*
X004208Y031669D01*
X005313Y029741D02*
X005315Y029812D01*
X005321Y029883D01*
X005331Y029954D01*
X005345Y030024D01*
X005363Y030093D01*
X005384Y030160D01*
X005410Y030227D01*
X005439Y030292D01*
X005471Y030355D01*
X005508Y030417D01*
X005547Y030476D01*
X005590Y030533D01*
X005636Y030587D01*
X005685Y030639D01*
X005737Y030688D01*
X005791Y030734D01*
X005848Y030777D01*
X005907Y030816D01*
X005969Y030853D01*
X006032Y030885D01*
X006097Y030914D01*
X006164Y030940D01*
X006231Y030961D01*
X006300Y030979D01*
X006370Y030993D01*
X006441Y031003D01*
X006512Y031009D01*
X006583Y031011D01*
X006654Y031009D01*
X006725Y031003D01*
X006796Y030993D01*
X006866Y030979D01*
X006935Y030961D01*
X007002Y030940D01*
X007069Y030914D01*
X007134Y030885D01*
X007197Y030853D01*
X007259Y030816D01*
X007318Y030777D01*
X007375Y030734D01*
X007429Y030688D01*
X007481Y030639D01*
X007530Y030587D01*
X007576Y030533D01*
X007619Y030476D01*
X007658Y030417D01*
X007695Y030355D01*
X007727Y030292D01*
X007756Y030227D01*
X007782Y030160D01*
X007803Y030093D01*
X007821Y030024D01*
X007835Y029954D01*
X007845Y029883D01*
X007851Y029812D01*
X007853Y029741D01*
X007851Y029670D01*
X007845Y029599D01*
X007835Y029528D01*
X007821Y029458D01*
X007803Y029389D01*
X007782Y029322D01*
X007756Y029255D01*
X007727Y029190D01*
X007695Y029127D01*
X007658Y029065D01*
X007619Y029006D01*
X007576Y028949D01*
X007530Y028895D01*
X007481Y028843D01*
X007429Y028794D01*
X007375Y028748D01*
X007318Y028705D01*
X007259Y028666D01*
X007197Y028629D01*
X007134Y028597D01*
X007069Y028568D01*
X007002Y028542D01*
X006935Y028521D01*
X006866Y028503D01*
X006796Y028489D01*
X006725Y028479D01*
X006654Y028473D01*
X006583Y028471D01*
X006512Y028473D01*
X006441Y028479D01*
X006370Y028489D01*
X006300Y028503D01*
X006231Y028521D01*
X006164Y028542D01*
X006097Y028568D01*
X006032Y028597D01*
X005969Y028629D01*
X005907Y028666D01*
X005848Y028705D01*
X005791Y028748D01*
X005737Y028794D01*
X005685Y028843D01*
X005636Y028895D01*
X005590Y028949D01*
X005547Y029006D01*
X005508Y029065D01*
X005471Y029127D01*
X005439Y029190D01*
X005410Y029255D01*
X005384Y029322D01*
X005363Y029389D01*
X005345Y029458D01*
X005331Y029528D01*
X005321Y029599D01*
X005315Y029670D01*
X005313Y029741D01*
X009243Y029711D02*
X009245Y029755D01*
X009251Y029799D01*
X009261Y029842D01*
X009274Y029884D01*
X009291Y029925D01*
X009312Y029964D01*
X009336Y030001D01*
X009363Y030036D01*
X009393Y030068D01*
X009426Y030098D01*
X009462Y030124D01*
X009499Y030148D01*
X009539Y030167D01*
X009580Y030184D01*
X009623Y030196D01*
X009666Y030205D01*
X009710Y030210D01*
X009754Y030211D01*
X009798Y030208D01*
X009842Y030201D01*
X009885Y030190D01*
X009927Y030176D01*
X009967Y030158D01*
X010006Y030136D01*
X010042Y030112D01*
X010076Y030084D01*
X010108Y030053D01*
X010137Y030019D01*
X010163Y029983D01*
X010185Y029945D01*
X010204Y029905D01*
X010219Y029863D01*
X010231Y029821D01*
X010239Y029777D01*
X010243Y029733D01*
X010243Y029689D01*
X010239Y029645D01*
X010231Y029601D01*
X010219Y029559D01*
X010204Y029517D01*
X010185Y029477D01*
X010163Y029439D01*
X010137Y029403D01*
X010108Y029369D01*
X010076Y029338D01*
X010042Y029310D01*
X010006Y029286D01*
X009967Y029264D01*
X009927Y029246D01*
X009885Y029232D01*
X009842Y029221D01*
X009798Y029214D01*
X009754Y029211D01*
X009710Y029212D01*
X009666Y029217D01*
X009623Y029226D01*
X009580Y029238D01*
X009539Y029255D01*
X009499Y029274D01*
X009462Y029298D01*
X009426Y029324D01*
X009393Y029354D01*
X009363Y029386D01*
X009336Y029421D01*
X009312Y029458D01*
X009291Y029497D01*
X009274Y029538D01*
X009261Y029580D01*
X009251Y029623D01*
X009245Y029667D01*
X009243Y029711D01*
X024963Y029711D02*
X024965Y029755D01*
X024971Y029799D01*
X024981Y029842D01*
X024994Y029884D01*
X025011Y029925D01*
X025032Y029964D01*
X025056Y030001D01*
X025083Y030036D01*
X025113Y030068D01*
X025146Y030098D01*
X025182Y030124D01*
X025219Y030148D01*
X025259Y030167D01*
X025300Y030184D01*
X025343Y030196D01*
X025386Y030205D01*
X025430Y030210D01*
X025474Y030211D01*
X025518Y030208D01*
X025562Y030201D01*
X025605Y030190D01*
X025647Y030176D01*
X025687Y030158D01*
X025726Y030136D01*
X025762Y030112D01*
X025796Y030084D01*
X025828Y030053D01*
X025857Y030019D01*
X025883Y029983D01*
X025905Y029945D01*
X025924Y029905D01*
X025939Y029863D01*
X025951Y029821D01*
X025959Y029777D01*
X025963Y029733D01*
X025963Y029689D01*
X025959Y029645D01*
X025951Y029601D01*
X025939Y029559D01*
X025924Y029517D01*
X025905Y029477D01*
X025883Y029439D01*
X025857Y029403D01*
X025828Y029369D01*
X025796Y029338D01*
X025762Y029310D01*
X025726Y029286D01*
X025687Y029264D01*
X025647Y029246D01*
X025605Y029232D01*
X025562Y029221D01*
X025518Y029214D01*
X025474Y029211D01*
X025430Y029212D01*
X025386Y029217D01*
X025343Y029226D01*
X025300Y029238D01*
X025259Y029255D01*
X025219Y029274D01*
X025182Y029298D01*
X025146Y029324D01*
X025113Y029354D01*
X025083Y029386D01*
X025056Y029421D01*
X025032Y029458D01*
X025011Y029497D01*
X024994Y029538D01*
X024981Y029580D01*
X024971Y029623D01*
X024965Y029667D01*
X024963Y029711D01*
X051733Y029731D02*
X051735Y029775D01*
X051741Y029819D01*
X051751Y029862D01*
X051764Y029904D01*
X051781Y029945D01*
X051802Y029984D01*
X051826Y030021D01*
X051853Y030056D01*
X051883Y030088D01*
X051916Y030118D01*
X051952Y030144D01*
X051989Y030168D01*
X052029Y030187D01*
X052070Y030204D01*
X052113Y030216D01*
X052156Y030225D01*
X052200Y030230D01*
X052244Y030231D01*
X052288Y030228D01*
X052332Y030221D01*
X052375Y030210D01*
X052417Y030196D01*
X052457Y030178D01*
X052496Y030156D01*
X052532Y030132D01*
X052566Y030104D01*
X052598Y030073D01*
X052627Y030039D01*
X052653Y030003D01*
X052675Y029965D01*
X052694Y029925D01*
X052709Y029883D01*
X052721Y029841D01*
X052729Y029797D01*
X052733Y029753D01*
X052733Y029709D01*
X052729Y029665D01*
X052721Y029621D01*
X052709Y029579D01*
X052694Y029537D01*
X052675Y029497D01*
X052653Y029459D01*
X052627Y029423D01*
X052598Y029389D01*
X052566Y029358D01*
X052532Y029330D01*
X052496Y029306D01*
X052457Y029284D01*
X052417Y029266D01*
X052375Y029252D01*
X052332Y029241D01*
X052288Y029234D01*
X052244Y029231D01*
X052200Y029232D01*
X052156Y029237D01*
X052113Y029246D01*
X052070Y029258D01*
X052029Y029275D01*
X051989Y029294D01*
X051952Y029318D01*
X051916Y029344D01*
X051883Y029374D01*
X051853Y029406D01*
X051826Y029441D01*
X051802Y029478D01*
X051781Y029517D01*
X051764Y029558D01*
X051751Y029600D01*
X051741Y029643D01*
X051735Y029687D01*
X051733Y029731D01*
X054123Y029731D02*
X054125Y029802D01*
X054131Y029873D01*
X054141Y029944D01*
X054155Y030014D01*
X054173Y030083D01*
X054194Y030150D01*
X054220Y030217D01*
X054249Y030282D01*
X054281Y030345D01*
X054318Y030407D01*
X054357Y030466D01*
X054400Y030523D01*
X054446Y030577D01*
X054495Y030629D01*
X054547Y030678D01*
X054601Y030724D01*
X054658Y030767D01*
X054717Y030806D01*
X054779Y030843D01*
X054842Y030875D01*
X054907Y030904D01*
X054974Y030930D01*
X055041Y030951D01*
X055110Y030969D01*
X055180Y030983D01*
X055251Y030993D01*
X055322Y030999D01*
X055393Y031001D01*
X055464Y030999D01*
X055535Y030993D01*
X055606Y030983D01*
X055676Y030969D01*
X055745Y030951D01*
X055812Y030930D01*
X055879Y030904D01*
X055944Y030875D01*
X056007Y030843D01*
X056069Y030806D01*
X056128Y030767D01*
X056185Y030724D01*
X056239Y030678D01*
X056291Y030629D01*
X056340Y030577D01*
X056386Y030523D01*
X056429Y030466D01*
X056468Y030407D01*
X056505Y030345D01*
X056537Y030282D01*
X056566Y030217D01*
X056592Y030150D01*
X056613Y030083D01*
X056631Y030014D01*
X056645Y029944D01*
X056655Y029873D01*
X056661Y029802D01*
X056663Y029731D01*
X056661Y029660D01*
X056655Y029589D01*
X056645Y029518D01*
X056631Y029448D01*
X056613Y029379D01*
X056592Y029312D01*
X056566Y029245D01*
X056537Y029180D01*
X056505Y029117D01*
X056468Y029055D01*
X056429Y028996D01*
X056386Y028939D01*
X056340Y028885D01*
X056291Y028833D01*
X056239Y028784D01*
X056185Y028738D01*
X056128Y028695D01*
X056069Y028656D01*
X056007Y028619D01*
X055944Y028587D01*
X055879Y028558D01*
X055812Y028532D01*
X055745Y028511D01*
X055676Y028493D01*
X055606Y028479D01*
X055535Y028469D01*
X055464Y028463D01*
X055393Y028461D01*
X055322Y028463D01*
X055251Y028469D01*
X055180Y028479D01*
X055110Y028493D01*
X055041Y028511D01*
X054974Y028532D01*
X054907Y028558D01*
X054842Y028587D01*
X054779Y028619D01*
X054717Y028656D01*
X054658Y028695D01*
X054601Y028738D01*
X054547Y028784D01*
X054495Y028833D01*
X054446Y028885D01*
X054400Y028939D01*
X054357Y028996D01*
X054318Y029055D01*
X054281Y029117D01*
X054249Y029180D01*
X054220Y029245D01*
X054194Y029312D01*
X054173Y029379D01*
X054155Y029448D01*
X054141Y029518D01*
X054131Y029589D01*
X054125Y029660D01*
X054123Y029731D01*
D12*
X052873Y026461D02*
X057573Y026461D01*
X057573Y024461D01*
X057623Y024461D01*
X057623Y024111D01*
X052823Y024111D01*
X052623Y024311D01*
X052623Y026211D01*
X052873Y026461D01*
X053973Y025261D02*
X053975Y025311D01*
X053981Y025361D01*
X053991Y025411D01*
X054004Y025459D01*
X054021Y025507D01*
X054042Y025553D01*
X054066Y025597D01*
X054094Y025639D01*
X054125Y025679D01*
X054159Y025716D01*
X054196Y025751D01*
X054235Y025782D01*
X054276Y025811D01*
X054320Y025836D01*
X054366Y025858D01*
X054413Y025876D01*
X054461Y025890D01*
X054510Y025901D01*
X054560Y025908D01*
X054610Y025911D01*
X054661Y025910D01*
X054711Y025905D01*
X054761Y025896D01*
X054809Y025884D01*
X054857Y025867D01*
X054903Y025847D01*
X054948Y025824D01*
X054991Y025797D01*
X055031Y025767D01*
X055069Y025734D01*
X055104Y025698D01*
X055137Y025659D01*
X055166Y025618D01*
X055192Y025575D01*
X055215Y025530D01*
X055234Y025483D01*
X055249Y025435D01*
X055261Y025386D01*
X055269Y025336D01*
X055273Y025286D01*
X055273Y025236D01*
X055269Y025186D01*
X055261Y025136D01*
X055249Y025087D01*
X055234Y025039D01*
X055215Y024992D01*
X055192Y024947D01*
X055166Y024904D01*
X055137Y024863D01*
X055104Y024824D01*
X055069Y024788D01*
X055031Y024755D01*
X054991Y024725D01*
X054948Y024698D01*
X054903Y024675D01*
X054857Y024655D01*
X054809Y024638D01*
X054761Y024626D01*
X054711Y024617D01*
X054661Y024612D01*
X054610Y024611D01*
X054560Y024614D01*
X054510Y024621D01*
X054461Y024632D01*
X054413Y024646D01*
X054366Y024664D01*
X054320Y024686D01*
X054276Y024711D01*
X054235Y024740D01*
X054196Y024771D01*
X054159Y024806D01*
X054125Y024843D01*
X054094Y024883D01*
X054066Y024925D01*
X054042Y024969D01*
X054021Y025015D01*
X054004Y025063D01*
X053991Y025111D01*
X053981Y025161D01*
X053975Y025211D01*
X053973Y025261D01*
X057323Y024011D02*
X057323Y007967D01*
X057623Y007967D01*
X057623Y007867D01*
X052823Y007867D01*
X052623Y007667D01*
X052623Y005717D01*
X052823Y005517D01*
X057573Y005517D01*
X057573Y007517D01*
X057623Y007517D01*
X057623Y005517D01*
X057573Y005517D01*
X057623Y005517D02*
X058823Y005517D01*
X058823Y006517D01*
X058723Y006517D01*
X058723Y007517D01*
X058823Y007517D01*
X058823Y007567D01*
X057873Y007567D01*
X057843Y007569D01*
X057813Y007574D01*
X057784Y007583D01*
X057757Y007596D01*
X057731Y007611D01*
X057707Y007630D01*
X057686Y007651D01*
X057667Y007675D01*
X057652Y007701D01*
X057639Y007728D01*
X057630Y007757D01*
X057625Y007787D01*
X057623Y007817D01*
X057623Y007867D02*
X057623Y007517D01*
X057623Y007967D02*
X057623Y024011D01*
X057323Y024011D01*
X057623Y024011D02*
X057623Y024111D01*
X057623Y024161D02*
X057625Y024191D01*
X057630Y024221D01*
X057639Y024250D01*
X057652Y024277D01*
X057667Y024303D01*
X057686Y024327D01*
X057707Y024348D01*
X057731Y024367D01*
X057757Y024382D01*
X057784Y024395D01*
X057813Y024404D01*
X057843Y024409D01*
X057873Y024411D01*
X058823Y024411D01*
X058823Y007567D01*
X058823Y007517D02*
X059023Y007517D01*
X059023Y006517D01*
X059023Y005517D01*
X058823Y005517D01*
X059023Y005517D02*
X059223Y005517D01*
X059223Y026461D01*
X059023Y026461D01*
X059023Y025461D01*
X058823Y025461D01*
X058723Y025461D01*
X058723Y024461D01*
X058823Y024461D01*
X058823Y024411D01*
X058823Y024461D02*
X059023Y024461D01*
X059023Y007517D01*
X059223Y008167D02*
X059225Y008197D01*
X059230Y008227D01*
X059239Y008256D01*
X059252Y008283D01*
X059267Y008309D01*
X059286Y008333D01*
X059307Y008354D01*
X059331Y008373D01*
X059357Y008388D01*
X059384Y008401D01*
X059413Y008410D01*
X059443Y008415D01*
X059473Y008417D01*
X061473Y008417D01*
X061499Y008419D01*
X061525Y008424D01*
X061550Y008432D01*
X061573Y008444D01*
X061595Y008458D01*
X061614Y008476D01*
X061632Y008495D01*
X061646Y008517D01*
X061658Y008540D01*
X061666Y008565D01*
X061671Y008591D01*
X061673Y008617D01*
X061673Y023361D01*
X061671Y023387D01*
X061666Y023413D01*
X061658Y023438D01*
X061646Y023461D01*
X061632Y023483D01*
X061614Y023502D01*
X061595Y023520D01*
X061573Y023534D01*
X061550Y023546D01*
X061525Y023554D01*
X061499Y023559D01*
X061473Y023561D01*
X059473Y023561D01*
X059443Y023563D01*
X059413Y023568D01*
X059384Y023577D01*
X059357Y023590D01*
X059331Y023605D01*
X059307Y023624D01*
X059286Y023645D01*
X059267Y023669D01*
X059252Y023695D01*
X059239Y023722D01*
X059230Y023751D01*
X059225Y023781D01*
X059223Y023811D01*
X059023Y024461D02*
X059023Y025461D01*
X058823Y025461D02*
X058823Y026461D01*
X059023Y026461D01*
X058823Y026461D02*
X057623Y026461D01*
X057573Y026461D01*
X057623Y026461D02*
X057623Y024461D01*
X049236Y018992D02*
X049236Y018351D01*
X049023Y018351D02*
X049450Y018351D01*
X049023Y018778D02*
X049236Y018992D01*
X049236Y015632D02*
X049236Y014991D01*
X049023Y014991D02*
X049450Y014991D01*
X049023Y015418D02*
X049236Y015632D01*
X049166Y011052D02*
X049166Y010411D01*
X048953Y010411D02*
X049380Y010411D01*
X048953Y010838D02*
X049166Y011052D01*
X043800Y010281D02*
X043373Y010281D01*
X043586Y010281D02*
X043586Y010922D01*
X043373Y010708D01*
X038253Y013411D02*
X038253Y017111D01*
X038251Y017134D01*
X038246Y017157D01*
X038237Y017179D01*
X038224Y017199D01*
X038209Y017217D01*
X038191Y017232D01*
X038171Y017245D01*
X038149Y017254D01*
X038126Y017259D01*
X038103Y017261D01*
X036863Y017261D01*
X036840Y017259D01*
X036817Y017254D01*
X036795Y017245D01*
X036775Y017232D01*
X036757Y017217D01*
X036742Y017199D01*
X036729Y017179D01*
X036720Y017157D01*
X036715Y017134D01*
X036713Y017111D01*
X036713Y013411D01*
X036715Y013388D01*
X036720Y013365D01*
X036729Y013343D01*
X036742Y013323D01*
X036757Y013305D01*
X036775Y013290D01*
X036795Y013277D01*
X036817Y013268D01*
X036840Y013263D01*
X036863Y013261D01*
X038103Y013261D01*
X038126Y013263D01*
X038149Y013268D01*
X038171Y013277D01*
X038191Y013290D01*
X038209Y013305D01*
X038224Y013323D01*
X038237Y013343D01*
X038246Y013365D01*
X038251Y013388D01*
X038253Y013411D01*
X036250Y016731D02*
X035823Y016731D01*
X036036Y016731D02*
X036036Y017372D01*
X035823Y017158D01*
X037283Y017261D02*
X037285Y017234D01*
X037290Y017207D01*
X037300Y017181D01*
X037312Y017157D01*
X037328Y017135D01*
X037346Y017115D01*
X037368Y017098D01*
X037391Y017083D01*
X037416Y017073D01*
X037442Y017065D01*
X037469Y017061D01*
X037497Y017061D01*
X037524Y017065D01*
X037550Y017073D01*
X037575Y017083D01*
X037598Y017098D01*
X037620Y017115D01*
X037638Y017135D01*
X037654Y017157D01*
X037666Y017181D01*
X037676Y017207D01*
X037681Y017234D01*
X037683Y017261D01*
X031480Y023221D02*
X031053Y023221D01*
X031266Y023221D02*
X031266Y023862D01*
X031053Y023648D01*
X038183Y023838D02*
X038396Y024052D01*
X038396Y023411D01*
X038183Y023411D02*
X038610Y023411D01*
X042545Y024962D02*
X043160Y024962D01*
X043160Y026082D02*
X042545Y026082D01*
X040640Y027481D02*
X040213Y027481D01*
X040426Y027481D02*
X040426Y028122D01*
X040213Y027908D01*
X031480Y027511D02*
X031053Y027511D01*
X031266Y027511D02*
X031266Y028152D01*
X031053Y027938D01*
X022144Y025341D02*
X022144Y022881D01*
X020781Y022881D01*
X020781Y025341D01*
X022144Y025341D01*
X018633Y023771D02*
X018633Y023471D01*
X017493Y023471D01*
X017493Y023771D01*
X018633Y023771D01*
X016781Y020292D02*
X016781Y019651D01*
X017208Y019651D01*
X016563Y019651D02*
X016563Y020078D01*
X016350Y020292D01*
X016136Y020078D01*
X016136Y019651D01*
X016136Y019972D02*
X016563Y019972D01*
X015919Y020292D02*
X015492Y020292D01*
X015705Y020292D02*
X015705Y019651D01*
X015274Y019972D02*
X014847Y019972D01*
X014630Y020292D02*
X014203Y019651D01*
X014630Y019651D02*
X014203Y020292D01*
X008443Y020201D02*
X008443Y018251D01*
X008243Y018051D01*
X004193Y018051D01*
X004193Y018401D01*
X004193Y020401D01*
X004243Y020401D01*
X008243Y020401D01*
X008443Y020201D01*
X006543Y019261D02*
X006545Y019311D01*
X006551Y019361D01*
X006561Y019411D01*
X006574Y019459D01*
X006591Y019507D01*
X006612Y019553D01*
X006636Y019597D01*
X006664Y019639D01*
X006695Y019679D01*
X006729Y019716D01*
X006766Y019751D01*
X006805Y019782D01*
X006846Y019811D01*
X006890Y019836D01*
X006936Y019858D01*
X006983Y019876D01*
X007031Y019890D01*
X007080Y019901D01*
X007130Y019908D01*
X007180Y019911D01*
X007231Y019910D01*
X007281Y019905D01*
X007331Y019896D01*
X007379Y019884D01*
X007427Y019867D01*
X007473Y019847D01*
X007518Y019824D01*
X007561Y019797D01*
X007601Y019767D01*
X007639Y019734D01*
X007674Y019698D01*
X007707Y019659D01*
X007736Y019618D01*
X007762Y019575D01*
X007785Y019530D01*
X007804Y019483D01*
X007819Y019435D01*
X007831Y019386D01*
X007839Y019336D01*
X007843Y019286D01*
X007843Y019236D01*
X007839Y019186D01*
X007831Y019136D01*
X007819Y019087D01*
X007804Y019039D01*
X007785Y018992D01*
X007762Y018947D01*
X007736Y018904D01*
X007707Y018863D01*
X007674Y018824D01*
X007639Y018788D01*
X007601Y018755D01*
X007561Y018725D01*
X007518Y018698D01*
X007473Y018675D01*
X007427Y018655D01*
X007379Y018638D01*
X007331Y018626D01*
X007281Y018617D01*
X007231Y018612D01*
X007180Y018611D01*
X007130Y018614D01*
X007080Y018621D01*
X007031Y018632D01*
X006983Y018646D01*
X006936Y018664D01*
X006890Y018686D01*
X006846Y018711D01*
X006805Y018740D01*
X006766Y018771D01*
X006729Y018806D01*
X006695Y018843D01*
X006664Y018883D01*
X006636Y018925D01*
X006612Y018969D01*
X006591Y019015D01*
X006574Y019063D01*
X006561Y019111D01*
X006551Y019161D01*
X006545Y019211D01*
X006543Y019261D01*
X004493Y017951D02*
X004193Y017951D01*
X004193Y018051D01*
X004193Y017951D02*
X004193Y007401D01*
X004493Y007401D01*
X004493Y017951D01*
X004193Y018101D02*
X004191Y018131D01*
X004186Y018161D01*
X004177Y018190D01*
X004164Y018217D01*
X004149Y018243D01*
X004130Y018267D01*
X004109Y018288D01*
X004085Y018307D01*
X004059Y018322D01*
X004032Y018335D01*
X004003Y018344D01*
X003973Y018349D01*
X003943Y018351D01*
X002993Y018351D01*
X002993Y018401D01*
X002793Y018401D01*
X002793Y019401D01*
X002793Y020401D01*
X002993Y020401D01*
X004193Y020401D01*
X002793Y020401D02*
X002593Y020401D01*
X002593Y017351D01*
X002593Y008001D01*
X002593Y004951D01*
X002793Y004951D01*
X002793Y005951D01*
X002793Y006951D01*
X002793Y018401D01*
X002593Y017751D02*
X002591Y017721D01*
X002586Y017691D01*
X002577Y017662D01*
X002564Y017635D01*
X002549Y017609D01*
X002530Y017585D01*
X002509Y017564D01*
X002485Y017545D01*
X002459Y017530D01*
X002432Y017517D01*
X002403Y017508D01*
X002373Y017503D01*
X002343Y017501D01*
X000343Y017501D01*
X000317Y017499D01*
X000291Y017494D01*
X000266Y017486D01*
X000243Y017474D01*
X000221Y017460D01*
X000202Y017442D01*
X000184Y017423D01*
X000170Y017401D01*
X000158Y017378D01*
X000150Y017353D01*
X000145Y017327D01*
X000143Y017301D01*
X000143Y017201D01*
X000143Y008151D01*
X000143Y008051D01*
X000145Y008025D01*
X000150Y007999D01*
X000158Y007974D01*
X000170Y007951D01*
X000184Y007929D01*
X000202Y007910D01*
X000221Y007892D01*
X000243Y007878D01*
X000266Y007866D01*
X000291Y007858D01*
X000317Y007853D01*
X000343Y007851D01*
X002343Y007851D01*
X002373Y007849D01*
X002403Y007844D01*
X002432Y007835D01*
X002459Y007822D01*
X002485Y007807D01*
X002509Y007788D01*
X002530Y007767D01*
X002549Y007743D01*
X002564Y007717D01*
X002577Y007690D01*
X002586Y007661D01*
X002591Y007631D01*
X002593Y007601D01*
X002793Y006951D02*
X002993Y006951D01*
X002993Y007001D01*
X003943Y007001D01*
X003973Y007003D01*
X004003Y007008D01*
X004032Y007017D01*
X004059Y007030D01*
X004085Y007045D01*
X004109Y007064D01*
X004130Y007085D01*
X004149Y007109D01*
X004164Y007135D01*
X004177Y007162D01*
X004186Y007191D01*
X004191Y007221D01*
X004193Y007251D01*
X004193Y007301D02*
X008243Y007301D01*
X008443Y007101D01*
X008443Y005201D01*
X008193Y004951D01*
X004243Y004951D01*
X004193Y004951D01*
X002993Y004951D01*
X002793Y004951D01*
X004193Y004951D02*
X004193Y006951D01*
X004193Y007301D01*
X004193Y007401D01*
X006543Y006141D02*
X006545Y006191D01*
X006551Y006241D01*
X006561Y006291D01*
X006574Y006339D01*
X006591Y006387D01*
X006612Y006433D01*
X006636Y006477D01*
X006664Y006519D01*
X006695Y006559D01*
X006729Y006596D01*
X006766Y006631D01*
X006805Y006662D01*
X006846Y006691D01*
X006890Y006716D01*
X006936Y006738D01*
X006983Y006756D01*
X007031Y006770D01*
X007080Y006781D01*
X007130Y006788D01*
X007180Y006791D01*
X007231Y006790D01*
X007281Y006785D01*
X007331Y006776D01*
X007379Y006764D01*
X007427Y006747D01*
X007473Y006727D01*
X007518Y006704D01*
X007561Y006677D01*
X007601Y006647D01*
X007639Y006614D01*
X007674Y006578D01*
X007707Y006539D01*
X007736Y006498D01*
X007762Y006455D01*
X007785Y006410D01*
X007804Y006363D01*
X007819Y006315D01*
X007831Y006266D01*
X007839Y006216D01*
X007843Y006166D01*
X007843Y006116D01*
X007839Y006066D01*
X007831Y006016D01*
X007819Y005967D01*
X007804Y005919D01*
X007785Y005872D01*
X007762Y005827D01*
X007736Y005784D01*
X007707Y005743D01*
X007674Y005704D01*
X007639Y005668D01*
X007601Y005635D01*
X007561Y005605D01*
X007518Y005578D01*
X007473Y005555D01*
X007427Y005535D01*
X007379Y005518D01*
X007331Y005506D01*
X007281Y005497D01*
X007231Y005492D01*
X007180Y005491D01*
X007130Y005494D01*
X007080Y005501D01*
X007031Y005512D01*
X006983Y005526D01*
X006936Y005544D01*
X006890Y005566D01*
X006846Y005591D01*
X006805Y005620D01*
X006766Y005651D01*
X006729Y005686D01*
X006695Y005723D01*
X006664Y005763D01*
X006636Y005805D01*
X006612Y005849D01*
X006591Y005895D01*
X006574Y005943D01*
X006561Y005991D01*
X006551Y006041D01*
X006545Y006091D01*
X006543Y006141D01*
X014423Y010241D02*
X017123Y010241D01*
X017182Y010243D01*
X017240Y010249D01*
X017299Y010258D01*
X017356Y010272D01*
X017412Y010289D01*
X017467Y010310D01*
X017521Y010334D01*
X017573Y010362D01*
X017623Y010393D01*
X017671Y010427D01*
X017716Y010464D01*
X017759Y010505D01*
X017800Y010548D01*
X017837Y010593D01*
X017871Y010641D01*
X017902Y010691D01*
X017930Y010743D01*
X017954Y010797D01*
X017975Y010852D01*
X017992Y010908D01*
X018006Y010965D01*
X018015Y011024D01*
X018021Y011082D01*
X018023Y011141D01*
X018021Y011200D01*
X018015Y011258D01*
X018006Y011317D01*
X017992Y011374D01*
X017975Y011430D01*
X017954Y011485D01*
X017930Y011539D01*
X017902Y011591D01*
X017871Y011641D01*
X017837Y011689D01*
X017800Y011734D01*
X017759Y011777D01*
X017716Y011818D01*
X017671Y011855D01*
X017623Y011889D01*
X017573Y011920D01*
X017521Y011948D01*
X017467Y011972D01*
X017412Y011993D01*
X017356Y012010D01*
X017299Y012024D01*
X017240Y012033D01*
X017182Y012039D01*
X017123Y012041D01*
X014423Y012041D01*
X014364Y012039D01*
X014306Y012033D01*
X014247Y012024D01*
X014190Y012010D01*
X014134Y011993D01*
X014079Y011972D01*
X014025Y011948D01*
X013973Y011920D01*
X013923Y011889D01*
X013875Y011855D01*
X013830Y011818D01*
X013787Y011777D01*
X013746Y011734D01*
X013709Y011689D01*
X013675Y011641D01*
X013644Y011591D01*
X013616Y011539D01*
X013592Y011485D01*
X013571Y011430D01*
X013554Y011374D01*
X013540Y011317D01*
X013531Y011258D01*
X013525Y011200D01*
X013523Y011141D01*
X013525Y011082D01*
X013531Y011024D01*
X013540Y010965D01*
X013554Y010908D01*
X013571Y010852D01*
X013592Y010797D01*
X013616Y010743D01*
X013644Y010691D01*
X013675Y010641D01*
X013709Y010593D01*
X013746Y010548D01*
X013787Y010505D01*
X013830Y010464D01*
X013875Y010427D01*
X013923Y010393D01*
X013973Y010362D01*
X014025Y010334D01*
X014079Y010310D01*
X014134Y010289D01*
X014190Y010272D01*
X014247Y010258D01*
X014306Y010249D01*
X014364Y010243D01*
X014423Y010241D01*
X018853Y013471D02*
X019280Y013471D01*
X019066Y013471D02*
X019066Y014112D01*
X018853Y013898D01*
X024243Y016081D02*
X024243Y016881D01*
X024343Y016981D01*
X024243Y017081D01*
X024243Y017881D01*
X024343Y017981D01*
X025143Y017981D01*
X025243Y017881D01*
X025243Y017081D01*
X025143Y016981D01*
X025243Y016881D01*
X025243Y016081D01*
X025143Y015981D01*
X024343Y015981D01*
X024243Y016081D01*
X021020Y017061D02*
X020593Y017061D01*
X020806Y017061D02*
X020806Y017702D01*
X020593Y017488D01*
X034893Y010098D02*
X035106Y010312D01*
X035106Y009671D01*
X034893Y009671D02*
X035320Y009671D01*
X033936Y008142D02*
X033936Y007501D01*
X033723Y007501D02*
X034150Y007501D01*
X033723Y007928D02*
X033936Y008142D01*
X027380Y008831D02*
X026953Y008831D01*
X027166Y008831D02*
X027166Y009472D01*
X026953Y009258D01*
X048893Y006838D02*
X049106Y007052D01*
X049106Y006411D01*
X048893Y006411D02*
X049320Y006411D01*
X053973Y006717D02*
X053975Y006767D01*
X053981Y006817D01*
X053991Y006867D01*
X054004Y006915D01*
X054021Y006963D01*
X054042Y007009D01*
X054066Y007053D01*
X054094Y007095D01*
X054125Y007135D01*
X054159Y007172D01*
X054196Y007207D01*
X054235Y007238D01*
X054276Y007267D01*
X054320Y007292D01*
X054366Y007314D01*
X054413Y007332D01*
X054461Y007346D01*
X054510Y007357D01*
X054560Y007364D01*
X054610Y007367D01*
X054661Y007366D01*
X054711Y007361D01*
X054761Y007352D01*
X054809Y007340D01*
X054857Y007323D01*
X054903Y007303D01*
X054948Y007280D01*
X054991Y007253D01*
X055031Y007223D01*
X055069Y007190D01*
X055104Y007154D01*
X055137Y007115D01*
X055166Y007074D01*
X055192Y007031D01*
X055215Y006986D01*
X055234Y006939D01*
X055249Y006891D01*
X055261Y006842D01*
X055269Y006792D01*
X055273Y006742D01*
X055273Y006692D01*
X055269Y006642D01*
X055261Y006592D01*
X055249Y006543D01*
X055234Y006495D01*
X055215Y006448D01*
X055192Y006403D01*
X055166Y006360D01*
X055137Y006319D01*
X055104Y006280D01*
X055069Y006244D01*
X055031Y006211D01*
X054991Y006181D01*
X054948Y006154D01*
X054903Y006131D01*
X054857Y006111D01*
X054809Y006094D01*
X054761Y006082D01*
X054711Y006073D01*
X054661Y006068D01*
X054610Y006067D01*
X054560Y006070D01*
X054510Y006077D01*
X054461Y006088D01*
X054413Y006102D01*
X054366Y006120D01*
X054320Y006142D01*
X054276Y006167D01*
X054235Y006196D01*
X054196Y006227D01*
X054159Y006262D01*
X054125Y006299D01*
X054094Y006339D01*
X054066Y006381D01*
X054042Y006425D01*
X054021Y006471D01*
X054004Y006519D01*
X053991Y006567D01*
X053981Y006617D01*
X053975Y006667D01*
X053973Y006717D01*
X058823Y006517D02*
X059023Y006517D01*
D13*
X051162Y003595D02*
X051015Y003448D01*
X051051Y003411D01*
X051125Y003411D01*
X051162Y003448D01*
X051162Y003595D01*
X051125Y003632D01*
X051051Y003632D01*
X051015Y003595D01*
X051015Y003448D01*
X050941Y003595D02*
X050794Y003448D01*
X050794Y003411D01*
X050720Y003411D02*
X050646Y003485D01*
X050683Y003485D02*
X050573Y003485D01*
X050573Y003411D02*
X050573Y003632D01*
X050683Y003632D01*
X050720Y003595D01*
X050720Y003521D01*
X050683Y003485D01*
X050794Y003632D02*
X050941Y003632D01*
X050941Y003595D01*
X049103Y005098D02*
X049103Y005171D01*
X049066Y005208D01*
X049066Y005282D02*
X049103Y005319D01*
X049103Y005392D01*
X049066Y005429D01*
X049029Y005429D01*
X048993Y005392D01*
X048993Y005356D01*
X048993Y005392D02*
X048956Y005429D01*
X048919Y005429D01*
X048883Y005392D01*
X048883Y005319D01*
X048919Y005282D01*
X048919Y005208D02*
X048883Y005171D01*
X048883Y005098D01*
X048919Y005061D01*
X049066Y005061D01*
X049103Y005098D01*
X048993Y005503D02*
X048993Y005650D01*
X049103Y005613D02*
X048883Y005613D01*
X048993Y005503D01*
X036853Y013261D02*
X036853Y017261D01*
X026083Y020289D02*
X025863Y020289D01*
X025863Y020400D01*
X025899Y020436D01*
X025973Y020436D01*
X026009Y020400D01*
X026009Y020289D01*
X026009Y020363D02*
X026083Y020436D01*
X026083Y020510D02*
X026046Y020510D01*
X025899Y020657D01*
X025863Y020657D01*
X025863Y020510D01*
X026547Y027321D02*
X026620Y027321D01*
X026657Y027358D01*
X026731Y027321D02*
X026878Y027468D01*
X026878Y027505D01*
X026841Y027542D01*
X026768Y027542D01*
X026731Y027505D01*
X026657Y027505D02*
X026620Y027542D01*
X026547Y027542D01*
X026510Y027505D01*
X026510Y027358D01*
X026547Y027321D01*
X026731Y027321D02*
X026878Y027321D01*
X026952Y027431D02*
X027099Y027431D01*
X027062Y027321D02*
X027062Y027542D01*
X026952Y027431D01*
X015018Y030198D02*
X014981Y030198D01*
X014908Y030125D01*
X014908Y030198D02*
X014908Y030051D01*
X014834Y030198D02*
X014797Y030198D01*
X014724Y030125D01*
X014724Y030198D02*
X014724Y030051D01*
X014650Y030088D02*
X014650Y030161D01*
X014613Y030198D01*
X014540Y030198D01*
X014503Y030161D01*
X014503Y030088D01*
X014540Y030051D01*
X014613Y030051D01*
X014650Y030088D01*
X014429Y030161D02*
X014392Y030125D01*
X014282Y030125D01*
X014282Y030051D02*
X014282Y030272D01*
X014392Y030272D01*
X014429Y030235D01*
X014429Y030161D01*
X014318Y030358D02*
X014355Y030395D01*
X014355Y030578D01*
X014245Y030578D01*
X014208Y030541D01*
X014208Y030468D01*
X014245Y030431D01*
X014355Y030431D01*
X014429Y030431D02*
X014429Y030652D01*
X014466Y030578D02*
X014539Y030578D01*
X014576Y030541D01*
X014576Y030431D01*
X014687Y030468D02*
X014724Y030431D01*
X014687Y030468D02*
X014687Y030615D01*
X014650Y030578D02*
X014724Y030578D01*
X014466Y030578D02*
X014429Y030541D01*
X014318Y030358D02*
X014282Y030358D01*
X014134Y030431D02*
X014061Y030431D01*
X014098Y030431D02*
X014098Y030578D01*
X014061Y030578D01*
X013987Y030578D02*
X013950Y030578D01*
X013877Y030505D01*
X013877Y030578D02*
X013877Y030431D01*
X013803Y030431D02*
X013692Y030431D01*
X013656Y030468D01*
X013656Y030578D01*
X013582Y030541D02*
X013582Y030468D01*
X013545Y030431D01*
X013435Y030431D01*
X013435Y030358D02*
X013435Y030578D01*
X013545Y030578D01*
X013582Y030541D01*
X013361Y030541D02*
X013324Y030578D01*
X013251Y030578D01*
X013214Y030541D01*
X013214Y030468D01*
X013251Y030431D01*
X013324Y030431D01*
X013361Y030468D01*
X013361Y030541D01*
X013140Y030468D02*
X013103Y030431D01*
X013030Y030431D01*
X012993Y030468D01*
X012993Y030615D01*
X013030Y030652D01*
X013103Y030652D01*
X013140Y030615D01*
X013103Y030821D02*
X013140Y030858D01*
X013140Y031042D01*
X013214Y031005D02*
X013214Y030968D01*
X013251Y030931D01*
X013324Y030931D01*
X013361Y030895D01*
X013361Y030858D01*
X013324Y030821D01*
X013251Y030821D01*
X013214Y030858D01*
X013103Y030821D02*
X013030Y030821D01*
X012993Y030858D01*
X012993Y031042D01*
X013214Y031005D02*
X013251Y031042D01*
X013324Y031042D01*
X013361Y031005D01*
X013435Y031042D02*
X013545Y031042D01*
X013582Y031005D01*
X013582Y030968D01*
X013545Y030931D01*
X013435Y030931D01*
X013435Y030821D02*
X013435Y031042D01*
X013545Y030931D02*
X013582Y030895D01*
X013582Y030858D01*
X013545Y030821D01*
X013435Y030821D01*
X013656Y030821D02*
X013656Y031042D01*
X013766Y031042D01*
X013803Y031005D01*
X013803Y030858D01*
X013766Y030821D01*
X013656Y030821D01*
X013877Y030858D02*
X013913Y030821D01*
X013987Y030821D01*
X014024Y030858D01*
X014024Y031042D01*
X014098Y031042D02*
X014245Y030821D01*
X014098Y030821D02*
X014245Y031042D01*
X013877Y031042D02*
X013877Y030858D01*
X014098Y030688D02*
X014098Y030652D01*
X013803Y030578D02*
X013803Y030395D01*
X013766Y030358D01*
X013729Y030358D01*
X013729Y030198D02*
X013766Y030161D01*
X013766Y030051D01*
X013840Y030088D02*
X013840Y030161D01*
X013877Y030198D01*
X013987Y030198D01*
X013987Y030272D02*
X013987Y030051D01*
X013877Y030051D01*
X013840Y030088D01*
X013729Y030198D02*
X013619Y030198D01*
X013619Y030051D01*
X013545Y030198D02*
X013508Y030198D01*
X013435Y030125D01*
X013435Y030198D02*
X013435Y030051D01*
X013361Y030125D02*
X013214Y030125D01*
X013214Y030161D02*
X013251Y030198D01*
X013324Y030198D01*
X013361Y030161D01*
X013361Y030125D01*
X013324Y030051D02*
X013251Y030051D01*
X013214Y030088D01*
X013214Y030161D01*
X013140Y030125D02*
X013140Y030088D01*
X013103Y030051D01*
X012993Y030051D01*
X012993Y030272D01*
X013103Y030272D01*
X013140Y030235D01*
X013140Y030198D01*
X013103Y030161D01*
X012993Y030161D01*
X013103Y030161D02*
X013140Y030125D01*
X007470Y025581D02*
X006683Y025581D01*
X006683Y025335D01*
X006683Y025040D01*
X006880Y025040D02*
X006683Y025335D01*
X007077Y025335D01*
X006880Y025040D01*
X007077Y025335D02*
X007273Y025040D01*
X007470Y025335D01*
X007470Y025040D01*
X007470Y025335D02*
X007077Y025335D01*
X007470Y025335D02*
X007470Y025581D01*
X007470Y024745D02*
X006683Y024745D01*
X006683Y024056D01*
X006880Y024056D01*
X006880Y024499D01*
X006978Y024499D01*
X006978Y024056D01*
X007175Y024056D01*
X007175Y024499D01*
X007273Y024499D01*
X007273Y024056D01*
X007470Y024056D01*
X007470Y024745D01*
X007470Y023957D02*
X006683Y023957D01*
X006683Y023711D01*
X006978Y023711D01*
X006683Y023514D01*
X006683Y023219D01*
X006978Y023416D01*
X007126Y023564D02*
X007126Y023711D01*
X007273Y023711D01*
X007273Y023564D01*
X007274Y023564D02*
X007272Y023549D01*
X007268Y023534D01*
X007260Y023521D01*
X007250Y023509D01*
X007237Y023500D01*
X007223Y023494D01*
X007208Y023490D01*
X007192Y023490D01*
X007177Y023494D01*
X007163Y023500D01*
X007150Y023509D01*
X007140Y023521D01*
X007132Y023534D01*
X007128Y023549D01*
X007126Y023564D01*
X006978Y023416D02*
X006980Y023386D01*
X006985Y023357D01*
X006994Y023329D01*
X007006Y023302D01*
X007022Y023276D01*
X007040Y023253D01*
X007061Y023232D01*
X007084Y023214D01*
X007110Y023198D01*
X007137Y023186D01*
X007165Y023177D01*
X007194Y023172D01*
X007224Y023170D01*
X007254Y023172D01*
X007283Y023177D01*
X007311Y023186D01*
X007338Y023198D01*
X007364Y023214D01*
X007387Y023232D01*
X007408Y023253D01*
X007426Y023276D01*
X007442Y023302D01*
X007454Y023329D01*
X007463Y023357D01*
X007468Y023386D01*
X007470Y023416D01*
X007470Y023957D01*
X007077Y022629D02*
X006880Y022629D01*
X007077Y022629D02*
X007077Y022432D01*
X006732Y022432D01*
X007273Y022434D02*
X007449Y022434D01*
X014423Y011841D02*
X017123Y011841D01*
X017174Y011839D01*
X017225Y011834D01*
X017275Y011824D01*
X017325Y011811D01*
X017373Y011795D01*
X017420Y011775D01*
X017466Y011751D01*
X017509Y011725D01*
X017551Y011695D01*
X017590Y011662D01*
X017627Y011627D01*
X017661Y011589D01*
X017692Y011548D01*
X017721Y011506D01*
X017746Y011461D01*
X017767Y011415D01*
X017786Y011367D01*
X017800Y011318D01*
X017811Y011268D01*
X017819Y011218D01*
X017823Y011167D01*
X017823Y011115D01*
X017819Y011064D01*
X017811Y011014D01*
X017800Y010964D01*
X017786Y010915D01*
X017767Y010867D01*
X017746Y010821D01*
X017721Y010776D01*
X017692Y010734D01*
X017661Y010693D01*
X017627Y010655D01*
X017590Y010620D01*
X017551Y010587D01*
X017509Y010557D01*
X017466Y010531D01*
X017420Y010507D01*
X017373Y010487D01*
X017325Y010471D01*
X017275Y010458D01*
X017225Y010448D01*
X017174Y010443D01*
X017123Y010441D01*
X014423Y010441D01*
X014372Y010443D01*
X014321Y010448D01*
X014271Y010458D01*
X014221Y010471D01*
X014173Y010487D01*
X014126Y010507D01*
X014080Y010531D01*
X014037Y010557D01*
X013995Y010587D01*
X013956Y010620D01*
X013919Y010655D01*
X013885Y010693D01*
X013854Y010734D01*
X013825Y010776D01*
X013800Y010821D01*
X013779Y010867D01*
X013760Y010915D01*
X013746Y010964D01*
X013735Y011014D01*
X013727Y011064D01*
X013723Y011115D01*
X013723Y011167D01*
X013727Y011218D01*
X013735Y011268D01*
X013746Y011318D01*
X013760Y011367D01*
X013779Y011415D01*
X013800Y011461D01*
X013825Y011506D01*
X013854Y011548D01*
X013885Y011589D01*
X013919Y011627D01*
X013956Y011662D01*
X013995Y011695D01*
X014037Y011725D01*
X014080Y011751D01*
X014126Y011775D01*
X014173Y011795D01*
X014221Y011811D01*
X014271Y011824D01*
X014321Y011834D01*
X014372Y011839D01*
X014423Y011841D01*
D14*
X018022Y013268D02*
X018099Y013191D01*
X018406Y013191D01*
X018483Y013268D01*
X018483Y013422D01*
X018406Y013498D01*
X018406Y013652D02*
X018483Y013728D01*
X018483Y013882D01*
X018406Y013959D01*
X018099Y013959D01*
X018022Y013882D01*
X018022Y013728D01*
X018099Y013652D01*
X018176Y013652D01*
X018253Y013728D01*
X018253Y013959D01*
X018099Y013498D02*
X018022Y013422D01*
X018022Y013268D01*
X019922Y013988D02*
X019922Y014295D01*
X019999Y014372D01*
X020152Y014372D01*
X020229Y014295D01*
X020382Y014295D02*
X020382Y014218D01*
X020459Y014142D01*
X020613Y014142D01*
X020689Y014065D01*
X020689Y013988D01*
X020613Y013911D01*
X020459Y013911D01*
X020382Y013988D01*
X020382Y014065D01*
X020459Y014142D01*
X020613Y014142D02*
X020689Y014218D01*
X020689Y014295D01*
X020613Y014372D01*
X020459Y014372D01*
X020382Y014295D01*
X020229Y013988D02*
X020152Y013911D01*
X019999Y013911D01*
X019922Y013988D01*
X021573Y014688D02*
X021650Y014611D01*
X021803Y014611D01*
X021880Y014688D01*
X022033Y014611D02*
X022340Y014611D01*
X022187Y014611D02*
X022187Y015072D01*
X022033Y014918D01*
X021880Y014995D02*
X021803Y015072D01*
X021650Y015072D01*
X021573Y014995D01*
X021573Y014688D01*
X021492Y015521D02*
X021492Y015982D01*
X021722Y015982D01*
X021799Y015905D01*
X021799Y015752D01*
X021722Y015675D01*
X021492Y015675D01*
X021646Y015675D02*
X021799Y015521D01*
X021952Y015598D02*
X022029Y015521D01*
X022183Y015521D01*
X022259Y015598D01*
X022259Y015675D01*
X022183Y015752D01*
X021952Y015752D01*
X021952Y015598D01*
X021952Y015752D02*
X022106Y015905D01*
X022259Y015982D01*
X021073Y017781D02*
X021073Y017935D01*
X021073Y017858D02*
X020612Y017858D01*
X020612Y017781D02*
X020612Y017935D01*
X020689Y018088D02*
X020996Y018088D01*
X021073Y018165D01*
X021073Y018318D01*
X020996Y018395D01*
X020996Y018549D02*
X021073Y018625D01*
X021073Y018779D01*
X020996Y018856D01*
X020919Y018856D01*
X020843Y018779D01*
X020843Y018702D01*
X020843Y018779D02*
X020766Y018856D01*
X020689Y018856D01*
X020612Y018779D01*
X020612Y018625D01*
X020689Y018549D01*
X020689Y018395D02*
X020612Y018318D01*
X020612Y018165D01*
X020689Y018088D01*
X018970Y018318D02*
X018893Y018241D01*
X018740Y018241D01*
X018663Y018318D01*
X018663Y018395D01*
X018740Y018472D01*
X018893Y018472D01*
X018970Y018395D01*
X018970Y018318D01*
X018893Y018472D02*
X018970Y018548D01*
X018970Y018625D01*
X018893Y018702D01*
X018740Y018702D01*
X018663Y018625D01*
X018663Y018548D01*
X018740Y018472D01*
X018510Y018472D02*
X018510Y018625D01*
X018433Y018702D01*
X018203Y018702D01*
X018203Y018241D01*
X018203Y018395D02*
X018433Y018395D01*
X018510Y018472D01*
X018356Y018395D02*
X018510Y018241D01*
X019910Y020361D02*
X020063Y020361D01*
X020140Y020438D01*
X020293Y020438D02*
X020370Y020361D01*
X020523Y020361D01*
X020600Y020438D01*
X020600Y020592D01*
X020523Y020668D01*
X020447Y020668D01*
X020293Y020592D01*
X020293Y020822D01*
X020600Y020822D01*
X020140Y020745D02*
X020063Y020822D01*
X019910Y020822D01*
X019833Y020745D01*
X019833Y020438D01*
X019910Y020361D01*
X018879Y020928D02*
X018803Y020851D01*
X018649Y020851D01*
X018572Y020928D01*
X018572Y021005D01*
X018649Y021082D01*
X018803Y021082D01*
X018879Y021005D01*
X018879Y020928D01*
X018803Y021082D02*
X018879Y021158D01*
X018879Y021235D01*
X018803Y021312D01*
X018649Y021312D01*
X018572Y021235D01*
X018572Y021158D01*
X018649Y021082D01*
X018419Y021158D02*
X018342Y021082D01*
X018419Y021005D01*
X018419Y020928D01*
X018342Y020851D01*
X018189Y020851D01*
X018112Y020928D01*
X017959Y020851D02*
X017805Y021005D01*
X017882Y021005D02*
X017652Y021005D01*
X017652Y020851D02*
X017652Y021312D01*
X017882Y021312D01*
X017959Y021235D01*
X017959Y021082D01*
X017882Y021005D01*
X018112Y021235D02*
X018189Y021312D01*
X018342Y021312D01*
X018419Y021235D01*
X018419Y021158D01*
X018342Y021082D02*
X018265Y021082D01*
X018440Y021841D02*
X018593Y021841D01*
X018670Y021918D01*
X018823Y021918D02*
X018900Y021841D01*
X019053Y021841D01*
X019130Y021918D01*
X019130Y021995D01*
X019053Y022072D01*
X018977Y022072D01*
X019053Y022072D02*
X019130Y022148D01*
X019130Y022225D01*
X019053Y022302D01*
X018900Y022302D01*
X018823Y022225D01*
X018670Y022225D02*
X018593Y022302D01*
X018440Y022302D01*
X018363Y022225D01*
X018363Y021918D01*
X018440Y021841D01*
X019284Y021918D02*
X019360Y021841D01*
X019514Y021841D01*
X019590Y021918D01*
X019590Y021995D01*
X019514Y022072D01*
X019284Y022072D01*
X019284Y021918D01*
X019284Y022072D02*
X019437Y022225D01*
X019590Y022302D01*
X024243Y018702D02*
X024473Y018702D01*
X024550Y018625D01*
X024550Y018472D01*
X024473Y018395D01*
X024243Y018395D01*
X024396Y018395D02*
X024550Y018241D01*
X024703Y018241D02*
X025010Y018241D01*
X024857Y018241D02*
X024857Y018702D01*
X024703Y018548D01*
X024243Y018702D02*
X024243Y018241D01*
X028442Y014922D02*
X028519Y014999D01*
X028596Y014999D01*
X028903Y014692D01*
X028903Y014999D01*
X028442Y014922D02*
X028442Y014769D01*
X028519Y014692D01*
X028519Y014539D02*
X028442Y014462D01*
X028442Y014308D01*
X028519Y014232D01*
X028519Y014078D02*
X028442Y014002D01*
X028442Y013848D01*
X028519Y013771D01*
X028826Y013771D01*
X028903Y013848D01*
X028903Y014002D01*
X028826Y014078D01*
X028903Y014232D02*
X028596Y014539D01*
X028519Y014539D01*
X028903Y014539D02*
X028903Y014232D01*
X030020Y013192D02*
X029943Y013115D01*
X029943Y012808D01*
X030020Y012731D01*
X030173Y012731D01*
X030250Y012808D01*
X030403Y012731D02*
X030710Y013038D01*
X030710Y013115D01*
X030633Y013192D01*
X030480Y013192D01*
X030403Y013115D01*
X030250Y013115D02*
X030173Y013192D01*
X030020Y013192D01*
X030864Y013115D02*
X030864Y013038D01*
X030940Y012962D01*
X031170Y012962D01*
X031170Y013115D02*
X031170Y012808D01*
X031094Y012731D01*
X030940Y012731D01*
X030864Y012808D01*
X030710Y012731D02*
X030403Y012731D01*
X030864Y013115D02*
X030940Y013192D01*
X031094Y013192D01*
X031170Y013115D01*
X032103Y013125D02*
X032103Y012818D01*
X032180Y012741D01*
X032333Y012741D01*
X032410Y012818D01*
X032563Y012741D02*
X032870Y013048D01*
X032870Y013125D01*
X032793Y013202D01*
X032640Y013202D01*
X032563Y013125D01*
X032410Y013125D02*
X032333Y013202D01*
X032180Y013202D01*
X032103Y013125D01*
X032563Y012741D02*
X032870Y012741D01*
X033024Y012818D02*
X033100Y012741D01*
X033254Y012741D01*
X033330Y012818D01*
X033330Y012895D01*
X033254Y012972D01*
X033100Y012972D01*
X033024Y013048D01*
X033024Y013125D01*
X033100Y013202D01*
X033254Y013202D01*
X033330Y013125D01*
X033330Y013048D01*
X033254Y012972D01*
X033100Y012972D02*
X033024Y012895D01*
X033024Y012818D01*
X032117Y011962D02*
X032117Y011501D01*
X031964Y011501D02*
X032270Y011501D01*
X031964Y011808D02*
X032117Y011962D01*
X031810Y011885D02*
X031810Y011808D01*
X031733Y011732D01*
X031810Y011655D01*
X031810Y011578D01*
X031733Y011501D01*
X031580Y011501D01*
X031503Y011578D01*
X031350Y011578D02*
X031273Y011501D01*
X031120Y011501D01*
X031043Y011578D01*
X031043Y011885D01*
X031120Y011962D01*
X031273Y011962D01*
X031350Y011885D01*
X031503Y011885D02*
X031580Y011962D01*
X031733Y011962D01*
X031810Y011885D01*
X031733Y011732D02*
X031657Y011732D01*
X033802Y010928D02*
X033879Y010774D01*
X034033Y010621D01*
X034033Y010851D01*
X034109Y010928D01*
X034186Y010928D01*
X034263Y010851D01*
X034263Y010698D01*
X034186Y010621D01*
X034033Y010621D01*
X034033Y010468D02*
X034033Y010161D01*
X033802Y010391D01*
X034263Y010391D01*
X034186Y010007D02*
X034263Y009930D01*
X034263Y009777D01*
X034186Y009700D01*
X033879Y009700D01*
X033802Y009777D01*
X033802Y009930D01*
X033879Y010007D01*
X034710Y010761D02*
X034863Y010761D01*
X034940Y010838D01*
X034940Y011222D01*
X035093Y011145D02*
X035170Y011222D01*
X035323Y011222D01*
X035400Y011145D01*
X035554Y011145D02*
X035630Y011222D01*
X035784Y011222D01*
X035860Y011145D01*
X035860Y011068D01*
X035554Y010761D01*
X035860Y010761D01*
X035400Y010838D02*
X035400Y010915D01*
X035323Y010992D01*
X035170Y010992D01*
X035093Y011068D01*
X035093Y011145D01*
X035247Y011299D02*
X035247Y010685D01*
X035323Y010761D02*
X035400Y010838D01*
X035323Y010761D02*
X035170Y010761D01*
X035093Y010838D01*
X034710Y010761D02*
X034633Y010838D01*
X034633Y011222D01*
X036892Y010865D02*
X036892Y010558D01*
X036968Y010481D01*
X037122Y010481D01*
X037199Y010558D01*
X037212Y010656D02*
X037673Y010656D01*
X037659Y010788D02*
X037659Y010865D01*
X037582Y010942D01*
X037429Y010942D01*
X037352Y010865D01*
X037199Y010865D02*
X037122Y010942D01*
X036968Y010942D01*
X036892Y010865D01*
X037212Y010656D02*
X037366Y010502D01*
X037352Y010481D02*
X037659Y010788D01*
X037673Y010809D02*
X037673Y010502D01*
X037659Y010481D02*
X037352Y010481D01*
X037366Y010349D02*
X037289Y010349D01*
X037212Y010272D01*
X037212Y010118D01*
X037289Y010042D01*
X037289Y009888D02*
X037212Y009812D01*
X037212Y009658D01*
X037289Y009581D01*
X037596Y009581D01*
X037673Y009658D01*
X037673Y009812D01*
X037596Y009888D01*
X037673Y010042D02*
X037366Y010349D01*
X037673Y010349D02*
X037673Y010042D01*
X037889Y010481D02*
X037812Y010558D01*
X038119Y010865D01*
X038119Y010558D01*
X038043Y010481D01*
X037889Y010481D01*
X037812Y010558D02*
X037812Y010865D01*
X037889Y010942D01*
X038043Y010942D01*
X038119Y010865D01*
X040713Y010122D02*
X040713Y009738D01*
X040789Y009661D01*
X040943Y009661D01*
X041020Y009738D01*
X041020Y010122D01*
X041173Y010045D02*
X041250Y010122D01*
X041403Y010122D01*
X041480Y010045D01*
X041633Y009968D02*
X041787Y010122D01*
X041787Y009661D01*
X041681Y009574D02*
X041451Y009574D01*
X041451Y009114D01*
X041681Y009114D01*
X041758Y009191D01*
X041758Y009497D01*
X041681Y009574D01*
X041633Y009661D02*
X041940Y009661D01*
X041988Y009574D02*
X042142Y009574D01*
X042218Y009497D01*
X042218Y009421D01*
X042142Y009344D01*
X042218Y009267D01*
X042218Y009191D01*
X042142Y009114D01*
X041988Y009114D01*
X041911Y009191D01*
X041932Y009095D02*
X041932Y009018D01*
X042009Y008942D01*
X042163Y008942D01*
X042239Y008865D01*
X042239Y008788D01*
X042163Y008711D01*
X042009Y008711D01*
X041932Y008788D01*
X041932Y008865D01*
X042009Y008942D01*
X042163Y008942D02*
X042239Y009018D01*
X042239Y009095D01*
X042163Y009172D01*
X042009Y009172D01*
X041932Y009095D01*
X041779Y008942D02*
X041472Y008942D01*
X041702Y009172D01*
X041702Y008711D01*
X041319Y008788D02*
X041242Y008711D01*
X041088Y008711D01*
X041012Y008788D01*
X041012Y009095D01*
X041088Y009172D01*
X041242Y009172D01*
X041319Y009095D01*
X041391Y008994D02*
X044195Y008994D01*
X042401Y009661D02*
X042094Y009661D01*
X041988Y009574D02*
X041911Y009497D01*
X042065Y009344D02*
X042142Y009344D01*
X042247Y009661D02*
X042247Y010122D01*
X042094Y009968D01*
X041480Y009815D02*
X041403Y009892D01*
X041250Y009892D01*
X041173Y009968D01*
X041173Y010045D01*
X041326Y010199D02*
X041326Y009585D01*
X041250Y009661D02*
X041403Y009661D01*
X041480Y009738D01*
X041480Y009815D01*
X041250Y009661D02*
X041173Y009738D01*
X040533Y009172D02*
X040609Y009095D01*
X040609Y009018D01*
X040533Y008942D01*
X040609Y008865D01*
X040609Y008788D01*
X040533Y008711D01*
X040379Y008711D01*
X040302Y008788D01*
X040149Y008942D02*
X039842Y008942D01*
X040072Y009172D01*
X040072Y008711D01*
X039689Y008788D02*
X039612Y008711D01*
X039458Y008711D01*
X039382Y008788D01*
X039382Y009095D01*
X039458Y009172D01*
X039612Y009172D01*
X039689Y009095D01*
X040302Y009095D02*
X040379Y009172D01*
X040533Y009172D01*
X040533Y008942D02*
X040456Y008942D01*
X038513Y006912D02*
X038589Y006835D01*
X038589Y006758D01*
X038513Y006682D01*
X038359Y006682D01*
X038282Y006758D01*
X038282Y006835D01*
X038359Y006912D01*
X038513Y006912D01*
X038513Y006682D02*
X038589Y006605D01*
X038589Y006528D01*
X038513Y006451D01*
X038359Y006451D01*
X038282Y006528D01*
X038282Y006605D01*
X038359Y006682D01*
X038129Y006451D02*
X037822Y006451D01*
X037975Y006451D02*
X037975Y006912D01*
X037822Y006758D01*
X037669Y006835D02*
X037592Y006912D01*
X037438Y006912D01*
X037362Y006835D01*
X037362Y006528D01*
X037438Y006451D01*
X037592Y006451D01*
X037669Y006528D01*
X037739Y005718D02*
X037662Y005641D01*
X037662Y005488D01*
X037739Y005411D01*
X037816Y005411D01*
X037893Y005488D01*
X037893Y005718D01*
X038046Y005718D02*
X037739Y005718D01*
X038046Y005718D02*
X038123Y005641D01*
X038123Y005488D01*
X038046Y005411D01*
X038123Y005258D02*
X038123Y004951D01*
X038123Y005104D02*
X037662Y005104D01*
X037816Y004951D01*
X037739Y004797D02*
X037662Y004720D01*
X037662Y004567D01*
X037739Y004490D01*
X038046Y004490D01*
X038123Y004567D01*
X038123Y004720D01*
X038046Y004797D01*
X040242Y004698D02*
X040242Y004391D01*
X040473Y004391D01*
X040396Y004544D01*
X040396Y004621D01*
X040473Y004698D01*
X040626Y004698D01*
X040703Y004621D01*
X040703Y004467D01*
X040626Y004391D01*
X040626Y004237D02*
X040703Y004160D01*
X040703Y004007D01*
X040626Y003930D01*
X040319Y003930D01*
X040242Y004007D01*
X040242Y004160D01*
X040319Y004237D01*
X040319Y004851D02*
X040242Y004928D01*
X040242Y005081D01*
X040319Y005158D01*
X040396Y005158D01*
X040703Y004851D01*
X040703Y005158D01*
X041431Y005494D02*
X044235Y005494D01*
X044195Y006549D02*
X041391Y006549D01*
X046251Y006452D02*
X046251Y006068D01*
X046328Y005991D01*
X046481Y005991D01*
X046558Y006068D01*
X046558Y006452D01*
X046712Y006375D02*
X046788Y006452D01*
X046942Y006452D01*
X047019Y006375D01*
X047172Y006375D02*
X047249Y006452D01*
X047402Y006452D01*
X047479Y006375D01*
X047479Y006298D01*
X047172Y005991D01*
X047479Y005991D01*
X047632Y006068D02*
X047939Y006375D01*
X047939Y006068D01*
X047863Y005991D01*
X047709Y005991D01*
X047632Y006068D01*
X047632Y006375D01*
X047709Y006452D01*
X047863Y006452D01*
X047939Y006375D01*
X047019Y006145D02*
X046942Y006222D01*
X046788Y006222D01*
X046712Y006298D01*
X046712Y006375D01*
X046865Y006529D02*
X046865Y005915D01*
X046788Y005991D02*
X046942Y005991D01*
X047019Y006068D01*
X047019Y006145D01*
X046788Y005991D02*
X046712Y006068D01*
X044235Y003049D02*
X041431Y003049D01*
X043294Y002929D02*
X043294Y002469D01*
X043524Y002469D01*
X043601Y002546D01*
X043601Y002853D01*
X043524Y002929D01*
X043294Y002929D01*
X043754Y002776D02*
X043908Y002929D01*
X043908Y002469D01*
X044061Y002469D02*
X043754Y002469D01*
X034583Y002828D02*
X034583Y002982D01*
X034506Y003058D01*
X034506Y003212D02*
X034583Y003288D01*
X034583Y003442D01*
X034506Y003519D01*
X034353Y003519D01*
X034276Y003442D01*
X034276Y003365D01*
X034353Y003212D01*
X034122Y003212D01*
X034122Y003519D01*
X034199Y003672D02*
X034122Y003749D01*
X034122Y003902D01*
X034199Y003979D01*
X034276Y003979D01*
X034353Y003902D01*
X034429Y003979D01*
X034506Y003979D01*
X034583Y003902D01*
X034583Y003749D01*
X034506Y003672D01*
X034353Y003826D02*
X034353Y003902D01*
X034199Y003058D02*
X034122Y002982D01*
X034122Y002828D01*
X034199Y002751D01*
X034506Y002751D01*
X034583Y002828D01*
X029319Y004098D02*
X029243Y004021D01*
X029089Y004021D01*
X029012Y004098D01*
X029012Y004175D01*
X029089Y004252D01*
X029243Y004252D01*
X029319Y004175D01*
X029319Y004098D01*
X029243Y004252D02*
X029319Y004328D01*
X029319Y004405D01*
X029243Y004482D01*
X029089Y004482D01*
X029012Y004405D01*
X029012Y004328D01*
X029089Y004252D01*
X028859Y004328D02*
X028782Y004252D01*
X028859Y004175D01*
X028859Y004098D01*
X028782Y004021D01*
X028629Y004021D01*
X028552Y004098D01*
X028399Y004098D02*
X028322Y004021D01*
X028168Y004021D01*
X028092Y004098D01*
X028092Y004405D01*
X028168Y004482D01*
X028322Y004482D01*
X028399Y004405D01*
X028552Y004405D02*
X028629Y004482D01*
X028782Y004482D01*
X028859Y004405D01*
X028859Y004328D01*
X028782Y004252D02*
X028705Y004252D01*
X030733Y005668D02*
X030810Y005591D01*
X030963Y005591D01*
X031040Y005668D01*
X031193Y005668D02*
X031270Y005591D01*
X031423Y005591D01*
X031500Y005668D01*
X031500Y005745D01*
X031423Y005822D01*
X031347Y005822D01*
X031423Y005822D02*
X031500Y005898D01*
X031500Y005975D01*
X031423Y006052D01*
X031270Y006052D01*
X031193Y005975D01*
X031040Y005975D02*
X030963Y006052D01*
X030810Y006052D01*
X030733Y005975D01*
X030733Y005668D01*
X031654Y005591D02*
X031960Y005898D01*
X031960Y005975D01*
X031884Y006052D01*
X031730Y006052D01*
X031654Y005975D01*
X031654Y005591D02*
X031960Y005591D01*
X032229Y005901D02*
X032536Y005901D01*
X032613Y005977D01*
X032613Y006131D01*
X032536Y006208D01*
X032383Y006361D02*
X032383Y006668D01*
X032613Y006591D02*
X032152Y006591D01*
X032383Y006361D01*
X032229Y006208D02*
X032152Y006131D01*
X032152Y005977D01*
X032229Y005901D01*
X032090Y008111D02*
X031936Y008265D01*
X032013Y008265D02*
X031783Y008265D01*
X031783Y008111D02*
X031783Y008572D01*
X032013Y008572D01*
X032090Y008495D01*
X032090Y008342D01*
X032013Y008265D01*
X032243Y008342D02*
X032550Y008342D01*
X032473Y008572D02*
X032243Y008342D01*
X032473Y008111D02*
X032473Y008572D01*
X032273Y009101D02*
X032120Y009101D01*
X032043Y009178D01*
X031890Y009101D02*
X031736Y009255D01*
X031813Y009255D02*
X031583Y009255D01*
X031583Y009101D02*
X031583Y009562D01*
X031813Y009562D01*
X031890Y009485D01*
X031890Y009332D01*
X031813Y009255D01*
X032043Y009485D02*
X032120Y009562D01*
X032273Y009562D01*
X032350Y009485D01*
X032350Y009408D01*
X032273Y009332D01*
X032350Y009255D01*
X032350Y009178D01*
X032273Y009101D01*
X032273Y009332D02*
X032197Y009332D01*
X031303Y009638D02*
X031303Y009792D01*
X031226Y009868D01*
X031226Y010022D02*
X031303Y010022D01*
X031226Y010022D02*
X030919Y010329D01*
X030842Y010329D01*
X030842Y010022D01*
X030919Y009868D02*
X030842Y009792D01*
X030842Y009638D01*
X030919Y009561D01*
X031226Y009561D01*
X031303Y009638D01*
X029285Y009677D02*
X028978Y009677D01*
X029132Y009677D02*
X029132Y010138D01*
X028978Y009984D01*
X028825Y010061D02*
X028748Y010138D01*
X028594Y010138D01*
X028518Y010061D01*
X028518Y009984D01*
X028594Y009907D01*
X028748Y009907D01*
X028825Y009831D01*
X028825Y009754D01*
X028748Y009677D01*
X028594Y009677D01*
X028518Y009754D01*
X028586Y009831D02*
X028663Y009907D01*
X028663Y010061D01*
X028586Y010138D01*
X028509Y010138D01*
X028433Y010061D01*
X028433Y009984D01*
X028433Y010061D02*
X028356Y010138D01*
X028279Y010138D01*
X028202Y010061D01*
X028202Y009907D01*
X028279Y009831D01*
X028364Y009754D02*
X028364Y010138D01*
X028279Y010291D02*
X028202Y010368D01*
X028202Y010521D01*
X028279Y010598D01*
X028356Y010598D01*
X028433Y010521D01*
X028509Y010598D01*
X028586Y010598D01*
X028663Y010521D01*
X028663Y010368D01*
X028586Y010291D01*
X028671Y010214D02*
X028671Y009601D01*
X028663Y009600D02*
X028586Y009677D01*
X028663Y009600D02*
X028663Y009447D01*
X028586Y009370D01*
X028279Y009370D01*
X028202Y009447D01*
X028202Y009600D01*
X028279Y009677D01*
X028288Y009677D02*
X028364Y009754D01*
X028288Y009677D02*
X028134Y009677D01*
X028057Y009754D01*
X028057Y010138D01*
X028433Y010444D02*
X028433Y010521D01*
X026440Y009355D02*
X026134Y009048D01*
X026210Y008971D01*
X026364Y008971D01*
X026440Y009048D01*
X026440Y009355D01*
X026364Y009432D01*
X026210Y009432D01*
X026134Y009355D01*
X026134Y009048D01*
X025980Y009048D02*
X025903Y008971D01*
X025750Y008971D01*
X025673Y009048D01*
X025520Y009048D02*
X025443Y008971D01*
X025290Y008971D01*
X025213Y009048D01*
X025213Y009355D01*
X025290Y009432D01*
X025443Y009432D01*
X025520Y009355D01*
X025673Y009355D02*
X025750Y009432D01*
X025903Y009432D01*
X025980Y009355D01*
X025980Y009278D01*
X025903Y009202D01*
X025980Y009125D01*
X025980Y009048D01*
X025903Y009202D02*
X025827Y009202D01*
X025170Y009272D02*
X025017Y009195D01*
X024863Y009042D01*
X025093Y009042D01*
X025170Y008965D01*
X025170Y008888D01*
X025093Y008811D01*
X024940Y008811D01*
X024863Y008888D01*
X024863Y009042D01*
X024710Y009195D02*
X024633Y009272D01*
X024480Y009272D01*
X024403Y009195D01*
X024403Y008888D01*
X024480Y008811D01*
X024633Y008811D01*
X024710Y008888D01*
X022070Y007322D02*
X021917Y007245D01*
X021764Y007092D01*
X021994Y007092D01*
X022070Y007015D01*
X022070Y006938D01*
X021994Y006861D01*
X021840Y006861D01*
X021764Y006938D01*
X021764Y007092D01*
X021610Y007168D02*
X021303Y006861D01*
X021610Y006861D01*
X021610Y007168D02*
X021610Y007245D01*
X021533Y007322D01*
X021380Y007322D01*
X021303Y007245D01*
X021150Y007245D02*
X021073Y007322D01*
X020920Y007322D01*
X020843Y007245D01*
X020843Y006938D01*
X020920Y006861D01*
X021073Y006861D01*
X021150Y006938D01*
X019653Y008387D02*
X019653Y008540D01*
X019576Y008617D01*
X019576Y008771D02*
X019653Y008847D01*
X019653Y009001D01*
X019576Y009078D01*
X019499Y009078D01*
X019423Y009001D01*
X019423Y008924D01*
X019423Y009001D02*
X019346Y009078D01*
X019269Y009078D01*
X019192Y009001D01*
X019192Y008847D01*
X019269Y008771D01*
X019269Y008617D02*
X019192Y008540D01*
X019192Y008387D01*
X019269Y008310D01*
X019576Y008310D01*
X019653Y008387D01*
X019653Y009231D02*
X019576Y009231D01*
X019269Y009538D01*
X019192Y009538D01*
X019192Y009231D01*
X017623Y009291D02*
X017623Y009137D01*
X017546Y009061D01*
X017239Y009061D01*
X017162Y009137D01*
X017162Y009291D01*
X017239Y009368D01*
X017239Y009521D02*
X017162Y009598D01*
X017162Y009751D01*
X017239Y009828D01*
X017316Y009828D01*
X017623Y009521D01*
X017623Y009828D01*
X017546Y009368D02*
X017623Y009291D01*
X014353Y009228D02*
X014276Y009152D01*
X014353Y009228D02*
X014353Y009382D01*
X014276Y009459D01*
X014199Y009459D01*
X014123Y009382D01*
X014123Y009305D01*
X014123Y009382D02*
X014046Y009459D01*
X013969Y009459D01*
X013892Y009382D01*
X013892Y009228D01*
X013969Y009152D01*
X013969Y008998D02*
X013892Y008922D01*
X013892Y008768D01*
X013969Y008691D01*
X014276Y008691D01*
X014353Y008768D01*
X014353Y008922D01*
X014276Y008998D01*
X022542Y011003D02*
X022926Y011003D01*
X023003Y011080D01*
X023003Y011234D01*
X022926Y011310D01*
X022542Y011310D01*
X022619Y011464D02*
X022542Y011541D01*
X022542Y011694D01*
X022619Y011771D01*
X022619Y011924D02*
X022542Y012001D01*
X022542Y012154D01*
X022619Y012231D01*
X022696Y012231D01*
X022773Y012154D01*
X022849Y012231D01*
X022926Y012231D01*
X023003Y012154D01*
X023003Y012001D01*
X022926Y011924D01*
X022926Y011771D02*
X022849Y011771D01*
X022773Y011694D01*
X022773Y011541D01*
X022696Y011464D01*
X022619Y011464D01*
X022466Y011617D02*
X023080Y011617D01*
X023003Y011541D02*
X023003Y011694D01*
X022926Y011771D01*
X023003Y011541D02*
X022926Y011464D01*
X022773Y012078D02*
X022773Y012154D01*
X030602Y013888D02*
X030679Y013811D01*
X030986Y013811D01*
X031063Y013888D01*
X031063Y014042D01*
X030986Y014118D01*
X031063Y014272D02*
X030756Y014579D01*
X030679Y014579D01*
X030602Y014502D01*
X030602Y014348D01*
X030679Y014272D01*
X030679Y014118D02*
X030602Y014042D01*
X030602Y013888D01*
X031063Y014272D02*
X031063Y014579D01*
X030986Y014732D02*
X031063Y014809D01*
X031063Y014962D01*
X030986Y015039D01*
X030909Y015039D01*
X030833Y014962D01*
X030833Y014886D01*
X030833Y014962D02*
X030756Y015039D01*
X030679Y015039D01*
X030602Y014962D01*
X030602Y014809D01*
X030679Y014732D01*
X036502Y017028D02*
X036578Y016951D01*
X036732Y016951D01*
X036809Y017028D01*
X036962Y017182D02*
X037269Y017182D01*
X037422Y017335D02*
X037499Y017412D01*
X037653Y017412D01*
X037729Y017335D01*
X037729Y017258D01*
X037422Y016951D01*
X037729Y016951D01*
X037192Y016951D02*
X037192Y017412D01*
X036962Y017182D01*
X036809Y017335D02*
X036732Y017412D01*
X036578Y017412D01*
X036502Y017335D01*
X036502Y017028D01*
X039550Y019750D02*
X039550Y019980D01*
X039627Y020056D01*
X039934Y020056D01*
X040010Y019980D01*
X040010Y019750D01*
X039550Y019750D01*
X039274Y020071D02*
X039350Y020148D01*
X039350Y020225D01*
X039274Y020302D01*
X039044Y020302D01*
X039044Y020148D01*
X039120Y020071D01*
X039274Y020071D01*
X039044Y020302D02*
X039197Y020455D01*
X039350Y020532D01*
X039550Y020440D02*
X039550Y020287D01*
X039627Y020210D01*
X039550Y020440D02*
X039627Y020517D01*
X039704Y020517D01*
X040010Y020210D01*
X040010Y020517D01*
X038890Y020071D02*
X038583Y020071D01*
X038430Y020071D02*
X038276Y020225D01*
X038353Y020225D02*
X038123Y020225D01*
X038123Y020071D02*
X038123Y020532D01*
X038353Y020532D01*
X038430Y020455D01*
X038430Y020302D01*
X038353Y020225D01*
X038583Y020378D02*
X038737Y020532D01*
X038737Y020071D01*
X040130Y019690D02*
X040130Y022493D01*
X040092Y022991D02*
X040092Y023068D01*
X040399Y023375D01*
X040399Y023452D01*
X040092Y023452D01*
X039785Y023452D02*
X039785Y022991D01*
X039632Y022991D02*
X039939Y022991D01*
X039632Y023298D02*
X039785Y023452D01*
X039479Y023375D02*
X039479Y023222D01*
X039402Y023145D01*
X039172Y023145D01*
X039325Y023145D02*
X039479Y022991D01*
X039172Y022991D02*
X039172Y023452D01*
X039402Y023452D01*
X039479Y023375D01*
X039010Y023315D02*
X038704Y023008D01*
X038780Y022931D01*
X038934Y022931D01*
X039010Y023008D01*
X039010Y023315D01*
X038934Y023392D01*
X038780Y023392D01*
X038704Y023315D01*
X038704Y023008D01*
X038639Y023092D02*
X038332Y023092D01*
X038332Y022862D01*
X038486Y022938D01*
X038563Y022938D01*
X038639Y022862D01*
X038639Y022708D01*
X038563Y022631D01*
X038409Y022631D01*
X038332Y022708D01*
X038179Y022708D02*
X038102Y022631D01*
X037949Y022631D01*
X037872Y022708D01*
X037872Y023015D01*
X037949Y023092D01*
X038102Y023092D01*
X038179Y023015D01*
X038243Y023008D02*
X038320Y022931D01*
X038473Y022931D01*
X038550Y023008D01*
X038550Y023162D01*
X038473Y023238D01*
X038397Y023238D01*
X038243Y023162D01*
X038243Y023392D01*
X038550Y023392D01*
X038090Y023315D02*
X038013Y023392D01*
X037860Y023392D01*
X037783Y023315D01*
X037783Y023008D01*
X037860Y022931D01*
X038013Y022931D01*
X038090Y023008D01*
X037719Y023092D02*
X037565Y023092D01*
X037642Y023092D02*
X037642Y022631D01*
X037565Y022631D02*
X037719Y022631D01*
X039182Y024001D02*
X039182Y024462D01*
X039412Y024462D01*
X039489Y024385D01*
X039489Y024232D01*
X039412Y024155D01*
X039182Y024155D01*
X039335Y024155D02*
X039489Y024001D01*
X039642Y024001D02*
X039949Y024308D01*
X039949Y024385D01*
X039872Y024462D01*
X039719Y024462D01*
X039642Y024385D01*
X039642Y024001D02*
X039949Y024001D01*
X040102Y024232D02*
X040409Y024232D01*
X040333Y024462D02*
X040102Y024232D01*
X040333Y024462D02*
X040333Y024001D01*
X042575Y022493D02*
X042575Y019690D01*
X043070Y019710D02*
X043070Y022513D01*
X044672Y023521D02*
X044672Y023752D01*
X044749Y023828D01*
X044903Y023828D01*
X044979Y023752D01*
X044979Y023521D01*
X045133Y023521D02*
X044672Y023521D01*
X044979Y023675D02*
X045133Y023828D01*
X045133Y023982D02*
X044826Y024289D01*
X044749Y024289D01*
X044672Y024212D01*
X044672Y024058D01*
X044749Y023982D01*
X045133Y023982D02*
X045133Y024289D01*
X045056Y024442D02*
X045133Y024519D01*
X045133Y024672D01*
X045056Y024749D01*
X044903Y024749D01*
X044826Y024672D01*
X044826Y024596D01*
X044903Y024442D01*
X044672Y024442D01*
X044672Y024749D01*
X043903Y025047D02*
X043903Y025167D01*
X043843Y025227D01*
X043543Y025227D01*
X043603Y025355D02*
X043543Y025415D01*
X043543Y025535D01*
X043603Y025595D01*
X043603Y025723D02*
X043663Y025723D01*
X043723Y025783D01*
X043723Y025963D01*
X043843Y025963D02*
X043603Y025963D01*
X043543Y025903D01*
X043543Y025783D01*
X043603Y025723D01*
X043783Y025595D02*
X043723Y025535D01*
X043723Y025415D01*
X043663Y025355D01*
X043603Y025355D01*
X043483Y025475D02*
X043963Y025475D01*
X043903Y025415D02*
X043903Y025535D01*
X043843Y025595D01*
X043783Y025595D01*
X043843Y025723D02*
X043903Y025783D01*
X043903Y025903D01*
X043843Y025963D01*
X043903Y025415D02*
X043843Y025355D01*
X043903Y025047D02*
X043843Y024986D01*
X043543Y024986D01*
X040659Y026975D02*
X040352Y026668D01*
X040352Y026591D01*
X040199Y026668D02*
X040199Y026745D01*
X040122Y026822D01*
X039969Y026822D01*
X039892Y026898D01*
X039892Y026975D01*
X039969Y027052D01*
X040122Y027052D01*
X040199Y026975D01*
X040352Y027052D02*
X040659Y027052D01*
X040659Y026975D01*
X040199Y026668D02*
X040122Y026591D01*
X039969Y026591D01*
X039892Y026668D01*
X039739Y026668D02*
X039739Y027052D01*
X039432Y027052D02*
X039432Y026668D01*
X039508Y026591D01*
X039662Y026591D01*
X039739Y026668D01*
X040045Y026515D02*
X040045Y027129D01*
X038883Y027159D02*
X038883Y026852D01*
X038883Y027006D02*
X038422Y027006D01*
X038576Y026852D01*
X038653Y026699D02*
X038653Y026392D01*
X038422Y026622D01*
X038883Y026622D01*
X038874Y026672D02*
X038950Y026595D01*
X038950Y026518D01*
X038874Y026442D01*
X038950Y026365D01*
X038950Y026288D01*
X038874Y026211D01*
X038720Y026211D01*
X038644Y026288D01*
X038499Y026238D02*
X038422Y026162D01*
X038422Y026008D01*
X038499Y025931D01*
X038806Y025931D01*
X038883Y026008D01*
X038883Y026162D01*
X038806Y026238D01*
X038797Y026442D02*
X038874Y026442D01*
X038874Y026672D02*
X038720Y026672D01*
X038644Y026595D01*
X038490Y026595D02*
X038413Y026672D01*
X038260Y026672D01*
X038183Y026595D01*
X038030Y026595D02*
X038030Y026442D01*
X037953Y026365D01*
X037723Y026365D01*
X037876Y026365D02*
X038030Y026211D01*
X038183Y026211D02*
X038490Y026518D01*
X038490Y026595D01*
X038490Y026211D02*
X038183Y026211D01*
X038030Y026595D02*
X037953Y026672D01*
X037723Y026672D01*
X037723Y026211D01*
X036013Y027128D02*
X036013Y027282D01*
X035936Y027358D01*
X036013Y027512D02*
X036013Y027819D01*
X036013Y027665D02*
X035552Y027665D01*
X035706Y027512D01*
X035629Y027358D02*
X035552Y027282D01*
X035552Y027128D01*
X035629Y027051D01*
X035936Y027051D01*
X036013Y027128D01*
X035936Y027972D02*
X036013Y028049D01*
X036013Y028202D01*
X035936Y028279D01*
X035783Y028279D01*
X035706Y028202D01*
X035706Y028126D01*
X035783Y027972D01*
X035552Y027972D01*
X035552Y028279D01*
X032523Y028272D02*
X032523Y028119D01*
X032446Y028042D01*
X032139Y028349D01*
X032446Y028349D01*
X032523Y028272D01*
X032446Y028042D02*
X032139Y028042D01*
X032062Y028119D01*
X032062Y028272D01*
X032139Y028349D01*
X032523Y027889D02*
X032523Y027582D01*
X032523Y027735D02*
X032062Y027735D01*
X032216Y027582D01*
X032139Y027428D02*
X032062Y027352D01*
X032062Y027198D01*
X032139Y027121D01*
X032446Y027121D01*
X032523Y027198D01*
X032523Y027352D01*
X032446Y027428D01*
X031559Y027122D02*
X031406Y027045D01*
X031252Y026892D01*
X031483Y026892D01*
X031559Y026815D01*
X031559Y026738D01*
X031483Y026661D01*
X031329Y026661D01*
X031252Y026738D01*
X031252Y026892D01*
X031099Y026815D02*
X031022Y026892D01*
X030869Y026892D01*
X030792Y026968D01*
X030792Y027045D01*
X030869Y027122D01*
X031022Y027122D01*
X031099Y027045D01*
X030945Y027199D02*
X030945Y026585D01*
X030869Y026661D02*
X031022Y026661D01*
X031099Y026738D01*
X031099Y026815D01*
X030869Y026661D02*
X030792Y026738D01*
X030639Y026738D02*
X030639Y027122D01*
X030332Y027122D02*
X030332Y026738D01*
X030408Y026661D01*
X030562Y026661D01*
X030639Y026738D01*
X027283Y027498D02*
X027283Y027652D01*
X027206Y027728D01*
X027283Y027882D02*
X027283Y028189D01*
X027283Y028342D02*
X027283Y028649D01*
X027283Y028496D02*
X026822Y028496D01*
X026976Y028342D01*
X026822Y028035D02*
X027283Y028035D01*
X026976Y027882D02*
X026822Y028035D01*
X026899Y027728D02*
X026822Y027652D01*
X026822Y027498D01*
X026899Y027421D01*
X027206Y027421D01*
X027283Y027498D01*
X022329Y027638D02*
X022253Y027561D01*
X022099Y027561D01*
X022022Y027638D01*
X021869Y027638D02*
X021792Y027561D01*
X021639Y027561D01*
X021562Y027638D01*
X021409Y027638D02*
X021332Y027561D01*
X021178Y027561D01*
X021102Y027638D01*
X021102Y027945D01*
X021178Y028022D01*
X021332Y028022D01*
X021409Y027945D01*
X021562Y027945D02*
X021639Y028022D01*
X021792Y028022D01*
X021869Y027945D01*
X021869Y027868D01*
X021792Y027792D01*
X021869Y027715D01*
X021869Y027638D01*
X021792Y027792D02*
X021715Y027792D01*
X022022Y027792D02*
X022176Y027868D01*
X022253Y027868D01*
X022329Y027792D01*
X022329Y027638D01*
X022022Y027792D02*
X022022Y028022D01*
X022329Y028022D01*
X026812Y024622D02*
X026889Y024699D01*
X026966Y024699D01*
X027043Y024622D01*
X027119Y024699D01*
X027196Y024699D01*
X027273Y024622D01*
X027273Y024469D01*
X027196Y024392D01*
X027273Y024239D02*
X027273Y023932D01*
X027273Y024085D02*
X026812Y024085D01*
X026966Y023932D01*
X026889Y023778D02*
X026812Y023702D01*
X026812Y023548D01*
X026889Y023471D01*
X027196Y023471D01*
X027273Y023548D01*
X027273Y023702D01*
X027196Y023778D01*
X026889Y024392D02*
X026812Y024469D01*
X026812Y024622D01*
X027043Y024622D02*
X027043Y024546D01*
X030322Y022882D02*
X030322Y022498D01*
X030398Y022421D01*
X030552Y022421D01*
X030629Y022498D01*
X030629Y022882D01*
X030782Y022805D02*
X030859Y022882D01*
X031012Y022882D01*
X031089Y022805D01*
X031242Y022805D02*
X031242Y022728D01*
X031319Y022652D01*
X031473Y022652D01*
X031549Y022575D01*
X031549Y022498D01*
X031473Y022421D01*
X031319Y022421D01*
X031242Y022498D01*
X031242Y022575D01*
X031319Y022652D01*
X031473Y022652D02*
X031549Y022728D01*
X031549Y022805D01*
X031473Y022882D01*
X031319Y022882D01*
X031242Y022805D01*
X031012Y022652D02*
X030859Y022652D01*
X030782Y022728D01*
X030782Y022805D01*
X030935Y022959D02*
X030935Y022345D01*
X030859Y022421D02*
X031012Y022421D01*
X031089Y022498D01*
X031089Y022575D01*
X031012Y022652D01*
X030782Y022498D02*
X030859Y022421D01*
X031613Y022358D02*
X031690Y022281D01*
X031843Y022281D01*
X031920Y022358D01*
X032073Y022281D02*
X032380Y022281D01*
X032227Y022281D02*
X032227Y022742D01*
X032073Y022588D01*
X031920Y022665D02*
X031843Y022742D01*
X031690Y022742D01*
X031613Y022665D01*
X031613Y022358D01*
X032534Y022358D02*
X032610Y022281D01*
X032764Y022281D01*
X032840Y022358D01*
X032840Y022435D01*
X032764Y022512D01*
X032534Y022512D01*
X032534Y022358D01*
X032534Y022512D02*
X032687Y022665D01*
X032840Y022742D01*
X032456Y023161D02*
X032533Y023238D01*
X032533Y023392D01*
X032456Y023468D01*
X032533Y023622D02*
X032533Y023929D01*
X032533Y024082D02*
X032226Y024389D01*
X032149Y024389D01*
X032072Y024312D01*
X032072Y024159D01*
X032149Y024082D01*
X032072Y023775D02*
X032533Y023775D01*
X032533Y024082D02*
X032533Y024389D01*
X032072Y023775D02*
X032226Y023622D01*
X032149Y023468D02*
X032072Y023392D01*
X032072Y023238D01*
X032149Y023161D01*
X032456Y023161D01*
X034972Y025208D02*
X035049Y025131D01*
X035356Y025131D01*
X035433Y025208D01*
X035433Y025362D01*
X035356Y025438D01*
X035433Y025592D02*
X035433Y025899D01*
X035433Y026052D02*
X035356Y026052D01*
X035049Y026359D01*
X034972Y026359D01*
X034972Y026052D01*
X034972Y025745D02*
X035433Y025745D01*
X035126Y025592D02*
X034972Y025745D01*
X035049Y025438D02*
X034972Y025362D01*
X034972Y025208D01*
X041482Y027598D02*
X041559Y027521D01*
X041866Y027521D01*
X041943Y027598D01*
X041943Y027752D01*
X041866Y027828D01*
X041943Y027982D02*
X041943Y028289D01*
X041943Y028135D02*
X041482Y028135D01*
X041636Y027982D01*
X041559Y027828D02*
X041482Y027752D01*
X041482Y027598D01*
X041713Y028442D02*
X041713Y028749D01*
X041943Y028672D02*
X041482Y028672D01*
X041713Y028442D01*
X045213Y027335D02*
X045213Y027028D01*
X045290Y026951D01*
X045443Y026951D01*
X045520Y027028D01*
X045673Y027182D02*
X045980Y027182D01*
X046134Y027335D02*
X046210Y027412D01*
X046364Y027412D01*
X046440Y027335D01*
X046134Y027028D01*
X046210Y026951D01*
X046364Y026951D01*
X046440Y027028D01*
X046440Y027335D01*
X046134Y027335D02*
X046134Y027028D01*
X045903Y026951D02*
X045903Y027412D01*
X045673Y027182D01*
X045520Y027335D02*
X045443Y027412D01*
X045290Y027412D01*
X045213Y027335D01*
X050432Y026432D02*
X050509Y026509D01*
X050816Y026202D01*
X050893Y026279D01*
X050893Y026432D01*
X050816Y026509D01*
X050509Y026509D01*
X050432Y026432D02*
X050432Y026279D01*
X050509Y026202D01*
X050816Y026202D01*
X050769Y026151D02*
X050692Y026227D01*
X050692Y026381D01*
X050769Y026458D01*
X050846Y026458D01*
X050923Y026381D01*
X050999Y026458D01*
X051076Y026458D01*
X051153Y026381D01*
X051153Y026227D01*
X051076Y026151D01*
X051153Y025997D02*
X050999Y025844D01*
X050999Y025920D02*
X050999Y025690D01*
X050893Y025588D02*
X050739Y025435D01*
X050739Y025512D02*
X050739Y025281D01*
X050893Y025281D02*
X050432Y025281D01*
X050432Y025512D01*
X050509Y025588D01*
X050663Y025588D01*
X050739Y025512D01*
X050692Y025690D02*
X051153Y025690D01*
X050999Y025920D02*
X050923Y025997D01*
X050769Y025997D01*
X050692Y025920D01*
X050692Y025690D01*
X050663Y025742D02*
X050663Y026049D01*
X050893Y025972D02*
X050432Y025972D01*
X050663Y025742D01*
X050923Y026304D02*
X050923Y026381D01*
X050846Y026611D02*
X050923Y026688D01*
X050923Y026918D01*
X051076Y026918D02*
X050769Y026918D01*
X050692Y026841D01*
X050692Y026688D01*
X050769Y026611D01*
X050846Y026611D01*
X051076Y026611D02*
X051153Y026688D01*
X051153Y026841D01*
X051076Y026918D01*
X051103Y024878D02*
X051103Y024571D01*
X051103Y024724D02*
X050642Y024724D01*
X050796Y024571D01*
X050873Y024418D02*
X051026Y024418D01*
X051103Y024341D01*
X051103Y024187D01*
X051026Y024111D01*
X050873Y024111D02*
X050796Y024264D01*
X050796Y024341D01*
X050873Y024418D01*
X050642Y024418D02*
X050642Y024111D01*
X050873Y024111D01*
X051026Y023957D02*
X051103Y023880D01*
X051103Y023727D01*
X051026Y023650D01*
X050719Y023650D01*
X050642Y023727D01*
X050642Y023880D01*
X050719Y023957D01*
X051203Y023372D02*
X051433Y023372D01*
X051510Y023295D01*
X051510Y023142D01*
X051433Y023065D01*
X051203Y023065D01*
X051262Y022962D02*
X051569Y022962D01*
X051569Y022885D01*
X051262Y022578D01*
X051262Y022501D01*
X051193Y022462D02*
X051423Y022462D01*
X051500Y022385D01*
X051500Y022232D01*
X051423Y022155D01*
X051193Y022155D01*
X051346Y022155D02*
X051500Y022001D01*
X051653Y022001D02*
X051960Y022001D01*
X051807Y022001D02*
X051807Y022462D01*
X051653Y022308D01*
X052114Y022308D02*
X052190Y022232D01*
X052420Y022232D01*
X052420Y022385D02*
X052420Y022078D01*
X052344Y022001D01*
X052190Y022001D01*
X052114Y022078D01*
X052114Y022308D02*
X052114Y022385D01*
X052190Y022462D01*
X052344Y022462D01*
X052420Y022385D01*
X052354Y022911D02*
X052200Y022911D01*
X052124Y022988D01*
X052124Y023065D01*
X052200Y023142D01*
X052354Y023142D01*
X052430Y023065D01*
X052430Y022988D01*
X052354Y022911D01*
X052354Y023142D02*
X052430Y023218D01*
X052430Y023295D01*
X052354Y023372D01*
X052200Y023372D01*
X052124Y023295D01*
X052124Y023218D01*
X052200Y023142D01*
X051970Y022911D02*
X051663Y022911D01*
X051510Y022911D02*
X051356Y023065D01*
X051203Y022911D02*
X051203Y023372D01*
X051032Y022962D02*
X051109Y022885D01*
X051109Y022808D01*
X051032Y022732D01*
X051109Y022655D01*
X051109Y022578D01*
X051032Y022501D01*
X050879Y022501D01*
X050802Y022578D01*
X050649Y022501D02*
X050495Y022655D01*
X050572Y022655D02*
X050342Y022655D01*
X050342Y022501D02*
X050342Y022962D01*
X050572Y022962D01*
X050649Y022885D01*
X050649Y022732D01*
X050572Y022655D01*
X050802Y022885D02*
X050879Y022962D01*
X051032Y022962D01*
X051032Y022732D02*
X050955Y022732D01*
X051193Y022462D02*
X051193Y022001D01*
X051153Y021552D02*
X051383Y021552D01*
X051460Y021475D01*
X051460Y021322D01*
X051383Y021245D01*
X051153Y021245D01*
X051306Y021245D02*
X051460Y021091D01*
X051613Y021091D02*
X051920Y021398D01*
X051920Y021475D01*
X051843Y021552D01*
X051690Y021552D01*
X051613Y021475D01*
X051613Y021091D02*
X051920Y021091D01*
X052074Y021168D02*
X052380Y021475D01*
X052380Y021168D01*
X052304Y021091D01*
X052150Y021091D01*
X052074Y021168D01*
X052074Y021475D01*
X052150Y021552D01*
X052304Y021552D01*
X052380Y021475D01*
X051153Y021552D02*
X051153Y021091D01*
X051143Y020672D02*
X051373Y020672D01*
X051450Y020595D01*
X051450Y020442D01*
X051373Y020365D01*
X051143Y020365D01*
X051296Y020365D02*
X051450Y020211D01*
X051603Y020211D02*
X051910Y020518D01*
X051910Y020595D01*
X051833Y020672D01*
X051680Y020672D01*
X051603Y020595D01*
X051603Y020211D02*
X051910Y020211D01*
X052064Y020211D02*
X052370Y020211D01*
X052217Y020211D02*
X052217Y020672D01*
X052064Y020518D01*
X052140Y019762D02*
X052064Y019685D01*
X052140Y019762D02*
X052294Y019762D01*
X052370Y019685D01*
X052370Y019608D01*
X052064Y019301D01*
X052370Y019301D01*
X052380Y018862D02*
X052227Y018785D01*
X052074Y018632D01*
X052304Y018632D01*
X052380Y018555D01*
X052380Y018478D01*
X052304Y018401D01*
X052150Y018401D01*
X052074Y018478D01*
X052074Y018632D01*
X051920Y018708D02*
X051613Y018401D01*
X051920Y018401D01*
X051920Y018708D02*
X051920Y018785D01*
X051843Y018862D01*
X051690Y018862D01*
X051613Y018785D01*
X051460Y018785D02*
X051460Y018632D01*
X051383Y018555D01*
X051153Y018555D01*
X051306Y018555D02*
X051460Y018401D01*
X051153Y018401D02*
X051153Y018862D01*
X051383Y018862D01*
X051460Y018785D01*
X051450Y019301D02*
X051296Y019455D01*
X051373Y019455D02*
X051143Y019455D01*
X051143Y019301D02*
X051143Y019762D01*
X051373Y019762D01*
X051450Y019685D01*
X051450Y019532D01*
X051373Y019455D01*
X051603Y019301D02*
X051910Y019608D01*
X051910Y019685D01*
X051833Y019762D01*
X051680Y019762D01*
X051603Y019685D01*
X051603Y019301D02*
X051910Y019301D01*
X051143Y020211D02*
X051143Y020672D01*
X051817Y022911D02*
X051817Y023372D01*
X051663Y023218D01*
X054392Y023075D02*
X054853Y023075D01*
X054853Y023228D02*
X054853Y022921D01*
X054546Y022921D02*
X054392Y023075D01*
X054623Y023382D02*
X054623Y023612D01*
X054699Y023688D01*
X054776Y023688D01*
X054853Y023612D01*
X054853Y023458D01*
X054776Y023382D01*
X054623Y023382D01*
X054469Y023535D01*
X054392Y023688D01*
X055392Y023338D02*
X055546Y023185D01*
X055546Y023031D02*
X055623Y022955D01*
X055699Y023031D01*
X055776Y023031D01*
X055853Y022955D01*
X055853Y022801D01*
X055776Y022724D01*
X055623Y022878D02*
X055623Y022955D01*
X055546Y023031D02*
X055469Y023031D01*
X055392Y022955D01*
X055392Y022801D01*
X055469Y022724D01*
X055853Y023185D02*
X055853Y023492D01*
X055853Y023338D02*
X055392Y023338D01*
X046095Y022263D02*
X045635Y022263D01*
X045865Y022033D01*
X045865Y022340D01*
X045515Y022513D02*
X045515Y019710D01*
X046985Y018539D02*
X046985Y017925D01*
X046908Y018001D02*
X047062Y018001D01*
X047139Y018078D01*
X047139Y018155D01*
X047062Y018232D01*
X046908Y018232D01*
X046832Y018308D01*
X046832Y018385D01*
X046908Y018462D01*
X047062Y018462D01*
X047139Y018385D01*
X047292Y018308D02*
X047445Y018462D01*
X047445Y018001D01*
X047292Y018001D02*
X047599Y018001D01*
X047752Y018001D02*
X047752Y018078D01*
X048059Y018385D01*
X048059Y018462D01*
X047752Y018462D01*
X046908Y018001D02*
X046832Y018078D01*
X046678Y018078D02*
X046678Y018462D01*
X046371Y018462D02*
X046371Y018078D01*
X046448Y018001D01*
X046601Y018001D01*
X046678Y018078D01*
X051173Y017972D02*
X051173Y017511D01*
X051173Y017665D02*
X051403Y017665D01*
X051480Y017742D01*
X051480Y017895D01*
X051403Y017972D01*
X051173Y017972D01*
X051326Y017665D02*
X051480Y017511D01*
X051633Y017511D02*
X051940Y017818D01*
X051940Y017895D01*
X051863Y017972D01*
X051710Y017972D01*
X051633Y017895D01*
X052094Y017972D02*
X052400Y017972D01*
X052400Y017895D01*
X052094Y017588D01*
X052094Y017511D01*
X051940Y017511D02*
X051633Y017511D01*
X051720Y017062D02*
X051643Y016985D01*
X051720Y017062D02*
X051873Y017062D01*
X051950Y016985D01*
X051950Y016908D01*
X051643Y016601D01*
X051950Y016601D01*
X052104Y016678D02*
X052104Y016755D01*
X052180Y016832D01*
X052334Y016832D01*
X052410Y016755D01*
X052410Y016678D01*
X052334Y016601D01*
X052180Y016601D01*
X052104Y016678D01*
X052180Y016832D02*
X052104Y016908D01*
X052104Y016985D01*
X052180Y017062D01*
X052334Y017062D01*
X052410Y016985D01*
X052410Y016908D01*
X052334Y016832D01*
X051490Y016832D02*
X051490Y016985D01*
X051413Y017062D01*
X051183Y017062D01*
X051183Y016601D01*
X051183Y016755D02*
X051413Y016755D01*
X051490Y016832D01*
X051336Y016755D02*
X051490Y016601D01*
X051413Y016152D02*
X051183Y016152D01*
X051183Y015691D01*
X051183Y015845D02*
X051413Y015845D01*
X051490Y015922D01*
X051490Y016075D01*
X051413Y016152D01*
X051643Y016075D02*
X051720Y016152D01*
X051873Y016152D01*
X051950Y016075D01*
X051950Y015998D01*
X051643Y015691D01*
X051950Y015691D01*
X052104Y015768D02*
X052180Y015691D01*
X052334Y015691D01*
X052410Y015768D01*
X052410Y016075D01*
X052334Y016152D01*
X052180Y016152D01*
X052104Y016075D01*
X052104Y015998D01*
X052180Y015922D01*
X052410Y015922D01*
X051490Y015691D02*
X051336Y015845D01*
X051413Y015252D02*
X051183Y015252D01*
X051183Y014791D01*
X051183Y014945D02*
X051413Y014945D01*
X051490Y015022D01*
X051490Y015175D01*
X051413Y015252D01*
X051643Y015175D02*
X051720Y015252D01*
X051873Y015252D01*
X051950Y015175D01*
X051950Y015098D01*
X051873Y015022D01*
X051950Y014945D01*
X051950Y014868D01*
X051873Y014791D01*
X051720Y014791D01*
X051643Y014868D01*
X051490Y014791D02*
X051336Y014945D01*
X051797Y015022D02*
X051873Y015022D01*
X052104Y014868D02*
X052104Y015175D01*
X052180Y015252D01*
X052334Y015252D01*
X052410Y015175D01*
X052104Y014868D01*
X052180Y014791D01*
X052334Y014791D01*
X052410Y014868D01*
X052410Y015175D01*
X052257Y014342D02*
X052257Y013881D01*
X052104Y013881D02*
X052410Y013881D01*
X052354Y013452D02*
X052200Y013452D01*
X052124Y013375D01*
X051970Y013375D02*
X051970Y013298D01*
X051893Y013222D01*
X051970Y013145D01*
X051970Y013068D01*
X051893Y012991D01*
X051740Y012991D01*
X051663Y013068D01*
X051510Y012991D02*
X051356Y013145D01*
X051433Y013145D02*
X051203Y013145D01*
X051203Y012991D02*
X051203Y013452D01*
X051433Y013452D01*
X051510Y013375D01*
X051510Y013222D01*
X051433Y013145D01*
X051663Y013375D02*
X051740Y013452D01*
X051893Y013452D01*
X051970Y013375D01*
X051893Y013222D02*
X051817Y013222D01*
X052124Y012991D02*
X052430Y013298D01*
X052430Y013375D01*
X052354Y013452D01*
X051873Y013881D02*
X051720Y013881D01*
X051643Y013958D01*
X051490Y013881D02*
X051336Y014035D01*
X051413Y014035D02*
X051183Y014035D01*
X051183Y013881D02*
X051183Y014342D01*
X051413Y014342D01*
X051490Y014265D01*
X051490Y014112D01*
X051413Y014035D01*
X051643Y014265D02*
X051720Y014342D01*
X051873Y014342D01*
X051950Y014265D01*
X051950Y014188D01*
X051873Y014112D01*
X051950Y014035D01*
X051950Y013958D01*
X051873Y013881D01*
X051873Y014112D02*
X051797Y014112D01*
X052104Y014188D02*
X052257Y014342D01*
X052124Y012991D02*
X052430Y012991D01*
X052344Y012552D02*
X052420Y012475D01*
X052420Y012398D01*
X052344Y012322D01*
X052420Y012245D01*
X052420Y012168D01*
X052344Y012091D01*
X052190Y012091D01*
X052114Y012168D01*
X051960Y012168D02*
X051883Y012091D01*
X051730Y012091D01*
X051653Y012168D01*
X051500Y012091D02*
X051346Y012245D01*
X051423Y012245D02*
X051193Y012245D01*
X051193Y012091D02*
X051193Y012552D01*
X051423Y012552D01*
X051500Y012475D01*
X051500Y012322D01*
X051423Y012245D01*
X051653Y012475D02*
X051730Y012552D01*
X051883Y012552D01*
X051960Y012475D01*
X051960Y012398D01*
X051883Y012322D01*
X051960Y012245D01*
X051960Y012168D01*
X051883Y012322D02*
X051807Y012322D01*
X052114Y012475D02*
X052190Y012552D01*
X052344Y012552D01*
X052344Y012322D02*
X052267Y012322D01*
X052384Y011652D02*
X052154Y011422D01*
X052460Y011422D01*
X052384Y011652D02*
X052384Y011191D01*
X052000Y011268D02*
X051923Y011191D01*
X051770Y011191D01*
X051693Y011268D01*
X051540Y011191D02*
X051386Y011345D01*
X051463Y011345D02*
X051233Y011345D01*
X051233Y011191D02*
X051233Y011652D01*
X051463Y011652D01*
X051540Y011575D01*
X051540Y011422D01*
X051463Y011345D01*
X051693Y011575D02*
X051770Y011652D01*
X051923Y011652D01*
X052000Y011575D01*
X052000Y011498D01*
X051923Y011422D01*
X052000Y011345D01*
X052000Y011268D01*
X051923Y011422D02*
X051847Y011422D01*
X051923Y010762D02*
X052000Y010685D01*
X052000Y010608D01*
X051923Y010532D01*
X052000Y010455D01*
X052000Y010378D01*
X051923Y010301D01*
X051770Y010301D01*
X051693Y010378D01*
X051540Y010301D02*
X051386Y010455D01*
X051463Y010455D02*
X051233Y010455D01*
X051233Y010301D02*
X051233Y010762D01*
X051463Y010762D01*
X051540Y010685D01*
X051540Y010532D01*
X051463Y010455D01*
X051693Y010685D02*
X051770Y010762D01*
X051923Y010762D01*
X051923Y010532D02*
X051847Y010532D01*
X052154Y010532D02*
X052307Y010608D01*
X052384Y010608D01*
X052460Y010532D01*
X052460Y010378D01*
X052384Y010301D01*
X052230Y010301D01*
X052154Y010378D01*
X052154Y010532D02*
X052154Y010762D01*
X052460Y010762D01*
X052470Y009882D02*
X052317Y009805D01*
X052164Y009652D01*
X052394Y009652D01*
X052470Y009575D01*
X052470Y009498D01*
X052394Y009421D01*
X052240Y009421D01*
X052164Y009498D01*
X052164Y009652D01*
X052010Y009728D02*
X051933Y009652D01*
X052010Y009575D01*
X052010Y009498D01*
X051933Y009421D01*
X051780Y009421D01*
X051703Y009498D01*
X051550Y009421D02*
X051396Y009575D01*
X051473Y009575D02*
X051243Y009575D01*
X051243Y009421D02*
X051243Y009882D01*
X051473Y009882D01*
X051550Y009805D01*
X051550Y009652D01*
X051473Y009575D01*
X051703Y009805D02*
X051780Y009882D01*
X051933Y009882D01*
X052010Y009805D01*
X052010Y009728D01*
X051933Y009652D02*
X051857Y009652D01*
X047939Y010098D02*
X047939Y010405D01*
X047863Y010482D01*
X047709Y010482D01*
X047632Y010405D01*
X047632Y010328D01*
X047709Y010252D01*
X047939Y010252D01*
X047939Y010098D02*
X047863Y010021D01*
X047709Y010021D01*
X047632Y010098D01*
X047479Y010021D02*
X047172Y010021D01*
X047325Y010021D02*
X047325Y010482D01*
X047172Y010328D01*
X047019Y010405D02*
X046942Y010482D01*
X046788Y010482D01*
X046712Y010405D01*
X046712Y010328D01*
X046788Y010252D01*
X046942Y010252D01*
X047019Y010175D01*
X047019Y010098D01*
X046942Y010021D01*
X046788Y010021D01*
X046712Y010098D01*
X046558Y010098D02*
X046558Y010482D01*
X046251Y010482D02*
X046251Y010098D01*
X046328Y010021D01*
X046481Y010021D01*
X046558Y010098D01*
X046865Y009945D02*
X046865Y010559D01*
X046985Y014535D02*
X046985Y015149D01*
X046908Y015072D02*
X047062Y015072D01*
X047139Y014995D01*
X047292Y014918D02*
X047445Y015072D01*
X047445Y014611D01*
X047292Y014611D02*
X047599Y014611D01*
X047752Y014688D02*
X047752Y014765D01*
X047829Y014842D01*
X047983Y014842D01*
X048059Y014765D01*
X048059Y014688D01*
X047983Y014611D01*
X047829Y014611D01*
X047752Y014688D01*
X047829Y014842D02*
X047752Y014918D01*
X047752Y014995D01*
X047829Y015072D01*
X047983Y015072D01*
X048059Y014995D01*
X048059Y014918D01*
X047983Y014842D01*
X047139Y014765D02*
X047062Y014842D01*
X046908Y014842D01*
X046832Y014918D01*
X046832Y014995D01*
X046908Y015072D01*
X046678Y015072D02*
X046678Y014688D01*
X046601Y014611D01*
X046448Y014611D01*
X046371Y014688D01*
X046371Y015072D01*
X046832Y014688D02*
X046908Y014611D01*
X047062Y014611D01*
X047139Y014688D01*
X047139Y014765D01*
X035850Y008822D02*
X035544Y008822D01*
X035544Y008592D01*
X035697Y008668D01*
X035774Y008668D01*
X035850Y008592D01*
X035850Y008438D01*
X035774Y008361D01*
X035620Y008361D01*
X035544Y008438D01*
X035390Y008438D02*
X035390Y008515D01*
X035313Y008592D01*
X035160Y008592D01*
X035083Y008668D01*
X035083Y008745D01*
X035160Y008822D01*
X035313Y008822D01*
X035390Y008745D01*
X035237Y008899D02*
X035237Y008285D01*
X035313Y008361D02*
X035160Y008361D01*
X035083Y008438D01*
X034930Y008438D02*
X034930Y008822D01*
X034623Y008822D02*
X034623Y008438D01*
X034700Y008361D01*
X034853Y008361D01*
X034930Y008438D01*
X035313Y008361D02*
X035390Y008438D01*
X032554Y020051D02*
X032554Y020128D01*
X032860Y020435D01*
X032860Y020512D01*
X032554Y020512D01*
X032323Y020512D02*
X032093Y020282D01*
X032400Y020282D01*
X032323Y020512D02*
X032323Y020051D01*
X031940Y020128D02*
X031863Y020051D01*
X031710Y020051D01*
X031633Y020128D01*
X031633Y020435D01*
X031710Y020512D01*
X031863Y020512D01*
X031940Y020435D01*
X045635Y021572D02*
X045635Y021803D01*
X045712Y021879D01*
X046019Y021879D01*
X046095Y021803D01*
X046095Y021572D01*
X045635Y021572D01*
X014443Y028168D02*
X014443Y028322D01*
X014366Y028398D01*
X014443Y028552D02*
X014136Y028859D01*
X014059Y028859D01*
X013982Y028782D01*
X013982Y028628D01*
X014059Y028552D01*
X014059Y028398D02*
X013982Y028322D01*
X013982Y028168D01*
X014059Y028091D01*
X014366Y028091D01*
X014443Y028168D01*
X014443Y028552D02*
X014443Y028859D01*
X014443Y029012D02*
X014366Y029012D01*
X014059Y029319D01*
X013982Y029319D01*
X013982Y029012D01*
X013470Y028901D02*
X013163Y028901D01*
X013470Y029208D01*
X013470Y029285D01*
X013393Y029362D01*
X013240Y029362D01*
X013163Y029285D01*
X013010Y029285D02*
X013010Y029132D01*
X012933Y029055D01*
X012703Y029055D01*
X012856Y029055D02*
X013010Y028901D01*
X012703Y028901D02*
X012703Y029362D01*
X012933Y029362D01*
X013010Y029285D01*
X012659Y026492D02*
X012352Y026492D01*
X012352Y026262D01*
X012506Y026338D01*
X012583Y026338D01*
X012659Y026262D01*
X012659Y026108D01*
X012583Y026031D01*
X012429Y026031D01*
X012352Y026108D01*
X012199Y026031D02*
X011892Y026031D01*
X012199Y026338D01*
X012199Y026415D01*
X012122Y026492D01*
X011969Y026492D01*
X011892Y026415D01*
X011739Y026415D02*
X011662Y026492D01*
X011508Y026492D01*
X011432Y026415D01*
X011432Y026108D01*
X011508Y026031D01*
X011662Y026031D01*
X011739Y026108D01*
X010240Y025824D02*
X009626Y025824D01*
X009702Y025747D02*
X009702Y025901D01*
X009779Y025978D01*
X009933Y025901D02*
X009933Y025747D01*
X009856Y025671D01*
X009779Y025671D01*
X009702Y025747D01*
X009702Y025517D02*
X010086Y025517D01*
X010163Y025440D01*
X010163Y025287D01*
X010086Y025210D01*
X009702Y025210D01*
X010086Y025671D02*
X010163Y025747D01*
X010163Y025901D01*
X010086Y025978D01*
X010009Y025978D01*
X009933Y025901D01*
X009933Y026131D02*
X009702Y026361D01*
X010163Y026361D01*
X009933Y026438D02*
X009933Y026131D01*
X009697Y018012D02*
X009697Y017551D01*
X009850Y017551D02*
X009543Y017551D01*
X009390Y017551D02*
X009236Y017705D01*
X009313Y017705D02*
X009083Y017705D01*
X009083Y017551D02*
X009083Y018012D01*
X009313Y018012D01*
X009390Y017935D01*
X009390Y017782D01*
X009313Y017705D01*
X009543Y017858D02*
X009697Y018012D01*
X010004Y017782D02*
X010310Y017782D01*
X010234Y018012D02*
X010004Y017782D01*
X010234Y017551D02*
X010234Y018012D01*
X009589Y015782D02*
X009282Y015782D01*
X009282Y015552D01*
X009436Y015628D01*
X009513Y015628D01*
X009589Y015552D01*
X009589Y015398D01*
X009513Y015321D01*
X009359Y015321D01*
X009282Y015398D01*
X009129Y015552D02*
X008822Y015552D01*
X009052Y015782D01*
X009052Y015321D01*
X008669Y015398D02*
X008592Y015321D01*
X008438Y015321D01*
X008362Y015398D01*
X008362Y015705D01*
X008438Y015782D01*
X008592Y015782D01*
X008669Y015705D01*
D15*
X007843Y017076D02*
X007768Y017076D01*
X007693Y017151D01*
X007693Y017302D01*
X007768Y017377D01*
X007843Y017377D01*
X007918Y017302D01*
X007918Y017151D01*
X007843Y017076D01*
X007693Y017151D02*
X007618Y017076D01*
X007543Y017076D01*
X007467Y017151D01*
X007467Y017302D01*
X007543Y017377D01*
X007618Y017377D01*
X007693Y017302D01*
X006918Y017377D02*
X006918Y017076D01*
X006918Y017227D02*
X006467Y017227D01*
X006618Y017076D01*
X006693Y017537D02*
X006618Y017687D01*
X006618Y017762D01*
X006693Y017837D01*
X006843Y017837D01*
X006918Y017762D01*
X006918Y017612D01*
X006843Y017537D01*
X006693Y017537D02*
X006467Y017537D01*
X006467Y017837D01*
X005983Y019726D02*
X005983Y020177D01*
X005757Y019952D01*
X006058Y019952D01*
X005597Y019952D02*
X005597Y019801D01*
X005522Y019726D01*
X005372Y019726D01*
X005297Y019801D01*
X005297Y019952D02*
X005447Y020027D01*
X005522Y020027D01*
X005597Y019952D01*
X005597Y020177D02*
X005297Y020177D01*
X005297Y019952D01*
X005140Y019801D02*
X005065Y019801D01*
X005065Y019726D01*
X005140Y019726D01*
X005140Y019801D01*
X005140Y019726D02*
X004990Y019576D01*
X004830Y019726D02*
X004530Y019726D01*
X004830Y020027D01*
X004830Y020102D01*
X004755Y020177D01*
X004605Y020177D01*
X004530Y020102D01*
X014218Y019142D02*
X014218Y018841D01*
X014293Y018766D01*
X014443Y018766D01*
X014518Y018841D01*
X014518Y019142D01*
X014443Y019217D01*
X014293Y019217D01*
X014218Y019142D01*
X014368Y018917D02*
X014518Y018766D01*
X014678Y018766D02*
X014978Y018766D01*
X014828Y018766D02*
X014828Y019217D01*
X014678Y019067D01*
X025417Y017696D02*
X025868Y017696D01*
X025868Y017546D02*
X025868Y017846D01*
X025568Y017546D02*
X025417Y017696D01*
X025493Y017386D02*
X025643Y017386D01*
X025718Y017311D01*
X025718Y017086D01*
X025868Y017086D02*
X025417Y017086D01*
X025417Y017311D01*
X025493Y017386D01*
X025417Y016926D02*
X025417Y016775D01*
X025417Y016850D02*
X025793Y016850D01*
X025868Y016775D01*
X025868Y016700D01*
X025793Y016625D01*
X036758Y017436D02*
X036908Y017436D01*
X036833Y017436D02*
X036833Y017887D01*
X036758Y017887D02*
X036908Y017887D01*
X037065Y017812D02*
X037065Y017511D01*
X037140Y017436D01*
X037290Y017436D01*
X037365Y017511D01*
X037525Y017436D02*
X037825Y017436D01*
X037675Y017436D02*
X037675Y017887D01*
X037525Y017737D01*
X037365Y017812D02*
X037290Y017887D01*
X037140Y017887D01*
X037065Y017812D01*
X053397Y022771D02*
X053548Y022621D01*
X053397Y022771D02*
X053848Y022771D01*
X053848Y022621D02*
X053848Y022922D01*
X057997Y023151D02*
X058223Y022926D01*
X058223Y023226D01*
X058448Y023151D02*
X057997Y023151D01*
X058223Y022766D02*
X058223Y022466D01*
X057997Y022691D01*
X058448Y022691D01*
X058223Y022155D02*
X058223Y022005D01*
X058448Y022005D02*
X057997Y022005D01*
X057997Y022306D01*
X057101Y006193D02*
X056875Y005967D01*
X057176Y005967D01*
X057101Y005742D02*
X057101Y006193D01*
X056715Y006193D02*
X056415Y006193D01*
X056415Y005967D01*
X056565Y006042D01*
X056640Y006042D01*
X056715Y005967D01*
X056715Y005817D01*
X056640Y005742D01*
X056490Y005742D01*
X056415Y005817D01*
X056258Y005817D02*
X056183Y005817D01*
X056183Y005742D01*
X056258Y005742D01*
X056258Y005817D01*
X056258Y005742D02*
X056108Y005592D01*
X055948Y005742D02*
X055648Y005742D01*
X055948Y006042D01*
X055948Y006117D01*
X055873Y006193D01*
X055723Y006193D01*
X055648Y006117D01*
X020348Y024996D02*
X020348Y025147D01*
X020348Y025071D02*
X019897Y025071D01*
X019897Y024996D02*
X019897Y025147D01*
X019973Y025303D02*
X020273Y025303D01*
X020348Y025378D01*
X020348Y025528D01*
X020273Y025604D01*
X020348Y025764D02*
X020048Y026064D01*
X019973Y026064D01*
X019897Y025989D01*
X019897Y025839D01*
X019973Y025764D01*
X019973Y025604D02*
X019897Y025528D01*
X019897Y025378D01*
X019973Y025303D01*
X020348Y025764D02*
X020348Y026064D01*
X018138Y025397D02*
X018138Y024946D01*
X017988Y024946D02*
X018288Y024946D01*
X017988Y025247D02*
X018138Y025397D01*
X017828Y025397D02*
X017528Y025397D01*
X017678Y025397D02*
X017678Y024946D01*
X003743Y009297D02*
X003593Y009297D01*
X003518Y009222D01*
X003518Y009147D01*
X003593Y008997D01*
X003367Y008997D01*
X003367Y009297D01*
X003743Y009297D02*
X003818Y009222D01*
X003818Y009072D01*
X003743Y008997D01*
X003818Y008837D02*
X003818Y008537D01*
X003818Y008687D02*
X003367Y008687D01*
X003518Y008537D01*
X003367Y008377D02*
X003367Y008076D01*
X003818Y008076D01*
X003593Y008076D02*
X003593Y008227D01*
X006467Y008302D02*
X006467Y008151D01*
X006543Y008076D01*
X006618Y008076D01*
X006693Y008151D01*
X006693Y008377D01*
X006843Y008377D02*
X006543Y008377D01*
X006467Y008302D01*
X006843Y008377D02*
X006918Y008302D01*
X006918Y008151D01*
X006843Y008076D01*
X007467Y008227D02*
X007918Y008227D01*
X007918Y008377D02*
X007918Y008076D01*
X007618Y008076D02*
X007467Y008227D01*
D16*
X007283Y022431D02*
X007264Y022434D01*
X007265Y022433D02*
X007269Y022482D01*
X007271Y022530D01*
X007269Y022578D01*
X007265Y022627D01*
X007283Y022629D01*
X007288Y022580D01*
X007290Y022530D01*
X007288Y022480D01*
X007283Y022431D01*
X007282Y022431D01*
X007287Y022480D01*
X007289Y022530D01*
X007287Y022580D01*
X007282Y022629D01*
X007281Y022629D01*
X007286Y022580D01*
X007288Y022530D01*
X007286Y022480D01*
X007281Y022431D01*
X007280Y022431D01*
X007285Y022480D01*
X007287Y022530D01*
X007285Y022580D01*
X007280Y022629D01*
X007279Y022629D01*
X007284Y022579D01*
X007286Y022530D01*
X007284Y022481D01*
X007279Y022431D01*
X007278Y022431D01*
X007283Y022481D01*
X007285Y022530D01*
X007283Y022579D01*
X007278Y022629D01*
X007277Y022628D01*
X007282Y022579D01*
X007284Y022530D01*
X007282Y022481D01*
X007277Y022432D01*
X007281Y022481D01*
X007283Y022530D01*
X007281Y022579D01*
X007277Y022628D01*
X007276Y022628D01*
X007280Y022579D01*
X007282Y022530D01*
X007280Y022481D01*
X007276Y022432D01*
X007275Y022432D01*
X007279Y022481D01*
X007281Y022530D01*
X007279Y022579D01*
X007275Y022628D01*
X007274Y022628D01*
X007278Y022579D01*
X007280Y022530D01*
X007278Y022481D01*
X007274Y022432D01*
X007273Y022432D01*
X007277Y022481D01*
X007279Y022530D01*
X007277Y022579D01*
X007273Y022628D01*
X007272Y022628D01*
X007276Y022579D01*
X007278Y022530D01*
X007276Y022481D01*
X007272Y022432D01*
X007271Y022432D01*
X007275Y022481D01*
X007277Y022530D01*
X007275Y022579D01*
X007271Y022628D01*
X007270Y022627D01*
X007274Y022579D01*
X007276Y022530D01*
X007274Y022481D01*
X007270Y022433D01*
X007269Y022433D01*
X007273Y022481D01*
X007275Y022530D01*
X007273Y022579D01*
X007269Y022627D01*
X007268Y022627D01*
X007272Y022579D01*
X007274Y022530D01*
X007272Y022481D01*
X007268Y022433D01*
X007267Y022433D01*
X007271Y022481D01*
X007273Y022530D01*
X007271Y022579D01*
X007267Y022627D01*
X007266Y022627D01*
X007270Y022579D01*
X007272Y022530D01*
X007270Y022481D01*
X007266Y022433D01*
X007283Y022629D02*
X007264Y022629D01*
X007265Y022629D02*
X007263Y022656D01*
X007257Y022682D01*
X007248Y022707D01*
X007235Y022731D01*
X007219Y022752D01*
X007200Y022771D01*
X007178Y022787D01*
X007155Y022800D01*
X007130Y022809D01*
X007104Y022815D01*
X007077Y022817D01*
X007050Y022815D01*
X007024Y022809D01*
X006999Y022800D01*
X006976Y022787D01*
X006954Y022771D01*
X006935Y022752D01*
X006919Y022731D01*
X006906Y022707D01*
X006897Y022682D01*
X006891Y022656D01*
X006889Y022629D01*
X006871Y022629D01*
X006870Y022629D01*
X006872Y022658D01*
X006878Y022685D01*
X006887Y022712D01*
X006900Y022737D01*
X006917Y022760D01*
X006936Y022780D01*
X006958Y022798D01*
X006982Y022813D01*
X007008Y022824D01*
X007035Y022832D01*
X007063Y022836D01*
X007091Y022836D01*
X007119Y022832D01*
X007146Y022824D01*
X007172Y022813D01*
X007196Y022798D01*
X007218Y022780D01*
X007237Y022760D01*
X007254Y022737D01*
X007267Y022712D01*
X007276Y022685D01*
X007282Y022658D01*
X007284Y022629D01*
X007283Y022629D01*
X007281Y022658D01*
X007275Y022685D01*
X007266Y022711D01*
X007253Y022736D01*
X007237Y022759D01*
X007217Y022780D01*
X007196Y022797D01*
X007172Y022812D01*
X007146Y022823D01*
X007119Y022831D01*
X007091Y022835D01*
X007063Y022835D01*
X007035Y022831D01*
X007008Y022823D01*
X006982Y022812D01*
X006958Y022797D01*
X006937Y022780D01*
X006917Y022759D01*
X006901Y022736D01*
X006888Y022711D01*
X006879Y022685D01*
X006873Y022658D01*
X006871Y022629D01*
X006872Y022629D01*
X006874Y022657D01*
X006880Y022685D01*
X006889Y022711D01*
X006902Y022736D01*
X006918Y022759D01*
X006937Y022779D01*
X006959Y022797D01*
X006983Y022811D01*
X007008Y022822D01*
X007035Y022830D01*
X007063Y022834D01*
X007091Y022834D01*
X007119Y022830D01*
X007146Y022822D01*
X007171Y022811D01*
X007195Y022797D01*
X007217Y022779D01*
X007236Y022759D01*
X007252Y022736D01*
X007265Y022711D01*
X007274Y022685D01*
X007280Y022657D01*
X007282Y022629D01*
X007281Y022629D01*
X007279Y022657D01*
X007273Y022684D01*
X007264Y022711D01*
X007251Y022735D01*
X007235Y022758D01*
X007216Y022778D01*
X007194Y022796D01*
X007171Y022810D01*
X007145Y022821D01*
X007118Y022829D01*
X007091Y022833D01*
X007063Y022833D01*
X007036Y022829D01*
X007009Y022821D01*
X006983Y022810D01*
X006960Y022796D01*
X006938Y022778D01*
X006919Y022758D01*
X006903Y022735D01*
X006890Y022711D01*
X006881Y022684D01*
X006875Y022657D01*
X006873Y022629D01*
X006874Y022629D01*
X006876Y022657D01*
X006882Y022684D01*
X006891Y022710D01*
X006904Y022735D01*
X006920Y022757D01*
X006939Y022778D01*
X006960Y022795D01*
X006984Y022809D01*
X007009Y022820D01*
X007036Y022828D01*
X007063Y022832D01*
X007091Y022832D01*
X007118Y022828D01*
X007145Y022820D01*
X007170Y022809D01*
X007194Y022795D01*
X007215Y022778D01*
X007234Y022757D01*
X007250Y022735D01*
X007263Y022710D01*
X007272Y022684D01*
X007278Y022657D01*
X007280Y022629D01*
X007279Y022629D01*
X007277Y022657D01*
X007271Y022684D01*
X007262Y022710D01*
X007249Y022734D01*
X007234Y022757D01*
X007215Y022777D01*
X007193Y022794D01*
X007170Y022808D01*
X007145Y022819D01*
X007118Y022827D01*
X007091Y022831D01*
X007063Y022831D01*
X007036Y022827D01*
X007009Y022819D01*
X006984Y022808D01*
X006961Y022794D01*
X006939Y022777D01*
X006920Y022757D01*
X006905Y022734D01*
X006892Y022710D01*
X006883Y022684D01*
X006877Y022657D01*
X006875Y022629D01*
X006876Y022629D01*
X006878Y022657D01*
X006884Y022684D01*
X006893Y022709D01*
X006905Y022734D01*
X006921Y022756D01*
X006940Y022776D01*
X006961Y022793D01*
X006985Y022808D01*
X007010Y022818D01*
X007036Y022826D01*
X007063Y022830D01*
X007091Y022830D01*
X007118Y022826D01*
X007144Y022818D01*
X007169Y022808D01*
X007193Y022793D01*
X007214Y022776D01*
X007233Y022756D01*
X007249Y022734D01*
X007261Y022709D01*
X007270Y022684D01*
X007276Y022657D01*
X007278Y022629D01*
X007277Y022629D01*
X007275Y022657D01*
X007269Y022683D01*
X007260Y022709D01*
X007248Y022733D01*
X007232Y022755D01*
X007213Y022775D01*
X007192Y022793D01*
X007169Y022807D01*
X007144Y022817D01*
X007118Y022825D01*
X007091Y022829D01*
X007063Y022829D01*
X007036Y022825D01*
X007010Y022817D01*
X006985Y022807D01*
X006962Y022793D01*
X006941Y022775D01*
X006922Y022755D01*
X006906Y022733D01*
X006894Y022709D01*
X006885Y022683D01*
X006879Y022657D01*
X006877Y022629D01*
X006878Y022629D01*
X006880Y022657D01*
X006885Y022683D01*
X006895Y022709D01*
X006907Y022733D01*
X006923Y022755D01*
X006941Y022775D01*
X006962Y022792D01*
X006986Y022806D01*
X007010Y022817D01*
X007037Y022824D01*
X007063Y022828D01*
X007091Y022828D01*
X007117Y022824D01*
X007144Y022817D01*
X007168Y022806D01*
X007192Y022792D01*
X007213Y022775D01*
X007231Y022755D01*
X007247Y022733D01*
X007259Y022709D01*
X007269Y022683D01*
X007274Y022657D01*
X007276Y022629D01*
X007275Y022629D01*
X007273Y022656D01*
X007268Y022683D01*
X007258Y022708D01*
X007246Y022732D01*
X007230Y022754D01*
X007212Y022774D01*
X007191Y022791D01*
X007168Y022805D01*
X007143Y022816D01*
X007117Y022823D01*
X007090Y022827D01*
X007064Y022827D01*
X007037Y022823D01*
X007011Y022816D01*
X006986Y022805D01*
X006963Y022791D01*
X006942Y022774D01*
X006924Y022754D01*
X006908Y022732D01*
X006896Y022708D01*
X006886Y022683D01*
X006881Y022656D01*
X006879Y022629D01*
X006880Y022629D01*
X006882Y022656D01*
X006887Y022683D01*
X006896Y022708D01*
X006909Y022732D01*
X006924Y022754D01*
X006943Y022773D01*
X006964Y022790D01*
X006987Y022804D01*
X007011Y022815D01*
X007037Y022822D01*
X007064Y022826D01*
X007090Y022826D01*
X007117Y022822D01*
X007143Y022815D01*
X007167Y022804D01*
X007190Y022790D01*
X007211Y022773D01*
X007230Y022754D01*
X007245Y022732D01*
X007258Y022708D01*
X007267Y022683D01*
X007272Y022656D01*
X007274Y022629D01*
X007273Y022629D01*
X007271Y022656D01*
X007266Y022682D01*
X007257Y022707D01*
X007244Y022731D01*
X007229Y022753D01*
X007211Y022772D01*
X007190Y022789D01*
X007167Y022803D01*
X007143Y022814D01*
X007117Y022821D01*
X007090Y022825D01*
X007064Y022825D01*
X007037Y022821D01*
X007011Y022814D01*
X006987Y022803D01*
X006964Y022789D01*
X006943Y022772D01*
X006925Y022753D01*
X006910Y022731D01*
X006897Y022707D01*
X006888Y022682D01*
X006883Y022656D01*
X006881Y022629D01*
X006882Y022629D01*
X006884Y022657D01*
X006890Y022684D01*
X006900Y022710D01*
X006913Y022735D01*
X006930Y022757D01*
X006949Y022777D01*
X006972Y022793D01*
X006996Y022806D01*
X007022Y022816D01*
X007049Y022822D01*
X007077Y022824D01*
X007105Y022822D01*
X007132Y022816D01*
X007158Y022806D01*
X007182Y022793D01*
X007205Y022777D01*
X007224Y022757D01*
X007241Y022735D01*
X007254Y022710D01*
X007264Y022684D01*
X007270Y022657D01*
X007272Y022629D01*
X007271Y022629D01*
X007269Y022657D01*
X007263Y022684D01*
X007253Y022710D01*
X007240Y022734D01*
X007223Y022756D01*
X007204Y022776D01*
X007182Y022792D01*
X007157Y022806D01*
X007132Y022815D01*
X007105Y022821D01*
X007077Y022823D01*
X007049Y022821D01*
X007022Y022815D01*
X006997Y022806D01*
X006972Y022792D01*
X006950Y022776D01*
X006931Y022756D01*
X006914Y022734D01*
X006901Y022710D01*
X006891Y022684D01*
X006885Y022657D01*
X006883Y022629D01*
X006884Y022629D01*
X006886Y022657D01*
X006892Y022684D01*
X006902Y022710D01*
X006915Y022734D01*
X006931Y022756D01*
X006951Y022775D01*
X006973Y022791D01*
X006997Y022805D01*
X007023Y022814D01*
X007050Y022820D01*
X007077Y022822D01*
X007104Y022820D01*
X007131Y022814D01*
X007157Y022805D01*
X007181Y022791D01*
X007203Y022775D01*
X007223Y022756D01*
X007239Y022734D01*
X007252Y022710D01*
X007262Y022684D01*
X007268Y022657D01*
X007270Y022629D01*
X007269Y022629D01*
X007267Y022657D01*
X007261Y022683D01*
X007251Y022709D01*
X007238Y022733D01*
X007222Y022755D01*
X007203Y022774D01*
X007181Y022791D01*
X007157Y022804D01*
X007131Y022813D01*
X007104Y022819D01*
X007077Y022821D01*
X007050Y022819D01*
X007023Y022813D01*
X006997Y022804D01*
X006973Y022791D01*
X006951Y022774D01*
X006932Y022755D01*
X006916Y022733D01*
X006903Y022709D01*
X006893Y022683D01*
X006887Y022657D01*
X006885Y022629D01*
X006886Y022629D01*
X006888Y022657D01*
X006894Y022683D01*
X006903Y022709D01*
X006916Y022733D01*
X006933Y022754D01*
X006952Y022773D01*
X006974Y022790D01*
X006998Y022803D01*
X007023Y022812D01*
X007050Y022818D01*
X007077Y022820D01*
X007104Y022818D01*
X007131Y022812D01*
X007156Y022803D01*
X007180Y022790D01*
X007202Y022773D01*
X007221Y022754D01*
X007238Y022733D01*
X007251Y022709D01*
X007260Y022683D01*
X007266Y022657D01*
X007268Y022629D01*
X007267Y022629D01*
X007265Y022656D01*
X007259Y022683D01*
X007250Y022708D01*
X007237Y022732D01*
X007220Y022754D01*
X007201Y022773D01*
X007180Y022789D01*
X007156Y022802D01*
X007130Y022811D01*
X007104Y022817D01*
X007077Y022819D01*
X007050Y022817D01*
X007024Y022811D01*
X006998Y022802D01*
X006974Y022789D01*
X006953Y022773D01*
X006934Y022754D01*
X006917Y022732D01*
X006904Y022708D01*
X006895Y022683D01*
X006889Y022656D01*
X006887Y022629D01*
X006888Y022629D01*
X006890Y022656D01*
X006896Y022683D01*
X006905Y022708D01*
X006918Y022731D01*
X006934Y022753D01*
X006953Y022772D01*
X006975Y022788D01*
X006999Y022801D01*
X007024Y022810D01*
X007050Y022816D01*
X007077Y022818D01*
X007104Y022816D01*
X007130Y022810D01*
X007155Y022801D01*
X007179Y022788D01*
X007201Y022772D01*
X007220Y022753D01*
X007236Y022731D01*
X007249Y022708D01*
X007258Y022683D01*
X007264Y022656D01*
X007266Y022629D01*
X007480Y022727D02*
X007461Y022727D01*
X007462Y022727D02*
X007460Y022766D01*
X007454Y022805D01*
X007444Y022843D01*
X007431Y022879D01*
X007413Y022914D01*
X007393Y022947D01*
X007369Y022978D01*
X007342Y023006D01*
X007312Y023032D01*
X007281Y023054D01*
X007246Y023073D01*
X007211Y023088D01*
X007173Y023100D01*
X007135Y023108D01*
X007096Y023112D01*
X007058Y023112D01*
X007019Y023108D01*
X006981Y023100D01*
X006943Y023088D01*
X006908Y023073D01*
X006873Y023054D01*
X006842Y023032D01*
X006812Y023006D01*
X006785Y022978D01*
X006761Y022947D01*
X006741Y022914D01*
X006723Y022879D01*
X006710Y022843D01*
X006700Y022805D01*
X006694Y022766D01*
X006692Y022727D01*
X006674Y022727D01*
X006673Y022727D01*
X006675Y022767D01*
X006681Y022806D01*
X006691Y022845D01*
X006704Y022882D01*
X006721Y022918D01*
X006741Y022952D01*
X006765Y022984D01*
X006792Y023013D01*
X006821Y023039D01*
X006853Y023063D01*
X006887Y023083D01*
X006923Y023100D01*
X006960Y023114D01*
X006998Y023123D01*
X007037Y023129D01*
X007077Y023131D01*
X007117Y023129D01*
X007156Y023123D01*
X007194Y023114D01*
X007231Y023100D01*
X007267Y023083D01*
X007301Y023063D01*
X007333Y023039D01*
X007362Y023013D01*
X007389Y022984D01*
X007413Y022952D01*
X007433Y022918D01*
X007450Y022882D01*
X007463Y022845D01*
X007473Y022806D01*
X007479Y022767D01*
X007481Y022727D01*
X007480Y022727D01*
X007478Y022767D01*
X007472Y022806D01*
X007463Y022844D01*
X007449Y022882D01*
X007432Y022917D01*
X007412Y022951D01*
X007388Y022983D01*
X007362Y023012D01*
X007332Y023039D01*
X007301Y023062D01*
X007267Y023082D01*
X007231Y023099D01*
X007194Y023113D01*
X007156Y023122D01*
X007116Y023128D01*
X007077Y023130D01*
X007038Y023128D01*
X006998Y023122D01*
X006960Y023113D01*
X006923Y023099D01*
X006887Y023082D01*
X006853Y023062D01*
X006822Y023039D01*
X006792Y023012D01*
X006766Y022983D01*
X006742Y022951D01*
X006722Y022917D01*
X006705Y022882D01*
X006691Y022844D01*
X006682Y022806D01*
X006676Y022767D01*
X006674Y022727D01*
X006675Y022727D01*
X006677Y022767D01*
X006683Y022806D01*
X006692Y022844D01*
X006706Y022881D01*
X006723Y022917D01*
X006743Y022951D01*
X006766Y022982D01*
X006793Y023011D01*
X006822Y023038D01*
X006854Y023061D01*
X006888Y023082D01*
X006923Y023098D01*
X006960Y023112D01*
X006999Y023121D01*
X007038Y023127D01*
X007077Y023129D01*
X007116Y023127D01*
X007155Y023121D01*
X007194Y023112D01*
X007231Y023098D01*
X007266Y023082D01*
X007300Y023061D01*
X007332Y023038D01*
X007361Y023011D01*
X007388Y022982D01*
X007411Y022951D01*
X007431Y022917D01*
X007448Y022881D01*
X007462Y022844D01*
X007471Y022806D01*
X007477Y022767D01*
X007479Y022727D01*
X007478Y022727D01*
X007476Y022767D01*
X007470Y022806D01*
X007461Y022844D01*
X007447Y022881D01*
X007430Y022916D01*
X007410Y022950D01*
X007387Y022982D01*
X007360Y023011D01*
X007331Y023037D01*
X007300Y023061D01*
X007266Y023081D01*
X007230Y023098D01*
X007193Y023111D01*
X007155Y023120D01*
X007116Y023126D01*
X007077Y023128D01*
X007038Y023126D01*
X006999Y023120D01*
X006961Y023111D01*
X006924Y023098D01*
X006888Y023081D01*
X006854Y023061D01*
X006823Y023037D01*
X006794Y023011D01*
X006767Y022982D01*
X006744Y022950D01*
X006724Y022916D01*
X006707Y022881D01*
X006693Y022844D01*
X006684Y022806D01*
X006678Y022767D01*
X006676Y022727D01*
X006677Y022727D01*
X006679Y022767D01*
X006685Y022805D01*
X006694Y022844D01*
X006708Y022880D01*
X006724Y022916D01*
X006745Y022949D01*
X006768Y022981D01*
X006794Y023010D01*
X006823Y023036D01*
X006855Y023060D01*
X006889Y023080D01*
X006924Y023097D01*
X006961Y023110D01*
X006999Y023119D01*
X007038Y023125D01*
X007077Y023127D01*
X007116Y023125D01*
X007155Y023119D01*
X007193Y023110D01*
X007230Y023097D01*
X007265Y023080D01*
X007299Y023060D01*
X007331Y023036D01*
X007360Y023010D01*
X007386Y022981D01*
X007409Y022949D01*
X007430Y022916D01*
X007446Y022880D01*
X007460Y022844D01*
X007469Y022805D01*
X007475Y022767D01*
X007477Y022727D01*
X007476Y022727D01*
X007474Y022767D01*
X007468Y022805D01*
X007459Y022843D01*
X007445Y022880D01*
X007429Y022915D01*
X007409Y022949D01*
X007385Y022980D01*
X007359Y023009D01*
X007330Y023036D01*
X007299Y023059D01*
X007265Y023079D01*
X007230Y023096D01*
X007193Y023109D01*
X007155Y023118D01*
X007116Y023124D01*
X007077Y023126D01*
X007038Y023124D01*
X006999Y023118D01*
X006961Y023109D01*
X006924Y023096D01*
X006889Y023079D01*
X006855Y023059D01*
X006824Y023036D01*
X006795Y023009D01*
X006769Y022980D01*
X006745Y022949D01*
X006725Y022915D01*
X006709Y022880D01*
X006695Y022843D01*
X006686Y022805D01*
X006680Y022767D01*
X006678Y022727D01*
X006679Y022727D01*
X006681Y022766D01*
X006687Y022805D01*
X006696Y022843D01*
X006709Y022880D01*
X006726Y022915D01*
X006746Y022948D01*
X006770Y022980D01*
X006796Y023009D01*
X006825Y023035D01*
X006856Y023058D01*
X006890Y023078D01*
X006925Y023095D01*
X006962Y023108D01*
X006999Y023117D01*
X007038Y023123D01*
X007077Y023125D01*
X007116Y023123D01*
X007155Y023117D01*
X007192Y023108D01*
X007229Y023095D01*
X007264Y023078D01*
X007298Y023058D01*
X007329Y023035D01*
X007358Y023009D01*
X007384Y022980D01*
X007408Y022948D01*
X007428Y022915D01*
X007445Y022880D01*
X007458Y022843D01*
X007467Y022805D01*
X007473Y022766D01*
X007475Y022727D01*
X007474Y022727D01*
X007472Y022766D01*
X007466Y022805D01*
X007457Y022843D01*
X007444Y022879D01*
X007427Y022914D01*
X007407Y022948D01*
X007384Y022979D01*
X007358Y023008D01*
X007329Y023034D01*
X007297Y023057D01*
X007264Y023077D01*
X007229Y023094D01*
X007192Y023107D01*
X007154Y023116D01*
X007116Y023122D01*
X007077Y023124D01*
X007038Y023122D01*
X007000Y023116D01*
X006962Y023107D01*
X006925Y023094D01*
X006890Y023077D01*
X006857Y023057D01*
X006825Y023034D01*
X006796Y023008D01*
X006770Y022979D01*
X006747Y022948D01*
X006727Y022914D01*
X006710Y022879D01*
X006697Y022843D01*
X006688Y022805D01*
X006682Y022766D01*
X006680Y022727D01*
X006681Y022727D01*
X006683Y022766D01*
X006689Y022805D01*
X006698Y022842D01*
X006711Y022879D01*
X006728Y022914D01*
X006748Y022947D01*
X006771Y022978D01*
X006797Y023007D01*
X006826Y023033D01*
X006857Y023056D01*
X006890Y023076D01*
X006926Y023093D01*
X006962Y023106D01*
X007000Y023115D01*
X007038Y023121D01*
X007077Y023123D01*
X007116Y023121D01*
X007154Y023115D01*
X007192Y023106D01*
X007228Y023093D01*
X007264Y023076D01*
X007297Y023056D01*
X007328Y023033D01*
X007357Y023007D01*
X007383Y022978D01*
X007406Y022947D01*
X007426Y022914D01*
X007443Y022879D01*
X007456Y022842D01*
X007465Y022805D01*
X007471Y022766D01*
X007473Y022727D01*
X007472Y022727D01*
X007470Y022766D01*
X007464Y022804D01*
X007455Y022842D01*
X007442Y022879D01*
X007425Y022914D01*
X007405Y022947D01*
X007382Y022978D01*
X007356Y023006D01*
X007327Y023032D01*
X007296Y023056D01*
X007263Y023075D01*
X007228Y023092D01*
X007192Y023105D01*
X007154Y023114D01*
X007116Y023120D01*
X007077Y023122D01*
X007038Y023120D01*
X007000Y023114D01*
X006962Y023105D01*
X006926Y023092D01*
X006891Y023075D01*
X006858Y023056D01*
X006827Y023032D01*
X006798Y023006D01*
X006772Y022978D01*
X006749Y022947D01*
X006729Y022914D01*
X006712Y022879D01*
X006699Y022842D01*
X006690Y022804D01*
X006684Y022766D01*
X006682Y022727D01*
X006683Y022727D01*
X006685Y022766D01*
X006691Y022804D01*
X006700Y022842D01*
X006713Y022878D01*
X006730Y022913D01*
X006750Y022946D01*
X006773Y022977D01*
X006799Y023006D01*
X006827Y023032D01*
X006858Y023055D01*
X006891Y023075D01*
X006926Y023091D01*
X006963Y023104D01*
X007000Y023113D01*
X007038Y023119D01*
X007077Y023121D01*
X007116Y023119D01*
X007154Y023113D01*
X007191Y023104D01*
X007228Y023091D01*
X007263Y023075D01*
X007296Y023055D01*
X007327Y023032D01*
X007355Y023006D01*
X007381Y022977D01*
X007404Y022946D01*
X007424Y022913D01*
X007441Y022878D01*
X007454Y022842D01*
X007463Y022804D01*
X007469Y022766D01*
X007471Y022727D01*
X007470Y022727D01*
X007468Y022766D01*
X007462Y022804D01*
X007453Y022841D01*
X007440Y022878D01*
X007423Y022913D01*
X007404Y022946D01*
X007381Y022977D01*
X007355Y023005D01*
X007326Y023031D01*
X007295Y023054D01*
X007262Y023074D01*
X007227Y023090D01*
X007191Y023103D01*
X007154Y023112D01*
X007115Y023118D01*
X007077Y023120D01*
X007039Y023118D01*
X007000Y023112D01*
X006963Y023103D01*
X006927Y023090D01*
X006892Y023074D01*
X006859Y023054D01*
X006828Y023031D01*
X006799Y023005D01*
X006773Y022977D01*
X006750Y022946D01*
X006731Y022913D01*
X006714Y022878D01*
X006701Y022841D01*
X006692Y022804D01*
X006686Y022766D01*
X006684Y022727D01*
X006685Y022727D01*
X006687Y022766D01*
X006693Y022804D01*
X006702Y022841D01*
X006715Y022877D01*
X006731Y022912D01*
X006751Y022945D01*
X006774Y022976D01*
X006800Y023004D01*
X006828Y023030D01*
X006859Y023053D01*
X006892Y023073D01*
X006927Y023089D01*
X006963Y023102D01*
X007001Y023111D01*
X007039Y023117D01*
X007077Y023119D01*
X007115Y023117D01*
X007153Y023111D01*
X007191Y023102D01*
X007227Y023089D01*
X007262Y023073D01*
X007295Y023053D01*
X007326Y023030D01*
X007354Y023004D01*
X007380Y022976D01*
X007403Y022945D01*
X007423Y022912D01*
X007439Y022877D01*
X007452Y022841D01*
X007461Y022804D01*
X007467Y022766D01*
X007469Y022727D01*
X007468Y022727D01*
X007466Y022766D01*
X007460Y022804D01*
X007451Y022841D01*
X007438Y022877D01*
X007422Y022912D01*
X007402Y022944D01*
X007379Y022975D01*
X007353Y023004D01*
X007325Y023029D01*
X007294Y023052D01*
X007261Y023072D01*
X007227Y023088D01*
X007190Y023101D01*
X007153Y023110D01*
X007115Y023116D01*
X007077Y023118D01*
X007039Y023116D01*
X007001Y023110D01*
X006964Y023101D01*
X006927Y023088D01*
X006893Y023072D01*
X006860Y023052D01*
X006829Y023029D01*
X006801Y023004D01*
X006775Y022975D01*
X006752Y022944D01*
X006732Y022912D01*
X006716Y022877D01*
X006703Y022841D01*
X006694Y022804D01*
X006688Y022766D01*
X006686Y022727D01*
X006687Y022727D01*
X006689Y022766D01*
X006695Y022804D01*
X006704Y022841D01*
X006717Y022877D01*
X006733Y022911D01*
X006753Y022944D01*
X006776Y022975D01*
X006801Y023003D01*
X006830Y023029D01*
X006860Y023051D01*
X006893Y023071D01*
X006928Y023087D01*
X006964Y023100D01*
X007001Y023110D01*
X007039Y023115D01*
X007077Y023117D01*
X007115Y023115D01*
X007153Y023110D01*
X007190Y023100D01*
X007226Y023087D01*
X007261Y023071D01*
X007294Y023051D01*
X007324Y023029D01*
X007353Y023003D01*
X007378Y022975D01*
X007401Y022944D01*
X007421Y022911D01*
X007437Y022877D01*
X007450Y022841D01*
X007459Y022804D01*
X007465Y022766D01*
X007467Y022727D01*
X007466Y022727D01*
X007464Y022767D01*
X007458Y022806D01*
X007448Y022844D01*
X007434Y022881D01*
X007417Y022916D01*
X007396Y022949D01*
X007372Y022981D01*
X007345Y023009D01*
X007315Y023035D01*
X007283Y023057D01*
X007248Y023076D01*
X007212Y023092D01*
X007174Y023104D01*
X007136Y023112D01*
X007097Y023116D01*
X007057Y023116D01*
X007018Y023112D01*
X006980Y023104D01*
X006942Y023092D01*
X006906Y023076D01*
X006871Y023057D01*
X006839Y023035D01*
X006809Y023009D01*
X006782Y022981D01*
X006758Y022949D01*
X006737Y022916D01*
X006720Y022881D01*
X006706Y022844D01*
X006696Y022806D01*
X006690Y022767D01*
X006688Y022727D01*
X006689Y022727D01*
X006691Y022767D01*
X006697Y022806D01*
X006707Y022844D01*
X006721Y022880D01*
X006738Y022916D01*
X006759Y022949D01*
X006783Y022980D01*
X006810Y023008D01*
X006840Y023034D01*
X006872Y023056D01*
X006906Y023075D01*
X006942Y023091D01*
X006980Y023103D01*
X007018Y023111D01*
X007057Y023115D01*
X007097Y023115D01*
X007136Y023111D01*
X007174Y023103D01*
X007212Y023091D01*
X007248Y023075D01*
X007282Y023056D01*
X007314Y023034D01*
X007344Y023008D01*
X007371Y022980D01*
X007395Y022949D01*
X007416Y022916D01*
X007433Y022880D01*
X007447Y022844D01*
X007457Y022806D01*
X007463Y022767D01*
X007465Y022727D01*
X007464Y022727D01*
X007462Y022767D01*
X007456Y022805D01*
X007446Y022843D01*
X007432Y022880D01*
X007415Y022915D01*
X007394Y022948D01*
X007370Y022979D01*
X007343Y023008D01*
X007314Y023033D01*
X007282Y023056D01*
X007247Y023075D01*
X007211Y023090D01*
X007174Y023102D01*
X007136Y023110D01*
X007097Y023114D01*
X007057Y023114D01*
X007018Y023110D01*
X006980Y023102D01*
X006943Y023090D01*
X006907Y023075D01*
X006872Y023056D01*
X006840Y023033D01*
X006811Y023008D01*
X006784Y022979D01*
X006760Y022948D01*
X006739Y022915D01*
X006722Y022880D01*
X006708Y022843D01*
X006698Y022805D01*
X006692Y022767D01*
X006690Y022727D01*
X006691Y022727D01*
X006693Y022767D01*
X006699Y022805D01*
X006709Y022843D01*
X006722Y022880D01*
X006740Y022915D01*
X006760Y022948D01*
X006784Y022979D01*
X006811Y023007D01*
X006841Y023032D01*
X006873Y023055D01*
X006907Y023074D01*
X006943Y023089D01*
X006980Y023101D01*
X007019Y023109D01*
X007057Y023113D01*
X007097Y023113D01*
X007135Y023109D01*
X007174Y023101D01*
X007211Y023089D01*
X007247Y023074D01*
X007281Y023055D01*
X007313Y023032D01*
X007343Y023007D01*
X007370Y022979D01*
X007394Y022948D01*
X007414Y022915D01*
X007432Y022880D01*
X007445Y022843D01*
X007455Y022805D01*
X007461Y022767D01*
X007463Y022727D01*
X006674Y022727D02*
X006693Y022727D01*
X006692Y022726D02*
X006694Y022667D01*
X006700Y022608D01*
X006710Y022550D01*
X006723Y022492D01*
X006741Y022435D01*
X006723Y022429D01*
X006705Y022487D01*
X006691Y022546D01*
X006681Y022606D01*
X006675Y022666D01*
X006673Y022726D01*
X006674Y022726D01*
X006676Y022666D01*
X006682Y022606D01*
X006692Y022546D01*
X006706Y022487D01*
X006724Y022429D01*
X006724Y022430D01*
X006707Y022487D01*
X006693Y022546D01*
X006683Y022606D01*
X006677Y022666D01*
X006675Y022726D01*
X006676Y022726D01*
X006678Y022666D01*
X006684Y022606D01*
X006694Y022546D01*
X006708Y022488D01*
X006725Y022430D01*
X006726Y022430D01*
X006709Y022488D01*
X006695Y022547D01*
X006685Y022606D01*
X006679Y022666D01*
X006677Y022726D01*
X006678Y022726D01*
X006680Y022666D01*
X006686Y022606D01*
X006696Y022547D01*
X006710Y022488D01*
X006727Y022431D01*
X006728Y022431D01*
X006711Y022488D01*
X006697Y022547D01*
X006687Y022606D01*
X006681Y022666D01*
X006679Y022726D01*
X006680Y022726D01*
X006682Y022666D01*
X006688Y022607D01*
X006698Y022547D01*
X006712Y022489D01*
X006729Y022431D01*
X006730Y022431D01*
X006713Y022489D01*
X006699Y022547D01*
X006689Y022607D01*
X006683Y022666D01*
X006681Y022726D01*
X006682Y022726D01*
X006684Y022666D01*
X006690Y022607D01*
X006700Y022548D01*
X006714Y022489D01*
X006731Y022432D01*
X006732Y022432D01*
X006715Y022489D01*
X006701Y022548D01*
X006691Y022607D01*
X006685Y022667D01*
X006683Y022726D01*
X006684Y022726D01*
X006686Y022667D01*
X006692Y022607D01*
X006702Y022548D01*
X006716Y022490D01*
X006733Y022432D01*
X006734Y022433D01*
X006717Y022490D01*
X006703Y022548D01*
X006693Y022607D01*
X006687Y022667D01*
X006685Y022726D01*
X006686Y022726D01*
X006688Y022667D01*
X006694Y022607D01*
X006704Y022548D01*
X006718Y022490D01*
X006735Y022433D01*
X006736Y022433D01*
X006719Y022490D01*
X006705Y022549D01*
X006695Y022607D01*
X006689Y022667D01*
X006687Y022726D01*
X006688Y022726D01*
X006690Y022667D01*
X006696Y022608D01*
X006706Y022549D01*
X006720Y022491D01*
X006737Y022434D01*
X006738Y022434D01*
X006721Y022491D01*
X006707Y022549D01*
X006697Y022608D01*
X006691Y022667D01*
X006689Y022726D01*
X006690Y022726D01*
X006692Y022667D01*
X006698Y022608D01*
X006708Y022549D01*
X006721Y022491D01*
X006739Y022434D01*
X006740Y022435D01*
X006722Y022492D01*
X006709Y022549D01*
X006699Y022608D01*
X006693Y022667D01*
X006691Y022726D01*
X007458Y022427D02*
X007439Y022430D01*
X007440Y022430D02*
X007451Y022504D01*
X007458Y022578D01*
X007462Y022652D01*
X007461Y022726D01*
X007480Y022726D01*
X007480Y022727D01*
X007481Y022667D01*
X007479Y022606D01*
X007475Y022546D01*
X007468Y022486D01*
X007458Y022427D01*
X007467Y022486D01*
X007474Y022546D01*
X007478Y022606D01*
X007480Y022667D01*
X007479Y022727D01*
X007478Y022727D01*
X007479Y022667D01*
X007477Y022606D01*
X007473Y022546D01*
X007466Y022486D01*
X007457Y022427D01*
X007456Y022427D01*
X007465Y022487D01*
X007472Y022546D01*
X007476Y022606D01*
X007478Y022667D01*
X007477Y022727D01*
X007476Y022727D01*
X007477Y022652D01*
X007473Y022576D01*
X007466Y022502D01*
X007455Y022427D01*
X007454Y022427D01*
X007465Y022502D01*
X007472Y022577D01*
X007476Y022652D01*
X007475Y022727D01*
X007474Y022727D01*
X007475Y022652D01*
X007471Y022577D01*
X007464Y022502D01*
X007453Y022428D01*
X007452Y022428D01*
X007463Y022502D01*
X007470Y022577D01*
X007474Y022652D01*
X007473Y022727D01*
X007472Y022727D01*
X007473Y022652D01*
X007469Y022577D01*
X007462Y022502D01*
X007451Y022428D01*
X007450Y022428D01*
X007461Y022502D01*
X007468Y022577D01*
X007472Y022652D01*
X007471Y022727D01*
X007470Y022727D01*
X007471Y022652D01*
X007467Y022577D01*
X007460Y022502D01*
X007449Y022428D01*
X007448Y022429D01*
X007459Y022503D01*
X007466Y022577D01*
X007470Y022652D01*
X007469Y022727D01*
X007468Y022727D01*
X007469Y022652D01*
X007465Y022577D01*
X007458Y022503D01*
X007447Y022429D01*
X007446Y022429D01*
X007457Y022503D01*
X007464Y022577D01*
X007468Y022652D01*
X007467Y022726D01*
X007466Y022726D01*
X007467Y022652D01*
X007463Y022577D01*
X007456Y022503D01*
X007445Y022429D01*
X007444Y022429D01*
X007455Y022503D01*
X007462Y022577D01*
X007466Y022652D01*
X007465Y022726D01*
X007464Y022726D01*
X007465Y022652D01*
X007461Y022577D01*
X007454Y022503D01*
X007443Y022429D01*
X007442Y022430D01*
X007453Y022503D01*
X007460Y022577D01*
X007464Y022652D01*
X007463Y022726D01*
X007462Y022726D01*
X007463Y022652D01*
X007459Y022577D01*
X007452Y022503D01*
X007441Y022430D01*
X007067Y025040D02*
X007086Y025040D01*
X007085Y025040D02*
X007087Y025013D01*
X007093Y024987D01*
X007102Y024962D01*
X007115Y024938D01*
X007131Y024917D01*
X007150Y024898D01*
X007172Y024882D01*
X007195Y024869D01*
X007220Y024860D01*
X007246Y024854D01*
X007273Y024852D01*
X007300Y024854D01*
X007326Y024860D01*
X007351Y024869D01*
X007374Y024882D01*
X007396Y024898D01*
X007415Y024917D01*
X007431Y024938D01*
X007444Y024962D01*
X007453Y024987D01*
X007459Y025013D01*
X007461Y025040D01*
X007479Y025040D01*
X007480Y025040D01*
X007478Y025011D01*
X007472Y024984D01*
X007463Y024957D01*
X007450Y024932D01*
X007433Y024909D01*
X007414Y024889D01*
X007392Y024871D01*
X007368Y024856D01*
X007342Y024845D01*
X007315Y024837D01*
X007287Y024833D01*
X007259Y024833D01*
X007231Y024837D01*
X007204Y024845D01*
X007178Y024856D01*
X007154Y024871D01*
X007132Y024889D01*
X007113Y024909D01*
X007096Y024932D01*
X007083Y024957D01*
X007074Y024984D01*
X007068Y025011D01*
X007066Y025040D01*
X007067Y025040D01*
X007069Y025011D01*
X007075Y024984D01*
X007084Y024958D01*
X007097Y024933D01*
X007113Y024910D01*
X007133Y024889D01*
X007154Y024872D01*
X007178Y024857D01*
X007204Y024846D01*
X007231Y024838D01*
X007259Y024834D01*
X007287Y024834D01*
X007315Y024838D01*
X007342Y024846D01*
X007368Y024857D01*
X007392Y024872D01*
X007413Y024889D01*
X007433Y024910D01*
X007449Y024933D01*
X007462Y024958D01*
X007471Y024984D01*
X007477Y025011D01*
X007479Y025040D01*
X007478Y025040D01*
X007476Y025012D01*
X007470Y024984D01*
X007461Y024958D01*
X007448Y024933D01*
X007432Y024910D01*
X007413Y024890D01*
X007391Y024872D01*
X007367Y024858D01*
X007342Y024847D01*
X007315Y024839D01*
X007287Y024835D01*
X007259Y024835D01*
X007231Y024839D01*
X007204Y024847D01*
X007179Y024858D01*
X007155Y024872D01*
X007133Y024890D01*
X007114Y024910D01*
X007098Y024933D01*
X007085Y024958D01*
X007076Y024984D01*
X007070Y025012D01*
X007068Y025040D01*
X007069Y025040D01*
X007071Y025012D01*
X007077Y024985D01*
X007086Y024958D01*
X007099Y024934D01*
X007115Y024911D01*
X007134Y024891D01*
X007156Y024873D01*
X007179Y024859D01*
X007205Y024848D01*
X007232Y024840D01*
X007259Y024836D01*
X007287Y024836D01*
X007314Y024840D01*
X007341Y024848D01*
X007367Y024859D01*
X007390Y024873D01*
X007412Y024891D01*
X007431Y024911D01*
X007447Y024934D01*
X007460Y024958D01*
X007469Y024985D01*
X007475Y025012D01*
X007477Y025040D01*
X007476Y025040D01*
X007474Y025012D01*
X007468Y024985D01*
X007459Y024959D01*
X007446Y024934D01*
X007430Y024912D01*
X007411Y024891D01*
X007390Y024874D01*
X007366Y024860D01*
X007341Y024849D01*
X007314Y024841D01*
X007287Y024837D01*
X007259Y024837D01*
X007232Y024841D01*
X007205Y024849D01*
X007180Y024860D01*
X007156Y024874D01*
X007135Y024891D01*
X007116Y024912D01*
X007100Y024934D01*
X007087Y024959D01*
X007078Y024985D01*
X007072Y025012D01*
X007070Y025040D01*
X007071Y025040D01*
X007073Y025012D01*
X007079Y024985D01*
X007088Y024959D01*
X007101Y024935D01*
X007116Y024912D01*
X007135Y024892D01*
X007157Y024875D01*
X007180Y024861D01*
X007205Y024850D01*
X007232Y024842D01*
X007259Y024838D01*
X007287Y024838D01*
X007314Y024842D01*
X007341Y024850D01*
X007366Y024861D01*
X007389Y024875D01*
X007411Y024892D01*
X007430Y024912D01*
X007445Y024935D01*
X007458Y024959D01*
X007467Y024985D01*
X007473Y025012D01*
X007475Y025040D01*
X007474Y025040D01*
X007472Y025012D01*
X007466Y024985D01*
X007457Y024960D01*
X007445Y024935D01*
X007429Y024913D01*
X007410Y024893D01*
X007389Y024876D01*
X007365Y024861D01*
X007340Y024851D01*
X007314Y024843D01*
X007287Y024839D01*
X007259Y024839D01*
X007232Y024843D01*
X007206Y024851D01*
X007181Y024861D01*
X007157Y024876D01*
X007136Y024893D01*
X007117Y024913D01*
X007101Y024935D01*
X007089Y024960D01*
X007080Y024985D01*
X007074Y025012D01*
X007072Y025040D01*
X007073Y025040D01*
X007075Y025012D01*
X007081Y024986D01*
X007090Y024960D01*
X007102Y024936D01*
X007118Y024914D01*
X007137Y024894D01*
X007158Y024876D01*
X007181Y024862D01*
X007206Y024852D01*
X007232Y024844D01*
X007259Y024840D01*
X007287Y024840D01*
X007314Y024844D01*
X007340Y024852D01*
X007365Y024862D01*
X007388Y024876D01*
X007409Y024894D01*
X007428Y024914D01*
X007444Y024936D01*
X007456Y024960D01*
X007465Y024986D01*
X007471Y025012D01*
X007473Y025040D01*
X007472Y025040D01*
X007470Y025012D01*
X007465Y024986D01*
X007455Y024960D01*
X007443Y024936D01*
X007427Y024914D01*
X007409Y024894D01*
X007388Y024877D01*
X007364Y024863D01*
X007340Y024852D01*
X007313Y024845D01*
X007287Y024841D01*
X007259Y024841D01*
X007233Y024845D01*
X007206Y024852D01*
X007182Y024863D01*
X007158Y024877D01*
X007137Y024894D01*
X007119Y024914D01*
X007103Y024936D01*
X007091Y024960D01*
X007081Y024986D01*
X007076Y025012D01*
X007074Y025040D01*
X007075Y025040D01*
X007077Y025013D01*
X007082Y024986D01*
X007092Y024961D01*
X007104Y024937D01*
X007120Y024915D01*
X007138Y024895D01*
X007159Y024878D01*
X007182Y024864D01*
X007207Y024853D01*
X007233Y024846D01*
X007260Y024842D01*
X007286Y024842D01*
X007313Y024846D01*
X007339Y024853D01*
X007364Y024864D01*
X007387Y024878D01*
X007408Y024895D01*
X007426Y024915D01*
X007442Y024937D01*
X007454Y024961D01*
X007464Y024986D01*
X007469Y025013D01*
X007471Y025040D01*
X007470Y025040D01*
X007468Y025013D01*
X007463Y024986D01*
X007454Y024961D01*
X007441Y024937D01*
X007426Y024915D01*
X007407Y024896D01*
X007386Y024879D01*
X007363Y024865D01*
X007339Y024854D01*
X007313Y024847D01*
X007286Y024843D01*
X007260Y024843D01*
X007233Y024847D01*
X007207Y024854D01*
X007183Y024865D01*
X007160Y024879D01*
X007139Y024896D01*
X007120Y024915D01*
X007105Y024937D01*
X007092Y024961D01*
X007083Y024986D01*
X007078Y025013D01*
X007076Y025040D01*
X007077Y025040D01*
X007079Y025013D01*
X007084Y024987D01*
X007093Y024962D01*
X007106Y024938D01*
X007121Y024916D01*
X007139Y024897D01*
X007160Y024880D01*
X007183Y024866D01*
X007207Y024855D01*
X007233Y024848D01*
X007260Y024844D01*
X007286Y024844D01*
X007313Y024848D01*
X007339Y024855D01*
X007363Y024866D01*
X007386Y024880D01*
X007407Y024897D01*
X007425Y024916D01*
X007440Y024938D01*
X007453Y024962D01*
X007462Y024987D01*
X007467Y025013D01*
X007469Y025040D01*
X007468Y025040D01*
X007466Y025012D01*
X007460Y024985D01*
X007450Y024959D01*
X007437Y024934D01*
X007420Y024912D01*
X007401Y024892D01*
X007378Y024876D01*
X007354Y024863D01*
X007328Y024853D01*
X007301Y024847D01*
X007273Y024845D01*
X007245Y024847D01*
X007218Y024853D01*
X007192Y024863D01*
X007168Y024876D01*
X007145Y024892D01*
X007126Y024912D01*
X007109Y024934D01*
X007096Y024959D01*
X007086Y024985D01*
X007080Y025012D01*
X007078Y025040D01*
X007079Y025040D01*
X007081Y025012D01*
X007087Y024985D01*
X007097Y024959D01*
X007110Y024935D01*
X007127Y024913D01*
X007146Y024893D01*
X007168Y024877D01*
X007193Y024863D01*
X007218Y024854D01*
X007245Y024848D01*
X007273Y024846D01*
X007301Y024848D01*
X007328Y024854D01*
X007353Y024863D01*
X007378Y024877D01*
X007400Y024893D01*
X007419Y024913D01*
X007436Y024935D01*
X007449Y024959D01*
X007459Y024985D01*
X007465Y025012D01*
X007467Y025040D01*
X007466Y025040D01*
X007464Y025012D01*
X007458Y024985D01*
X007448Y024959D01*
X007435Y024935D01*
X007419Y024913D01*
X007399Y024894D01*
X007377Y024878D01*
X007353Y024864D01*
X007327Y024855D01*
X007300Y024849D01*
X007273Y024847D01*
X007246Y024849D01*
X007219Y024855D01*
X007193Y024864D01*
X007169Y024878D01*
X007147Y024894D01*
X007127Y024913D01*
X007111Y024935D01*
X007098Y024959D01*
X007088Y024985D01*
X007082Y025012D01*
X007080Y025040D01*
X007081Y025040D01*
X007083Y025012D01*
X007089Y024986D01*
X007099Y024960D01*
X007112Y024936D01*
X007128Y024914D01*
X007147Y024895D01*
X007169Y024878D01*
X007193Y024865D01*
X007219Y024856D01*
X007246Y024850D01*
X007273Y024848D01*
X007300Y024850D01*
X007327Y024856D01*
X007353Y024865D01*
X007377Y024878D01*
X007399Y024895D01*
X007418Y024914D01*
X007434Y024936D01*
X007447Y024960D01*
X007457Y024986D01*
X007463Y025012D01*
X007465Y025040D01*
X007464Y025040D01*
X007462Y025012D01*
X007456Y024986D01*
X007447Y024960D01*
X007434Y024936D01*
X007417Y024915D01*
X007398Y024896D01*
X007376Y024879D01*
X007352Y024866D01*
X007327Y024857D01*
X007300Y024851D01*
X007273Y024849D01*
X007246Y024851D01*
X007219Y024857D01*
X007194Y024866D01*
X007170Y024879D01*
X007148Y024896D01*
X007129Y024915D01*
X007112Y024936D01*
X007099Y024960D01*
X007090Y024986D01*
X007084Y025012D01*
X007082Y025040D01*
X007083Y025040D01*
X007085Y025013D01*
X007091Y024986D01*
X007100Y024961D01*
X007113Y024937D01*
X007130Y024915D01*
X007149Y024896D01*
X007170Y024880D01*
X007194Y024867D01*
X007220Y024858D01*
X007246Y024852D01*
X007273Y024850D01*
X007300Y024852D01*
X007326Y024858D01*
X007352Y024867D01*
X007376Y024880D01*
X007397Y024896D01*
X007416Y024915D01*
X007433Y024937D01*
X007446Y024961D01*
X007455Y024986D01*
X007461Y025013D01*
X007463Y025040D01*
X007462Y025040D01*
X007460Y025013D01*
X007454Y024986D01*
X007445Y024961D01*
X007432Y024938D01*
X007416Y024916D01*
X007397Y024897D01*
X007375Y024881D01*
X007351Y024868D01*
X007326Y024859D01*
X007300Y024853D01*
X007273Y024851D01*
X007246Y024853D01*
X007220Y024859D01*
X007195Y024868D01*
X007171Y024881D01*
X007149Y024897D01*
X007130Y024916D01*
X007114Y024938D01*
X007101Y024961D01*
X007092Y024986D01*
X007086Y025013D01*
X007084Y025040D01*
X006674Y025040D02*
X006693Y025040D01*
X006692Y025040D02*
X006694Y025013D01*
X006700Y024987D01*
X006709Y024962D01*
X006722Y024938D01*
X006738Y024917D01*
X006757Y024898D01*
X006779Y024882D01*
X006802Y024869D01*
X006827Y024860D01*
X006853Y024854D01*
X006880Y024852D01*
X006907Y024854D01*
X006933Y024860D01*
X006958Y024869D01*
X006981Y024882D01*
X007003Y024898D01*
X007022Y024917D01*
X007038Y024938D01*
X007051Y024962D01*
X007060Y024987D01*
X007066Y025013D01*
X007068Y025040D01*
X007086Y025040D01*
X007087Y025040D01*
X007085Y025011D01*
X007079Y024984D01*
X007070Y024957D01*
X007057Y024932D01*
X007040Y024909D01*
X007021Y024889D01*
X006999Y024871D01*
X006975Y024856D01*
X006949Y024845D01*
X006922Y024837D01*
X006894Y024833D01*
X006866Y024833D01*
X006838Y024837D01*
X006811Y024845D01*
X006785Y024856D01*
X006761Y024871D01*
X006739Y024889D01*
X006720Y024909D01*
X006703Y024932D01*
X006690Y024957D01*
X006681Y024984D01*
X006675Y025011D01*
X006673Y025040D01*
X006674Y025040D01*
X006676Y025011D01*
X006682Y024984D01*
X006691Y024958D01*
X006704Y024933D01*
X006720Y024910D01*
X006740Y024889D01*
X006761Y024872D01*
X006785Y024857D01*
X006811Y024846D01*
X006838Y024838D01*
X006866Y024834D01*
X006894Y024834D01*
X006922Y024838D01*
X006949Y024846D01*
X006975Y024857D01*
X006999Y024872D01*
X007020Y024889D01*
X007040Y024910D01*
X007056Y024933D01*
X007069Y024958D01*
X007078Y024984D01*
X007084Y025011D01*
X007086Y025040D01*
X007085Y025040D01*
X007083Y025012D01*
X007077Y024984D01*
X007068Y024958D01*
X007055Y024933D01*
X007039Y024910D01*
X007020Y024890D01*
X006998Y024872D01*
X006974Y024858D01*
X006949Y024847D01*
X006922Y024839D01*
X006894Y024835D01*
X006866Y024835D01*
X006838Y024839D01*
X006811Y024847D01*
X006786Y024858D01*
X006762Y024872D01*
X006740Y024890D01*
X006721Y024910D01*
X006705Y024933D01*
X006692Y024958D01*
X006683Y024984D01*
X006677Y025012D01*
X006675Y025040D01*
X006676Y025040D01*
X006678Y025012D01*
X006684Y024985D01*
X006693Y024958D01*
X006706Y024934D01*
X006722Y024911D01*
X006741Y024891D01*
X006763Y024873D01*
X006786Y024859D01*
X006812Y024848D01*
X006839Y024840D01*
X006866Y024836D01*
X006894Y024836D01*
X006921Y024840D01*
X006948Y024848D01*
X006974Y024859D01*
X006997Y024873D01*
X007019Y024891D01*
X007038Y024911D01*
X007054Y024934D01*
X007067Y024958D01*
X007076Y024985D01*
X007082Y025012D01*
X007084Y025040D01*
X007083Y025040D01*
X007081Y025012D01*
X007075Y024985D01*
X007066Y024959D01*
X007053Y024934D01*
X007037Y024912D01*
X007018Y024891D01*
X006997Y024874D01*
X006973Y024860D01*
X006948Y024849D01*
X006921Y024841D01*
X006894Y024837D01*
X006866Y024837D01*
X006839Y024841D01*
X006812Y024849D01*
X006787Y024860D01*
X006763Y024874D01*
X006742Y024891D01*
X006723Y024912D01*
X006707Y024934D01*
X006694Y024959D01*
X006685Y024985D01*
X006679Y025012D01*
X006677Y025040D01*
X006678Y025040D01*
X006680Y025012D01*
X006686Y024985D01*
X006695Y024959D01*
X006708Y024935D01*
X006723Y024912D01*
X006742Y024892D01*
X006764Y024875D01*
X006787Y024861D01*
X006812Y024850D01*
X006839Y024842D01*
X006866Y024838D01*
X006894Y024838D01*
X006921Y024842D01*
X006948Y024850D01*
X006973Y024861D01*
X006996Y024875D01*
X007018Y024892D01*
X007037Y024912D01*
X007052Y024935D01*
X007065Y024959D01*
X007074Y024985D01*
X007080Y025012D01*
X007082Y025040D01*
X007081Y025040D01*
X007079Y025012D01*
X007073Y024985D01*
X007064Y024960D01*
X007052Y024935D01*
X007036Y024913D01*
X007017Y024893D01*
X006996Y024876D01*
X006972Y024861D01*
X006947Y024851D01*
X006921Y024843D01*
X006894Y024839D01*
X006866Y024839D01*
X006839Y024843D01*
X006813Y024851D01*
X006788Y024861D01*
X006764Y024876D01*
X006743Y024893D01*
X006724Y024913D01*
X006708Y024935D01*
X006696Y024960D01*
X006687Y024985D01*
X006681Y025012D01*
X006679Y025040D01*
X006680Y025040D01*
X006682Y025012D01*
X006688Y024986D01*
X006697Y024960D01*
X006709Y024936D01*
X006725Y024914D01*
X006744Y024894D01*
X006765Y024876D01*
X006788Y024862D01*
X006813Y024852D01*
X006839Y024844D01*
X006866Y024840D01*
X006894Y024840D01*
X006921Y024844D01*
X006947Y024852D01*
X006972Y024862D01*
X006995Y024876D01*
X007016Y024894D01*
X007035Y024914D01*
X007051Y024936D01*
X007063Y024960D01*
X007072Y024986D01*
X007078Y025012D01*
X007080Y025040D01*
X007079Y025040D01*
X007077Y025012D01*
X007072Y024986D01*
X007062Y024960D01*
X007050Y024936D01*
X007034Y024914D01*
X007016Y024894D01*
X006995Y024877D01*
X006971Y024863D01*
X006947Y024852D01*
X006920Y024845D01*
X006894Y024841D01*
X006866Y024841D01*
X006840Y024845D01*
X006813Y024852D01*
X006789Y024863D01*
X006765Y024877D01*
X006744Y024894D01*
X006726Y024914D01*
X006710Y024936D01*
X006698Y024960D01*
X006688Y024986D01*
X006683Y025012D01*
X006681Y025040D01*
X006682Y025040D01*
X006684Y025013D01*
X006689Y024986D01*
X006699Y024961D01*
X006711Y024937D01*
X006727Y024915D01*
X006745Y024895D01*
X006766Y024878D01*
X006789Y024864D01*
X006814Y024853D01*
X006840Y024846D01*
X006867Y024842D01*
X006893Y024842D01*
X006920Y024846D01*
X006946Y024853D01*
X006971Y024864D01*
X006994Y024878D01*
X007015Y024895D01*
X007033Y024915D01*
X007049Y024937D01*
X007061Y024961D01*
X007071Y024986D01*
X007076Y025013D01*
X007078Y025040D01*
X007077Y025040D01*
X007075Y025013D01*
X007070Y024986D01*
X007061Y024961D01*
X007048Y024937D01*
X007033Y024915D01*
X007014Y024896D01*
X006993Y024879D01*
X006970Y024865D01*
X006946Y024854D01*
X006920Y024847D01*
X006893Y024843D01*
X006867Y024843D01*
X006840Y024847D01*
X006814Y024854D01*
X006790Y024865D01*
X006767Y024879D01*
X006746Y024896D01*
X006727Y024915D01*
X006712Y024937D01*
X006699Y024961D01*
X006690Y024986D01*
X006685Y025013D01*
X006683Y025040D01*
X006684Y025040D01*
X006686Y025013D01*
X006691Y024987D01*
X006700Y024962D01*
X006713Y024938D01*
X006728Y024916D01*
X006746Y024897D01*
X006767Y024880D01*
X006790Y024866D01*
X006814Y024855D01*
X006840Y024848D01*
X006867Y024844D01*
X006893Y024844D01*
X006920Y024848D01*
X006946Y024855D01*
X006970Y024866D01*
X006993Y024880D01*
X007014Y024897D01*
X007032Y024916D01*
X007047Y024938D01*
X007060Y024962D01*
X007069Y024987D01*
X007074Y025013D01*
X007076Y025040D01*
X007075Y025040D01*
X007073Y025012D01*
X007067Y024985D01*
X007057Y024959D01*
X007044Y024934D01*
X007027Y024912D01*
X007008Y024892D01*
X006985Y024876D01*
X006961Y024863D01*
X006935Y024853D01*
X006908Y024847D01*
X006880Y024845D01*
X006852Y024847D01*
X006825Y024853D01*
X006799Y024863D01*
X006775Y024876D01*
X006752Y024892D01*
X006733Y024912D01*
X006716Y024934D01*
X006703Y024959D01*
X006693Y024985D01*
X006687Y025012D01*
X006685Y025040D01*
X006686Y025040D01*
X006688Y025012D01*
X006694Y024985D01*
X006704Y024959D01*
X006717Y024935D01*
X006734Y024913D01*
X006753Y024893D01*
X006775Y024877D01*
X006800Y024863D01*
X006825Y024854D01*
X006852Y024848D01*
X006880Y024846D01*
X006908Y024848D01*
X006935Y024854D01*
X006960Y024863D01*
X006985Y024877D01*
X007007Y024893D01*
X007026Y024913D01*
X007043Y024935D01*
X007056Y024959D01*
X007066Y024985D01*
X007072Y025012D01*
X007074Y025040D01*
X007073Y025040D01*
X007071Y025012D01*
X007065Y024985D01*
X007055Y024959D01*
X007042Y024935D01*
X007026Y024913D01*
X007006Y024894D01*
X006984Y024878D01*
X006960Y024864D01*
X006934Y024855D01*
X006907Y024849D01*
X006880Y024847D01*
X006853Y024849D01*
X006826Y024855D01*
X006800Y024864D01*
X006776Y024878D01*
X006754Y024894D01*
X006734Y024913D01*
X006718Y024935D01*
X006705Y024959D01*
X006695Y024985D01*
X006689Y025012D01*
X006687Y025040D01*
X006688Y025040D01*
X006690Y025012D01*
X006696Y024986D01*
X006706Y024960D01*
X006719Y024936D01*
X006735Y024914D01*
X006754Y024895D01*
X006776Y024878D01*
X006800Y024865D01*
X006826Y024856D01*
X006853Y024850D01*
X006880Y024848D01*
X006907Y024850D01*
X006934Y024856D01*
X006960Y024865D01*
X006984Y024878D01*
X007006Y024895D01*
X007025Y024914D01*
X007041Y024936D01*
X007054Y024960D01*
X007064Y024986D01*
X007070Y025012D01*
X007072Y025040D01*
X007071Y025040D01*
X007069Y025012D01*
X007063Y024986D01*
X007054Y024960D01*
X007041Y024936D01*
X007024Y024915D01*
X007005Y024896D01*
X006983Y024879D01*
X006959Y024866D01*
X006934Y024857D01*
X006907Y024851D01*
X006880Y024849D01*
X006853Y024851D01*
X006826Y024857D01*
X006801Y024866D01*
X006777Y024879D01*
X006755Y024896D01*
X006736Y024915D01*
X006719Y024936D01*
X006706Y024960D01*
X006697Y024986D01*
X006691Y025012D01*
X006689Y025040D01*
X006690Y025040D01*
X006692Y025013D01*
X006698Y024986D01*
X006707Y024961D01*
X006720Y024937D01*
X006737Y024915D01*
X006756Y024896D01*
X006777Y024880D01*
X006801Y024867D01*
X006827Y024858D01*
X006853Y024852D01*
X006880Y024850D01*
X006907Y024852D01*
X006933Y024858D01*
X006959Y024867D01*
X006983Y024880D01*
X007004Y024896D01*
X007023Y024915D01*
X007040Y024937D01*
X007053Y024961D01*
X007062Y024986D01*
X007068Y025013D01*
X007070Y025040D01*
X007069Y025040D01*
X007067Y025013D01*
X007061Y024986D01*
X007052Y024961D01*
X007039Y024938D01*
X007023Y024916D01*
X007004Y024897D01*
X006982Y024881D01*
X006958Y024868D01*
X006933Y024859D01*
X006907Y024853D01*
X006880Y024851D01*
X006853Y024853D01*
X006827Y024859D01*
X006802Y024868D01*
X006778Y024881D01*
X006756Y024897D01*
X006737Y024916D01*
X006721Y024938D01*
X006708Y024961D01*
X006699Y024986D01*
X006693Y025013D01*
X006691Y025040D01*
D17*
X006535Y024939D02*
X006535Y024889D01*
X006535Y024914D02*
X006385Y024914D01*
X006385Y024889D02*
X006385Y024939D01*
X006410Y025134D02*
X006510Y025134D01*
X006535Y025159D01*
X006535Y025209D01*
X006510Y025234D01*
X006410Y025234D02*
X006385Y025209D01*
X006385Y025159D01*
X006410Y025134D01*
X006410Y025429D02*
X006435Y025429D01*
X006460Y025454D01*
X006460Y025504D01*
X006485Y025529D01*
X006510Y025529D01*
X006535Y025504D01*
X006535Y025454D01*
X006510Y025429D01*
X006410Y025429D02*
X006385Y025454D01*
X006385Y025504D01*
X006410Y025529D01*
X006385Y024694D02*
X006535Y024694D01*
X006385Y024594D01*
X006535Y024594D01*
X006510Y024400D02*
X006410Y024400D01*
X006385Y024375D01*
X006385Y024325D01*
X006410Y024300D01*
X006510Y024300D01*
X006535Y024325D01*
X006535Y024375D01*
X006510Y024400D01*
X006535Y024105D02*
X006485Y024055D01*
X006485Y024080D02*
X006485Y024005D01*
X006535Y024005D02*
X006385Y024005D01*
X006385Y024080D01*
X006410Y024105D01*
X006460Y024105D01*
X006485Y024080D01*
X006385Y023810D02*
X006385Y023710D01*
X006385Y023760D02*
X006535Y023760D01*
X006510Y023516D02*
X006535Y023491D01*
X006535Y023441D01*
X006510Y023416D01*
X006410Y023416D01*
X006385Y023441D01*
X006385Y023491D01*
X006410Y023516D01*
X006385Y023221D02*
X006385Y023121D01*
X006535Y023121D01*
X006535Y023221D01*
X006460Y023171D02*
X006460Y023121D01*
X006535Y022926D02*
X006535Y022826D01*
X006385Y022826D01*
X006385Y022632D02*
X006385Y022532D01*
X006535Y022532D01*
X006535Y022632D01*
X006460Y022582D02*
X006460Y022532D01*
D18*
X020089Y022556D02*
X020089Y022327D01*
X020089Y022556D02*
X022913Y022556D01*
X022913Y022327D01*
X022913Y021056D02*
X022913Y020827D01*
X020089Y020827D01*
X020089Y021056D01*
X027429Y023287D02*
X027657Y023287D01*
X027429Y023287D02*
X027429Y026112D01*
X027657Y026112D01*
X028929Y026112D02*
X029157Y026112D01*
X029157Y023287D01*
X028929Y023287D01*
X031429Y022126D02*
X031429Y021897D01*
X031429Y022126D02*
X034253Y022126D01*
X034253Y021897D01*
X034189Y022977D02*
X034417Y022977D01*
X034417Y025802D01*
X034189Y025802D01*
X032917Y025802D02*
X032689Y025802D01*
X032689Y022977D01*
X032917Y022977D01*
X034253Y020626D02*
X034253Y020397D01*
X031429Y020397D01*
X031429Y020626D01*
X031449Y019896D02*
X031449Y019667D01*
X031449Y019896D02*
X034273Y019896D01*
X034273Y019667D01*
X034273Y018396D02*
X034273Y018167D01*
X031449Y018167D01*
X031449Y018396D01*
X031447Y016452D02*
X031219Y016452D01*
X031219Y013627D01*
X031447Y013627D01*
X030787Y013587D02*
X030559Y013587D01*
X030787Y013587D02*
X030787Y016412D01*
X030559Y016412D01*
X029287Y016412D02*
X029059Y016412D01*
X029059Y013587D01*
X029287Y013587D01*
X032719Y013627D02*
X032947Y013627D01*
X032947Y016452D01*
X032719Y016452D01*
X040869Y014305D02*
X040869Y010290D01*
X042522Y010290D02*
X042522Y014305D01*
X040869Y014305D01*
X030096Y009509D02*
X030096Y005494D01*
X028049Y005494D01*
X028049Y009509D01*
X034739Y005392D02*
X034967Y005392D01*
X034739Y005392D02*
X034739Y002567D01*
X034967Y002567D01*
X036239Y002567D02*
X036467Y002567D01*
X036467Y005392D01*
X036239Y005392D01*
X038359Y005456D02*
X038587Y005456D01*
X038359Y005456D02*
X038359Y002631D01*
X038587Y002631D01*
X039859Y002631D02*
X040087Y002631D01*
X040087Y005456D01*
X039859Y005456D01*
X042619Y004665D02*
X042619Y003878D01*
X043160Y004271D01*
X042619Y004665D01*
X043007Y007378D02*
X043007Y008165D01*
X042466Y007771D01*
X043007Y007378D01*
X041353Y020765D02*
X041747Y021305D01*
X040959Y021305D01*
X041353Y020765D01*
X043899Y020898D02*
X044687Y020898D01*
X044293Y021438D01*
X043899Y020898D01*
X045029Y025067D02*
X045029Y025296D01*
X045029Y025067D02*
X047853Y025067D01*
X047853Y025296D01*
X047853Y026567D02*
X047853Y026796D01*
X045029Y026796D01*
X045029Y026567D01*
X043827Y027337D02*
X043599Y027337D01*
X043827Y027337D02*
X043827Y030162D01*
X043599Y030162D01*
X042327Y030162D02*
X042099Y030162D01*
X042099Y027337D01*
X042327Y027337D01*
X037897Y026867D02*
X037669Y026867D01*
X037897Y026867D02*
X037897Y029692D01*
X037669Y029692D01*
X036397Y029692D02*
X036169Y029692D01*
X036169Y026867D01*
X036397Y026867D01*
X034407Y026937D02*
X034179Y026937D01*
X034407Y026937D02*
X034407Y029762D01*
X034179Y029762D01*
X032907Y029762D02*
X032679Y029762D01*
X032679Y026937D01*
X032907Y026937D01*
X029167Y027237D02*
X028939Y027237D01*
X029167Y027237D02*
X029167Y030062D01*
X028939Y030062D01*
X027667Y030062D02*
X027439Y030062D01*
X027439Y027237D01*
X027667Y027237D01*
X024133Y027177D02*
X024133Y027406D01*
X021309Y027406D01*
X021309Y027177D01*
X021309Y025906D02*
X021309Y025677D01*
X024133Y025677D01*
X024133Y025906D01*
D19*
X051552Y024673D02*
X052393Y024673D01*
X052288Y024778D02*
X052183Y024883D01*
X052078Y024883D01*
X051973Y024778D01*
X051973Y024568D01*
X051867Y024463D01*
X051762Y024463D01*
X051657Y024568D01*
X051657Y024778D01*
X051762Y024883D01*
X051867Y025107D02*
X051657Y025317D01*
X052288Y025317D01*
X052288Y025107D02*
X052288Y025528D01*
X052183Y025752D02*
X052288Y025857D01*
X052288Y026067D01*
X052183Y026172D01*
X052078Y026172D01*
X051973Y026067D01*
X051973Y025962D01*
X051973Y026067D02*
X051867Y026172D01*
X051762Y026172D01*
X051657Y026067D01*
X051657Y025857D01*
X051762Y025752D01*
X052288Y024778D02*
X052288Y024568D01*
X052183Y024463D01*
X052183Y024239D02*
X051657Y024239D01*
X052183Y024239D02*
X052288Y024133D01*
X052288Y023923D01*
X052183Y023818D01*
X051657Y023818D01*
X009658Y006046D02*
X009658Y005836D01*
X009553Y005731D01*
X009658Y005507D02*
X009027Y005086D01*
X009027Y005507D02*
X009658Y005086D01*
X009132Y005731D02*
X009027Y005836D01*
X009027Y006046D01*
X009132Y006151D01*
X009237Y006151D01*
X009343Y006046D01*
X009448Y006151D01*
X009553Y006151D01*
X009658Y006046D01*
X009343Y006046D02*
X009343Y005941D01*
D20*
X004343Y012676D03*
D21*
X002693Y012676D03*
D22*
X005918Y012161D03*
X005918Y013241D03*
X005918Y014321D03*
X005918Y015401D03*
X005918Y016481D03*
X005918Y011081D03*
X005918Y010001D03*
X005918Y008921D03*
D23*
X005418Y009461D03*
X005418Y010541D03*
X005418Y011621D03*
X005418Y012701D03*
X005418Y013781D03*
X005418Y014861D03*
X005418Y015941D03*
D24*
X042656Y025974D03*
D25*
X042212Y007771D03*
X043414Y004271D03*
D26*
X041353Y020511D03*
X044293Y021692D03*
M02*
