G75*
G70*
%OFA0B0*%
%FSLAX24Y24*%
%IPPOS*%
%LPD*%
%AMOC8*
5,1,8,0,0,1.08239X$1,22.5*
%
%ADD10C,0.2620*%
%ADD11C,0.1080*%
%ADD12R,0.0316X0.0946*%
%ADD13R,0.0592X0.0671*%
%ADD14R,0.0671X0.0592*%
%ADD15R,0.1104X0.1025*%
%ADD16R,0.0950X0.0320*%
%ADD17O,0.1200X0.0640*%
%ADD18O,0.0600X0.1120*%
%ADD19R,0.0946X0.0316*%
%ADD20R,0.0946X0.0237*%
%ADD21R,0.1025X0.1104*%
%ADD22OC8,0.0680*%
%ADD23C,0.2080*%
%ADD24R,0.0710X0.0789*%
%ADD25OC8,0.0654*%
%ADD26C,0.1480*%
%ADD27R,0.0789X0.0710*%
%ADD28R,0.0870X0.0670*%
%ADD29R,0.0870X0.1580*%
%ADD30R,0.0237X0.0671*%
%ADD31R,0.0671X0.0237*%
%ADD32O,0.0680X0.1280*%
%ADD33R,0.0840X0.2180*%
%ADD34C,0.0480*%
%ADD35R,0.0480X0.0480*%
%ADD36R,0.0480X0.0480*%
%ADD37OC8,0.0480*%
D10*
X006643Y003109D03*
X055453Y003109D03*
X055453Y030689D03*
X006643Y030699D03*
D11*
X009803Y030669D03*
X025523Y030669D03*
X052293Y030689D03*
X052293Y003109D03*
X025543Y003109D03*
X009753Y003089D03*
D12*
X021453Y018445D03*
X021953Y018445D03*
X022453Y018445D03*
X022953Y018445D03*
X022953Y020493D03*
X022453Y020493D03*
X021953Y020493D03*
X021453Y020493D03*
X043493Y021215D03*
X043993Y021215D03*
X044493Y021215D03*
X044993Y021215D03*
X045493Y021215D03*
X045993Y021215D03*
X046493Y021215D03*
X046493Y023263D03*
X045993Y023263D03*
X045493Y023263D03*
X044993Y023263D03*
X044493Y023263D03*
X043993Y023263D03*
X043493Y023263D03*
X043503Y025965D03*
X044003Y025965D03*
X044503Y025965D03*
X045003Y025965D03*
X045503Y025965D03*
X046003Y025965D03*
X046503Y025965D03*
X046503Y028013D03*
X046003Y028013D03*
X045503Y028013D03*
X045003Y028013D03*
X044503Y028013D03*
X044003Y028013D03*
X043503Y028013D03*
D13*
X044369Y028979D03*
X045038Y028979D03*
X040828Y028239D03*
X040159Y028239D03*
X036928Y027809D03*
X036259Y027809D03*
X036168Y026099D03*
X035499Y026099D03*
X028608Y028449D03*
X027939Y028449D03*
X037189Y020999D03*
X037858Y020999D03*
X038859Y018959D03*
X039528Y018959D03*
X044989Y019709D03*
X045658Y019709D03*
X049329Y019739D03*
X050077Y019739D03*
X050017Y018799D03*
X049269Y018799D03*
X049239Y017809D03*
X049987Y017809D03*
X049977Y016799D03*
X049229Y016799D03*
X049219Y015799D03*
X049967Y015799D03*
X049897Y014789D03*
X049149Y014789D03*
X048257Y014149D03*
X047509Y014149D03*
X047529Y013149D03*
X048277Y013149D03*
X049169Y012799D03*
X049917Y012799D03*
X049917Y013789D03*
X049169Y013789D03*
X049189Y011779D03*
X049937Y011779D03*
X048307Y011819D03*
X047559Y011819D03*
X047549Y010809D03*
X048297Y010809D03*
X049209Y010189D03*
X049957Y010189D03*
X042067Y006219D03*
X041319Y006219D03*
X041779Y005019D03*
X042448Y005019D03*
X042737Y003999D03*
X041989Y003999D03*
X047409Y005019D03*
X048078Y005019D03*
X048109Y003769D03*
X048857Y003769D03*
X038178Y008269D03*
X037509Y008269D03*
X036418Y013049D03*
X035749Y013049D03*
X035749Y014159D03*
X036497Y014159D03*
X040629Y014869D03*
X041377Y014869D03*
X049309Y020829D03*
X050057Y020829D03*
X052799Y021849D03*
X053547Y021849D03*
X053557Y022939D03*
X052809Y022939D03*
X046878Y024759D03*
X046209Y024759D03*
X043718Y024139D03*
X043049Y024139D03*
X025897Y013949D03*
X025149Y013949D03*
X025428Y013069D03*
X024759Y013069D03*
X023488Y015669D03*
X022819Y015669D03*
X022779Y016569D03*
X023527Y016569D03*
X020838Y016029D03*
X020169Y016029D03*
X017888Y014589D03*
X017219Y014589D03*
X017039Y011629D03*
X017708Y011629D03*
X024539Y010179D03*
X025208Y010179D03*
X021568Y007399D03*
X020899Y007399D03*
X009207Y010989D03*
X008459Y010989D03*
X008449Y012069D03*
X009197Y012069D03*
X009207Y013179D03*
X008459Y013179D03*
X008459Y014219D03*
X009207Y014219D03*
X009197Y015299D03*
X008449Y015299D03*
X008459Y016379D03*
X009207Y016379D03*
X009207Y017439D03*
X008459Y017439D03*
X019389Y019419D03*
X020137Y019419D03*
D14*
X020213Y020354D03*
X020213Y021024D03*
X025503Y020845D03*
X025503Y021593D03*
X027423Y025144D03*
X027423Y025814D03*
X033043Y025864D03*
X033043Y025194D03*
X033153Y022684D03*
X033153Y022014D03*
X032563Y019064D03*
X032563Y018394D03*
X028493Y017944D03*
X028493Y017274D03*
X027573Y014513D03*
X027573Y013765D03*
X026143Y009684D03*
X026143Y009014D03*
X018853Y013074D03*
X018853Y013744D03*
X008843Y010103D03*
X008843Y009355D03*
X042883Y006943D03*
X042883Y006195D03*
X047333Y006145D03*
X048183Y006145D03*
X048183Y006893D03*
X047333Y006893D03*
X047133Y003793D03*
X047133Y003045D03*
X042943Y003163D03*
X042943Y002415D03*
X049833Y021795D03*
X049833Y022543D03*
X050753Y024055D03*
X050753Y024803D03*
X037973Y030344D03*
X037973Y031014D03*
X014833Y028894D03*
X014833Y028224D03*
D15*
X021523Y027499D03*
X024043Y027499D03*
X032183Y027489D03*
X034703Y027489D03*
X022823Y022649D03*
X020303Y022649D03*
X039053Y020469D03*
X041573Y020469D03*
D16*
X042033Y017669D03*
X042033Y017169D03*
X042033Y016669D03*
X042033Y016169D03*
X039973Y016169D03*
X039973Y016669D03*
X039973Y017169D03*
X039973Y017669D03*
D17*
X024803Y017439D03*
X024803Y018439D03*
D18*
X028283Y031469D03*
X029283Y031469D03*
X031283Y031469D03*
X032283Y031469D03*
X033283Y031469D03*
D19*
X032134Y025709D03*
X032134Y025209D03*
X032134Y024709D03*
X032134Y024209D03*
X032134Y023709D03*
X032134Y023209D03*
X032134Y022709D03*
X032134Y022209D03*
X028512Y022209D03*
X028512Y022709D03*
X028512Y023209D03*
X028512Y023709D03*
X028512Y024209D03*
X028512Y024709D03*
X028512Y025209D03*
X028512Y025709D03*
X029520Y018879D03*
X029520Y018379D03*
X029520Y017879D03*
X029520Y017379D03*
X031567Y017379D03*
X031567Y017879D03*
X031567Y018379D03*
X031567Y018879D03*
X025727Y007009D03*
X025727Y006509D03*
X025727Y006009D03*
X025727Y005509D03*
X023680Y005509D03*
X023680Y006009D03*
X023680Y006509D03*
X023680Y007009D03*
X021437Y005899D03*
X021437Y005399D03*
X021437Y004899D03*
X021437Y004399D03*
X019390Y004399D03*
X019390Y004899D03*
X019390Y005399D03*
X019390Y005899D03*
X043960Y006019D03*
X043960Y006519D03*
X043960Y005519D03*
X043960Y005019D03*
X043960Y004519D03*
X043960Y004019D03*
X043960Y003519D03*
X046007Y003519D03*
X046007Y004019D03*
X046007Y004519D03*
X046007Y005019D03*
X046007Y005519D03*
X046007Y006019D03*
X046007Y006519D03*
D20*
X023654Y008094D03*
X023654Y008344D03*
X023654Y008594D03*
X023654Y008844D03*
X023654Y009094D03*
X023654Y009344D03*
X023654Y009594D03*
X023654Y009844D03*
X023654Y010094D03*
X023654Y010344D03*
X023654Y010594D03*
X023654Y010844D03*
X023654Y011094D03*
X023654Y011344D03*
X023654Y011594D03*
X023654Y011844D03*
X023654Y012094D03*
X023654Y012344D03*
X023654Y012594D03*
X023654Y012844D03*
X023654Y013094D03*
X023654Y013344D03*
X023654Y013594D03*
X023654Y013844D03*
X023654Y014094D03*
X023654Y014344D03*
X023654Y014594D03*
X023654Y014844D03*
X019953Y014844D03*
X019953Y014594D03*
X019953Y014344D03*
X019953Y014094D03*
X019953Y013844D03*
X019953Y013594D03*
X019953Y013344D03*
X019953Y013094D03*
X019953Y012844D03*
X019953Y012594D03*
X019953Y012344D03*
X019953Y012094D03*
X019953Y011844D03*
X019953Y011594D03*
X019953Y011344D03*
X019953Y011094D03*
X019953Y010844D03*
X019953Y010594D03*
X019953Y010344D03*
X019953Y010094D03*
X019953Y009844D03*
X019953Y009594D03*
X019953Y009344D03*
X019953Y009094D03*
X019953Y008844D03*
X019953Y008594D03*
X019953Y008344D03*
X019953Y008094D03*
D21*
X036483Y028999D03*
X036483Y031519D03*
D22*
X050893Y022789D03*
X051893Y022789D03*
X051893Y021789D03*
X050893Y021789D03*
X050893Y020789D03*
X051893Y020789D03*
X051893Y019789D03*
X050893Y019789D03*
X050893Y018789D03*
X051893Y018789D03*
X051893Y017789D03*
X050893Y017789D03*
X050893Y016789D03*
X051893Y016789D03*
X051893Y015789D03*
X050893Y015789D03*
X050893Y014789D03*
X051893Y014789D03*
X051893Y013789D03*
X050893Y013789D03*
X050893Y012789D03*
X051893Y012789D03*
X051893Y011789D03*
X050893Y011789D03*
X050893Y010789D03*
X051893Y010789D03*
X054223Y010439D03*
X055223Y010979D03*
X054223Y011529D03*
X055223Y012069D03*
X054223Y012609D03*
X055223Y013159D03*
X054223Y013699D03*
X055223Y014239D03*
X054223Y014789D03*
X055223Y015329D03*
X054223Y015869D03*
X055223Y016419D03*
X054223Y016959D03*
X055223Y017499D03*
X054223Y018049D03*
X055223Y018589D03*
X054223Y019129D03*
X055223Y019679D03*
X054223Y020219D03*
X055223Y020759D03*
X054223Y021309D03*
X055223Y021849D03*
X054223Y022389D03*
X055223Y022939D03*
X054223Y023479D03*
X017363Y005759D03*
X016363Y005759D03*
X015363Y005759D03*
X014363Y005759D03*
X013363Y005759D03*
X012363Y005759D03*
X011363Y005759D03*
X010363Y005759D03*
X009363Y005759D03*
X009363Y004759D03*
X010363Y004759D03*
X011363Y004759D03*
X012363Y004759D03*
X013363Y004759D03*
X014363Y004759D03*
X015363Y004759D03*
X016363Y004759D03*
X017363Y004759D03*
X007693Y009899D03*
X006693Y010439D03*
X007693Y010979D03*
X006693Y011519D03*
X007693Y012059D03*
X006693Y012599D03*
X007693Y013139D03*
X006693Y013679D03*
X007693Y014219D03*
X006693Y014759D03*
X007693Y015299D03*
X006693Y015839D03*
X007693Y016379D03*
X006693Y016919D03*
X007693Y017459D03*
D23*
X007193Y020239D03*
X007193Y007119D03*
X054723Y007699D03*
X054723Y026219D03*
D24*
X048724Y025959D03*
X047622Y025959D03*
X047202Y023689D03*
X048304Y023689D03*
X045544Y016609D03*
X044442Y016609D03*
X044442Y015269D03*
X045544Y015269D03*
X045534Y014229D03*
X044432Y014229D03*
X044412Y013219D03*
X045514Y013219D03*
X045514Y012219D03*
X044412Y012219D03*
X044392Y011209D03*
X045494Y011209D03*
X045514Y010149D03*
X044412Y010149D03*
X044412Y009219D03*
X045514Y009219D03*
X045504Y008239D03*
X044402Y008239D03*
X049662Y009219D03*
X050764Y009219D03*
X051362Y007719D03*
X052464Y007719D03*
X052474Y006169D03*
X051372Y006169D03*
X012654Y028219D03*
X011552Y028219D03*
X011742Y029419D03*
X012844Y029419D03*
D25*
X009098Y025521D03*
X008310Y025521D03*
X008310Y024537D03*
X009098Y024537D03*
D26*
X007243Y022529D03*
X007243Y027529D03*
D27*
X026973Y007540D03*
X026973Y006438D03*
X047153Y015788D03*
X047153Y016890D03*
X048353Y018168D03*
X048353Y019270D03*
X048323Y020828D03*
X048323Y021930D03*
X051903Y024958D03*
X051903Y026060D03*
X050703Y026478D03*
X051853Y027138D03*
X050703Y027580D03*
X051853Y028240D03*
X049383Y027920D03*
X049383Y026818D03*
D28*
X022763Y025979D03*
X022763Y025079D03*
X022763Y024179D03*
D29*
X020283Y025069D03*
D30*
X034712Y011136D03*
X034968Y011136D03*
X035224Y011136D03*
X035479Y011136D03*
X035735Y011136D03*
X035991Y011136D03*
X036247Y011136D03*
X036503Y011136D03*
X036759Y011136D03*
X037015Y011136D03*
X037015Y008282D03*
X036759Y008282D03*
X036503Y008282D03*
X036247Y008282D03*
X035991Y008282D03*
X035735Y008282D03*
X035479Y008282D03*
X035224Y008282D03*
X034968Y008282D03*
X034712Y008282D03*
D31*
X036256Y021996D03*
X036256Y022251D03*
X036256Y022507D03*
X036256Y022763D03*
X036256Y023019D03*
X036256Y023275D03*
X036256Y023531D03*
X036256Y023787D03*
X036256Y024043D03*
X036256Y024299D03*
X036256Y024555D03*
X036256Y024810D03*
X036256Y025066D03*
X036256Y025322D03*
X039110Y025322D03*
X039110Y025066D03*
X039110Y024810D03*
X039110Y024555D03*
X039110Y024299D03*
X039110Y024043D03*
X039110Y023787D03*
X039110Y023531D03*
X039110Y023275D03*
X039110Y023019D03*
X039110Y022763D03*
X039110Y022507D03*
X039110Y022251D03*
X039110Y021996D03*
D32*
X025973Y019759D03*
X024973Y019759D03*
X023973Y019759D03*
D33*
X015233Y014579D03*
X015233Y010779D03*
D34*
X021003Y010839D03*
X021003Y010089D03*
X022713Y010589D03*
X022703Y009169D03*
X026763Y009589D03*
X026883Y012469D03*
X024633Y012449D03*
X024503Y013839D03*
X022853Y013769D03*
X021503Y013769D03*
X021013Y014599D03*
X021823Y019459D03*
X037053Y026919D03*
X040093Y019119D03*
X041303Y018219D03*
X040093Y013339D03*
X040743Y012409D03*
X041893Y011469D03*
X042933Y010689D03*
X043553Y012719D03*
X042933Y008189D03*
X043313Y007619D03*
X040173Y007919D03*
X042633Y005629D03*
X043113Y005019D03*
X040533Y004549D03*
X047663Y004359D03*
D35*
X046823Y004439D03*
X048703Y005039D03*
X045413Y007489D03*
X041143Y004999D03*
X038863Y008229D03*
X034203Y008289D03*
X037943Y011039D03*
X037133Y011789D03*
X036333Y012329D03*
X039863Y015689D03*
X042603Y014069D03*
X043723Y014219D03*
X043583Y013259D03*
X043113Y012089D03*
X043113Y011289D03*
X050563Y008109D03*
X046433Y017479D03*
X045223Y017459D03*
X048313Y020089D03*
X047183Y021799D03*
X047723Y022929D03*
X047603Y024789D03*
X049503Y025949D03*
X050393Y025619D03*
X050713Y028249D03*
X045723Y028889D03*
X043633Y029009D03*
X041483Y028239D03*
X037653Y029639D03*
X040113Y031419D03*
X034013Y028859D03*
X035703Y027819D03*
X036763Y026089D03*
X035613Y024939D03*
X033713Y025189D03*
X036943Y021879D03*
X034463Y019959D03*
X032513Y019719D03*
X032133Y021719D03*
X028513Y021639D03*
X024003Y023189D03*
X026623Y025189D03*
X024933Y027889D03*
X013713Y029429D03*
X028793Y018879D03*
X027903Y017949D03*
X025453Y015349D03*
X020943Y013009D03*
X019153Y011729D03*
X018073Y013729D03*
X024863Y009459D03*
X021983Y008899D03*
X022223Y007419D03*
X020793Y003649D03*
X015383Y018549D03*
X038303Y019119D03*
X042553Y020499D03*
X044993Y020449D03*
X042903Y023019D03*
X045003Y023989D03*
X045003Y025159D03*
D36*
X036553Y021389D03*
X035723Y020969D03*
X035173Y021809D03*
X034083Y022349D03*
X034443Y023279D03*
X033953Y023359D03*
X034113Y024299D03*
X034963Y024739D03*
X034113Y025739D03*
X033263Y024209D03*
X033273Y018369D03*
X033273Y017309D03*
X028373Y016529D03*
X027603Y015089D03*
X024943Y016539D03*
X028253Y012459D03*
X038863Y008919D03*
X024173Y004699D03*
X013743Y027949D03*
D37*
X037513Y013159D03*
X046203Y010549D03*
X046333Y009699D03*
X046623Y007619D03*
X043993Y007099D03*
X046753Y005579D03*
X039553Y006929D03*
X037513Y007549D03*
X051723Y023989D03*
X052693Y023989D03*
M02*
