%
M48
M72
T01C0.0240
T02C0.0240
T03C0.0320
T04C0.0360
T05C0.0374
T06C0.0400
T07C0.1000
T08C0.1300
T09C0.2540
%
T01
X20793Y3649
X22223Y7419
X21983Y8899
X22703Y9169
X21003Y10089
X21003Y10839
X22713Y10589
X24863Y9459
X26763Y9589
X26883Y12469
X24633Y12449
X24503Y13839
X22853Y13769
X21503Y13769
X20943Y13009
X19153Y11729
X18073Y13729
X21013Y14599
X25453Y15349
X27903Y17949
X28793Y18879
X32513Y19719
X34463Y19959
X32133Y21719
X28513Y21639
X24003Y23189
X26623Y25189
X24933Y27889
X34013Y28859
X35703Y27819
X37053Y26919
X36763Y26089
X35613Y24939
X33713Y25189
X36943Y21879
X38303Y19119
X40093Y19119
X41303Y18219
X42553Y20499
X44993Y20449
X47183Y21799
X47723Y22929
X47603Y24789
X49503Y25949
X50393Y25619
X50713Y28249
X45723Y28889
X43633Y29009
X41483Y28239
X37653Y29639
X40113Y31419
X45003Y25159
X45003Y23989
X42903Y23019
X48313Y20089
X46433Y17479
X45223Y17459
X39863Y15689
X42603Y14069
X43723Y14219
X43583Y13259
X43553Y12719
X43113Y12089
X43113Y11289
X42933Y10689
X41893Y11469
X40743Y12409
X40093Y13339
X37133Y11789
X36333Y12329
X37943Y11039
X34203Y8289
X38863Y8229
X40173Y7919
X42933Y8189
X43313Y7619
X45413Y7489
X42633Y5629
X43113Y5019
X41143Y4999
X40533Y4549
X46823Y4439
X47663Y4359
X48703Y5039
X50563Y8109
X21823Y19459
X15383Y18549
X13713Y29429
T02
X13743Y27949
X33263Y24209
X34113Y24299
X34963Y24739
X34113Y25739
X33953Y23359
X34443Y23279
X34083Y22349
X35173Y21809
X35723Y20969
X36553Y21389
X33273Y18369
X33273Y17309
X28373Y16529
X27603Y15089
X24943Y16539
X28253Y12459
X37513Y13159
X38863Y8919
X37513Y7549
X39553Y6929
X43993Y7099
X46623Y7619
X46753Y5579
X46333Y9699
X46203Y10549
X24173Y4699
X51723Y23989
X52693Y23989
T03
X33283Y31469
X32283Y31469
X31283Y31469
X29283Y31469
X28283Y31469
T04
X24803Y18439
X24803Y17439
T05
X9098Y24537
X8310Y24537
X8310Y25521
X9098Y25521
T06
X7693Y17459
X6693Y16919
X7693Y16379
X6693Y15839
X7693Y15299
X6693Y14759
X7693Y14219
X6693Y13679
X7693Y13139
X6693Y12599
X7693Y12059
X6693Y11519
X7693Y10979
X6693Y10439
X7693Y9899
X9363Y5759
X10363Y5759
X11363Y5759
X12363Y5759
X13363Y5759
X14363Y5759
X15363Y5759
X16363Y5759
X17363Y5759
X17363Y4759
X16363Y4759
X15363Y4759
X14363Y4759
X13363Y4759
X12363Y4759
X11363Y4759
X10363Y4759
X9363Y4759
X23973Y19759
X24973Y19759
X25973Y19759
X50893Y19789
X51893Y19789
X51893Y20789
X50893Y20789
X50893Y21789
X51893Y21789
X51893Y22789
X50893Y22789
X54223Y22389
X55223Y21849
X54223Y21309
X55223Y20759
X54223Y20219
X55223Y19679
X54223Y19129
X55223Y18589
X54223Y18049
X55223Y17499
X54223Y16959
X55223Y16419
X54223Y15869
X55223Y15329
X54223Y14789
X55223Y14239
X54223Y13699
X55223Y13159
X54223Y12609
X55223Y12069
X54223Y11529
X55223Y10979
X54223Y10439
X51893Y10789
X50893Y10789
X50893Y11789
X51893Y11789
X51893Y12789
X50893Y12789
X50893Y13789
X51893Y13789
X51893Y14789
X50893Y14789
X50893Y15789
X51893Y15789
X51893Y16789
X50893Y16789
X50893Y17789
X51893Y17789
X51893Y18789
X50893Y18789
X55223Y22939
X54223Y23479
T07
X52293Y30689
X25523Y30669
X9803Y30669
X7243Y27529
X7243Y22529
X9753Y3089
X25543Y3109
X52293Y3109
T08
X54723Y7699
X54723Y26219
X7193Y20239
X7193Y7119
T09
X6643Y3109
X55453Y3109
X55453Y30689
X6643Y30699
M30
